<?xml version="1.0" encoding="utf-8"?>
<!-- Generator: Adobe Illustrator 25.2.0, SVG Export Plug-In . SVG Version: 6.00 Build 0)  -->
<svg version="1.1" id="Calque_1" xmlns="http://www.w3.org/2000/svg" xmlns:xlink="http://www.w3.org/1999/xlink" x="0px" y="0px"
	 viewBox="0 0 333 304" style="enable-background:new 0 0 333 304;" xml:space="preserve">
<style type="text/css">
	.st0{fill:#82B657;}
	.st1{fill:#ACDB52;}
	.st2{fill:#A1CE57;}
	.st3{fill:#4A0D17;}
	.st4{fill:#400F18;}
	.st5{fill:#BE1F1F;}
	.st6{fill:#A91F1F;}
	.st7{fill:#3FA4A4;}
	.st8{fill:#EAD015;}
	.st9{fill:#FF9517;}
	.st10{fill:#FF646B;}
	.st11{fill:#DA0B00;}
	.st12{fill:#EDB720;}
	.st13{fill:#EEA920;}
	.st14{fill:#168992;}
	.st15{enable-background:new    ;}
</style>
<g id="Groupe_454" transform="translate(11.591 4)">
	<g id="Groupe_453" transform="translate(3.267 60.617)">
		<g id="Groupe_292" transform="translate(0 80.883)">
			<path id="Tracé_238" class="st0" d="M82.4,63.9c-1.4,1-3.4,0.9-4.6,2.4c2,0.5,4,0.2,6,1c1.6,0.7,2.9,1.4,4.7,1.1
				c-2.3,0.8-5.1,0.8-7.3,2.8c0.7,0.7,1.7,1.1,2.7,0.9c-0.2,0.2-0.4,0.5-0.5,0.7c0.4,0.1,0.8,0.7,1.3,0.7c-0.1,0.2-0.1,0.4-0.1,0.5
				l0.1-0.2l0.2,0.6c1.9,1,4.2,1.4,6.3,1.1c4.6-0.5,6.5,6.7,11.2,5.6c2.9-0.7,5.3,0.6,7.8,1.9c2.5,1.3,5,2.8,7.9,2.4
				c10.7-1.4,20.9-4.8,30.7-1.4c9.4,3.1,12.7,7.3,21.1,5.5c8.3-1.9-3.8-8.8,5.8-9.2c25-1,44.2-8.7,50.7-14.4
				c4.8-4.1,15.8-10.9,17-17.6c-4.3,5.9-11,9.7-17.4,12.6c11.4-10.2,23.1-21,30.4-34c-7.4,11.6-17.5,21.3-29.5,28.2
				c-11.7,6.7-27.9,15.2-46.3,10.4c20.4-0.5,36.7-6.3,50.1-15.8c13.4-9.4,24.8-22.2,28.1-36.6c0.6-2.3,0.7-4.6,0.6-7
				c-1.2,15.3-11.5,28.4-24.5,37.9c-13,9.6-26.8,12.6-52.3,11c-14.8-0.9-37-12.7-37-12.7c-16.4-1-47.3,16.7-64.1,20.8
				C81.9,63.5,82.1,63.7,82.4,63.9z"/>
			<path id="Tracé_239" class="st1" d="M127.9,57.2c-31.7-18.3,21.5,5.1,48.8-12.9c-6.5,4.3-11.9-8.3-15.4-11.8
				c-17.2-6.1-15.9,12.1-32.8,7.6c-3.8-1-6.7-2.5-11.4-3.9c-6.9-2-15.6-3.9-20.4-3.7C86.4,32.8,83.3,36,77.8,47.8
				c5.2,3.6,11.5,3.4,16.4,7.7c-2.2,1.6-4.8,3.4-7.4,3.9c2.2,1,4.6,3.2,6.9,2.6L127.9,57.2z"/>
			<path id="Tracé_240" class="st2" d="M57.7,29.6c1.1,0.6,2.8,1.4,3.3,2.4"/>
			<g id="Groupe_290" transform="translate(18.019 16.54)">
				<path id="Tracé_241" class="st2" d="M188.8,49.5c1.6-0.8,3.1-1.8,4.3-3c-9.4,6.5-23.7,8.4-37.6,7.5c-14-0.9-29.6-5.9-42.7-11.9
					c-12.2-5.4-23-11.3-34.8-15.1c-2.9-1.6-5.8-3-8.7-4.4c-5.9-2.9-11.7-5.8-18-8.3l-4.8-1.9c-1.9-0.7-3.9-1.3-5.9-1.7
					c-0.2,0-0.3-0.1-0.5-0.1l-4.8-1.9c-2.3-0.9-4.7-1.6-7.2-2.1C21.7,5.6,15.1,6.6,9.3,9.6c1.5,1.7,5.1,2.1,6.1,4.1
					c-1.8,0.4-3.7,0.7-5.6,0.8c0.9,0.5,1.3,1.5,2.8,1.5c-1.4,0-2.9,0.3-4.2,1c0.7,1,3.9,0.5,5.4,0.5c0.9,0,5.8-0.9,5.9-0.1
					c-3.8,0.8-7.9,1.2-12,2.5C8.3,20.2,9,20.4,9.3,21c-1.7,0.4-3.5-0.1-5.3,0.7c1.6,0.8,3.7,1,5.1,2.1c1.1,1,2.4,1.7,3.9,1.9
					c-2.5,0.1-5.1-0.6-8,0.4c0.2,0.8,1.2,1,2.1,1.3c-0.3,0.1-0.5,0.3-0.8,0.4c0.3,0.2,0.4,0.7,0.8,0.8C7,28.7,6.9,28.8,6.7,29
					l0.2-0.1L30.6,34c0.7,1.3,1.3,2.6,3.4,2.7c2,0.1,3.9,1.1,5.2,2.6c1.4,1.3,2.8,2.6,5.1,2.9c8.6,1.1,17.7,1,24,4.8
					c6,3.6,9.9,0.7,16.4,3.2c6.5,2.5,8.2,5.6,14.9,9.1c7.8,4.2,27.9,2.9,35.5,2.9c5.4,0.1,16.5,1.4,21.1-1.2
					c-6.2,0.9-12.7,0-18.5-1.3c13.2-0.1,27.1-0.3,39.2-3.3c-11.6,2.3-23.6,2.7-35.3,1c-11.5-1.7-26.8-4.3-36.2-14
					c14.1,6.1,29,9.8,44.3,11.2C163.7,56,178.4,54.7,188.8,49.5z"/>
				<path id="Tracé_242" class="st2" d="M6.7,29l-0.5,0.4C6.4,29.3,6.6,29.1,6.7,29z"/>
			</g>
			<g id="Groupe_291" transform="translate(0 5.197)">
				<path id="Tracé_243" class="st2" d="M11.7,28.6c0.2,0.7-0.6,0.3-0.8,0.5c0.2,0.2,0.7-0.3,0.8,0.2c-0.2,0.3-0.6,0.4-1,0.2h-0.1
					c0.5,0.4,1.6,0,1.9,0.9c-0.2,0-0.4,0.3-0.2,0.5c0.7,0.1,1,0.7,1.7,0.9L13.7,32c0.6,0.1,1.3,0.1,2,0.1c-0.5,0.7,1.1,0.1,1,0.8
					c0.3-0.5,0.9-0.7,1.1-0.4c0.7-0.4,1.7-1.2,1.7-2.1c0.3-0.5-0.1-0.6-0.2-1.3l-0.1,0.1c0-0.2-0.4-0.5-0.1-0.7
					c-0.4-0.1-0.7-0.3-0.8-0.6c0-0.4-0.4-0.9-0.7-0.8c-0.1-0.1-0.1-0.2-0.1-0.3c-0.2,0-0.4-0.1-0.5-0.2c-1-0.2-1.9-0.6-2.8-1.2
					l0.3,0.2l-0.2,0.3l-0.8-0.8c0.1,0.4,0.7,0.8,0.4,1.1c-0.3,0.3-0.6-0.1-0.9-0.1l0.3,0.2c-0.3,0.3-0.8-0.3-1.3,0.1
					c0.5,0.6,0.1,1-0.4,1.3l-1.1,0C11.1,27.8,11.5,28.1,11.7,28.6z"/>
				<path id="Tracé_244" class="st2" d="M45.6,56.8l-0.2,0c0.3,0.1,0.4,0.4,0.7,0.7c-0.1,0.1-0.2,0.2-0.4,0.2l-0.1-0.1
					c0.1,0.2,0.7,0.1,0.5,0.6l-0.1,0.1c0.9-0.1,1.1,0.8,1.9,0.8c0.6,0.9,1.5,0,2.1,0.1c0-0.4,0.4-0.5,0.5-0.7l0.1-1.8
					c-0.3-0.2-0.5-0.6-0.8-1c0.6-0.2,1-0.6,1.3-1.2c0.4-1-0.6-1.1-0.8-1.9c-0.4,0.2-0.9-0.1-1.3-0.3L48.7,52
					c0.3,0.8-0.9,0.5-1.3,0.6l-0.3,0c0.2,0.2,0.5,0.2,0.5,0.5L46.8,53c0.2,0,0.3,0.1,0.4,0.3L47,53.5c0.2,0,0.2,0.1,0.3,0.2
					c0,0.1-0.1,0.2-0.2,0.3l0.3,0.2c-0.3,0.2-0.6,0.3-0.4,0.7l-1,0.1l0.3,0.2c-0.1,0.2-0.3,0.2-0.5,0.2l-0.1-0.1l0.2,0.3l-0.7,0
					C45.2,56.1,46.1,56.3,45.6,56.8z"/>
				<path id="Tracé_245" class="st2" d="M5.5,24.1l0.1,0.3c-0.2,0.2,1-0.4,1.2,0.3c2.5-0.6-0.3-3.7,3-3.5c-0.2-1.5,1.6-2.3,0.4-3.7
					c-1.1-1-2.6-0.6-3.7-0.1l-1.6,0.9c0.3,0.2,0.2,0.5-0.1,0.6l-0.6,0.5c1.3,0.4-0.4,1-0.1,1.8L4.3,21c0.9,0.9-0.5,1.3-0.1,2.3
					L4,23.9C4.4,24.3,5,24,5.5,24.1z"/>
				<path id="Tracé_246" class="st2" d="M14,49.9c-0.3,0.1,0.5,0.1,0.1,0.4c0.5,0,0.4,0.5,0.7,0.6L14.8,51c0.7-0.3,0.6,1.1,1.7,0.5
					c0.5,0.6,0.9-0.5,1.3-0.3c0.6-0.5,0.7-1.4,0.4-2.1c-0.4-0.7-0.3-0.2-0.9-1l-0.3-0.3c-0.2,0.7-0.6-0.8-0.9,0
					c-0.3,0-0.6-0.3-0.9-0.2c0.1,0.1,0.1,0.2,0.1,0.3C15,48.1,14.7,48,14.5,48l0.1,0.3l-0.5,0.2c0.1,0,0.1,0.2,0.1,0.3l-0.3,0.1
					C13.7,49.4,14.6,49.4,14,49.9z"/>
				<path id="Tracé_248" class="st2" d="M27.6,31.4v0.3c0.3-0.1,0.3,0.3,0.4,0.5c0.6,0,1.5,0.2,1.7-0.4l-0.2-1
					c-0.3,0.1-0.6-0.3-0.9-0.4c0,0.4-0.6,0.1-0.5,0.2l0.1,0.1c-0.4,0.1-0.5,0.2-0.8,0.5c0.1-0.1,0.3,0,0.3,0.1
					C27.7,31.3,27.7,31.3,27.6,31.4L27.6,31.4z"/>
				<path id="Tracé_249" class="st2" d="M27.8,30.9L27.8,30.9l0.4,0.1v-0.1L27.8,30.9z"/>
				<path id="Tracé_250" class="st2" d="M30.9,7.7c0.6,0,1.2-0.5,0.8-1.1c-0.3-0.3-0.8-0.4-1.2-0.3C29.9,6.6,29.9,7.9,30.9,7.7z"/>
				<path id="Tracé_251" class="st2" d="M40.8,42.7c-0.1,0.3,0,0.2,0.1,0.6c0.3,0.2,0.9,0.3,1.2,0c0.2-0.3,0.2-0.7,0-1.1
					c-0.4-0.3-0.3-0.2-0.7-0.4c-0.3,0.2-0.8,0.3-0.7,0.8L40.8,42.7z"/>
				<path id="Tracé_252" class="st2" d="M43.3,44.3c0.1-0.2-0.1-0.3-0.2-0.5c-0.2,0-0.4,0.1-0.3,0.4L43.3,44.3z"/>
				<path id="Tracé_253" class="st2" d="M33.4,26.3c0.2,0.3,0.6,0.4,0.9,0.4c0.1-0.2,0.4-0.4,0.1-0.6c-0.3-0.2-0.6-0.3-0.9-0.4
					c-0.1,0.2-0.4,0.3,0,0.5L33.4,26.3z"/>
				<path id="Tracé_254" class="st2" d="M34,26.1l0.1-0.1c0.2,0.2-0.4-0.5-0.4,0.1C33.8,26.4,33.9,26.2,34,26.1z"/>
				<path id="Tracé_255" class="st2" d="M45.2,20l-0.5,0.2c0.4-0.1,0.6,0.2,0.9,0.5c0,0.1,0,0.2-0.1,0.3c0.3-0.1,0.5,0.2,0.7,0.3
					l-0.2,0.4c1.1-0.1,2.9,0.8,3.7-0.8l-0.1-1.7l-0.1,0.1c-0.3-0.8-0.9-0.9-1.3-1.5l0-0.2l-0.5,0.4c-0.2-0.3-0.1,0.2-0.4,0.1
					l-0.8-0.5c0,0.2,0.1,0.2,0.2,0.3c-0.2,0.4-0.4,0.1-0.7-0.1c0.2,0.4-0.3,0.7-0.7,1.2c-0.1-0.1-0.2-0.1-0.3-0.1
					c0.2,0,0.3,0.2,0.4,0.3v0.1l-0.8,0.1C44.5,19.6,45.3,19.3,45.2,20z"/>
				<path id="Tracé_256" class="st2" d="M56.3,17.4c0.3,0.2,0.3,0.4,0.1,0.6l-0.1,0.1c-0.2-0.1,0.3,0.1,0.4-0.1
					c0.2,0.2,0.1,0.7,0.6,0.6c0.3,0.3-0.2,0.5-0.2,0.7c0.5,0.1,0.5-0.5,1-0.2c0.5,1.1,1.4-0.2,1.9,0.4c0.1,0,0.6,0.1,0.6-0.3
					c0.2,0,0.2,0.2,0.3,0.2c0.5-0.2,0.7-1.1,1.1-1.1c0.3-0.2,0.3-0.5,0.5-0.6c0-0.2,0.1-0.4,0.2-0.5c-0.7-0.4,0.8-0.6,0-0.9
					c-0.1-0.3,0.3-0.4,0.4-0.5c-0.2-0.1-0.5,0.2-0.7-0.1c0.8-0.6-0.6-0.8-0.2-1.6c-0.2,0.2-0.5,0-0.5-0.3l0-0.2
					c-0.5,0.4-0.8-0.5-1.1-0.5c-0.2-0.2-1.1,0.7-1.5-0.3c-0.4-0.2-0.5,1.1-1.2,0.4l-0.3-0.3c-0.3,0.4,0.5,0.5,0.1,0.8
					c-0.4,0.1-0.3-0.3-0.6-0.4c0,0.1,0.8,1-0.1,1.1l-0.7-0.3c0.2,0.3,0.3,0.6,0.4,0.9c-0.2,0.6-0.7-0.2-0.6,0.2
					c0.2,0.2,0.5,0.2,0.4,0.6l-0.7,0.4C56.1,16.4,55.8,17.2,56.3,17.4z"/>
				<path id="Tracé_257" class="st2" d="M58.6,52.9c0.1-0.2,0.3-0.3,0.2-0.6c-0.2-0.5-0.7-0.2-0.8,0C58.4,52.7,58,52.9,58.6,52.9z"
					/>
				<path id="Tracé_258" class="st2" d="M70.5,33.3c0.3-0.1,0.5,0.1,0.7-0.3c-0.1-0.2-0.1-0.6-0.4-0.7l-0.3,0
					c-0.2,0.2,0.6,0.4,0,0.6l-0.2-0.3C70.4,32.9,70.3,33.2,70.5,33.3z"/>
				<path id="Tracé_259" class="st2" d="M70.6,21.2c0,0.3,0.1,0.6,0.2,0.9c0.4,0.4,1,0.6,1.6,0.6c0.7-0.5,1.2-0.6,1.1-1.5
					c0.4-0.2-0.4-0.6,0.2-0.7c-0.2-0.2-0.9-0.3-0.5-0.7c0.1,0.3-0.6,0-0.8-0.1l0-0.2c-0.1,0-0.2,0.3-0.4,0.1
					c-0.2-0.5-0.5,0.2-0.8-0.1c0.1,0.1,0.1,0.2,0.1,0.4c-0.1,0.2-0.3,0-0.5,0l-0.1-0.1l0.2,0.2l-0.4,0.5l0.2,0.2l-0.3,0.1L70.6,21.2
					z"/>
				<path id="Tracé_260" class="st2" d="M78.9,27.3c0.1,0.2,0.8,0.1,0.7,0.6c0.2-0.1,0.3,0.1,0.4,0.3l0,0.2
					c0.1-0.2,0.3-0.1,0.4-0.1c0.2,0.1,0,0.3,0.1,0.4c0.1-0.2,0.3-0.1,0.4-0.3l0.4,0.2c0-0.1,0.2-0.2,0.2-0.3
					c0.6,0.5,0.9-0.4,1.3-0.5c0.5-0.1,0.1-1,0.8-1c-0.7-0.9,0.4-1.3-0.4-2.4c-0.1,0-0.2-0.1-0.3,0.1c-0.3-0.1-0.2-0.5,0-0.7
					c-0.2,0-0.3,0.1-0.4,0.3c-0.2-0.9-1.1-0.3-1.4-0.7c0,0.4-0.5,0-0.6,0.3l-0.2-0.2l0.1,0.4c-0.2-0.1-0.4,0.1-0.6-0.3
					c-0.2,0.5,0,1.2-0.7,1c0.2,0.2,0.1,0.4,0.2,0.6C78.2,25.6,79.6,26.7,78.9,27.3z"/>
				<path id="Tracé_261" class="st2" d="M26.8,58.9c0.5-0.1,1,0.3,1.3-0.5c0-0.6-0.2-1.7-1-1.3L27,56.9l-0.6,0.5
					c0.3,0.4-0.4,0.6,0,1.1C26.6,58.5,26.9,58.5,26.8,58.9z"/>
				<path id="Tracé_262" class="st2" d="M29.4,57.7l0.6,0.2L29.4,57.7z"/>
				<path id="Tracé_263" class="st2" d="M31.1,58.4l-0.8-0.4v0.1l-0.2-0.1v0.2L31.1,58.4z"/>
				<path id="Tracé_264" class="st2" d="M32.2,59.4c-0.1,0-0.1,0-0.2,0.1c0.2,0.1,0.3,0.1,0.4,0.2L31.9,60c0.4,0.1,0.6,0.4,0.8,0.8
					l-0.1,0.1c0.6,0.6,1.5,0.8,2.3,0.6c0.5-0.3,1-1,1.7-0.7c0.2-0.3-0.4-0.3-0.1-0.5s0.5-1,0.7-1.4c-0.6-0.4-0.4-0.8-0.6-1.4
					c-0.2-0.2-0.7-0.2-0.5-0.7l-0.3,0.3c-0.4-0.2-0.1-0.7-0.2-1l-0.5,0.4c-0.2-0.5-1-0.4-1.4-0.6c-0.5,0.6-1.1-0.2-1.4-0.6
					c-0.2,0.4,0.6,1.1,0,1.6c-0.1-0.1-0.1-0.3-0.3-0.2c-0.5,0.5,0.6,0.8,0,1.1l-1-0.9C31.8,57.8,32.6,58.3,32.2,59.4z"/>
				<path id="Tracé_265" class="st2" d="M31.5,58.6l0.4,0.2L31.5,58.6z"/>
				<path id="Tracé_266" class="st2" d="M35.8,54.5L35.8,54.5l-0.1,0.4L35.8,54.5z"/>
			</g>
		</g>
		<g id="Groupe_296" transform="translate(136.335)">
			<path id="Tracé_267" class="st3" d="M120.7,42.4c0.4,0.2,0.8,0.4,1.2,0.5c1.7,0.7,3.6,1.7,5.4,1.8c3.9,0.1,8.2-3.8,9.6-7.6
				c0.5-1,0.7-2.1,0.6-3.2c0-0.7-0.4-1.2-1-1.5c-1.1-0.3-2.1,0.7-2.3,2.1s0.1,2.7-0.1,4.1c-0.5,2-2,3.5-4,4
				c-1.7,0.3-3.5,0.1-5.1-0.6c-1.6-0.6-3.2-1.3-4.7-2.2c-0.4-1.6-0.9-3.2-1.5-4.7c0.8-2.1,0-5.1-2.1-7.6l0,0l0,0l0,0l0,0
				c-2.4-2.2-5.4-3.1-7.5-2.4c-1.5-0.7-3.1-1.3-4.7-1.7c-0.8-1.5-1.5-3.1-2-4.8c-0.6-1.6-0.8-3.4-0.3-5.2c0.6-1.9,2.2-3.4,4.2-3.8
				c1.4-0.2,2.7,0.2,4.1,0.1s2.4-1.1,2.2-2.2c-0.1-0.5-0.6-0.9-1.4-1.1c-1.1-0.1-2.2,0-3.2,0.5c-3.8,1.2-7.9,5.3-8,9.2
				c0,1.8,0.9,3.8,1.5,5.5c0.2,0.4,0.3,0.9,0.5,1.3c-3.3-0.6-6.7-0.4-10,0.4c5.7,3.5,12.9,9.4,17.2,16.8c3.2,7.2,4.1,11.5,7.4,17.3
				C119.6,52.3,121.1,45.8,120.7,42.4z"/>
			<path id="Tracé_268" class="st4" d="M60.2,92.9c-34.6,17.3-56.2,18-56.2,18c7.7,12.1,29.8,29.5,71.9,7.9
				c16.4-8.4,42.2-34.2,31-63.8C94.2,70.7,78.3,83.7,60.2,92.9z"/>
			<path id="Tracé_269" class="st5" d="M67.5,86.1c-33.4,23.1-61.8,30.6-61.8,30.6c9.9,11.4,41.3,27.8,81.8-0.8
				c15.8-11.1,38.6-41.7,22.3-70.5C109.8,45.3,95.8,66.6,67.5,86.1z"/>
			<g id="Groupe_294" transform="translate(9.384 31.703)">
				<path id="Tracé_270" class="st6" d="M58.2,54.4C27.5,80.9,4,90.4,4,90.4c11.1,10.3,47.7,26.6,84.9-6.2
					c14.5-12.8,30.7-50.6,9.6-77.9C87.6,24.3,74,40.6,58.2,54.4z"/>
				<g id="Groupe_293" transform="translate(23.26 83.675)">
					<path id="Tracé_271" class="st7" d="M25.5,18.8c-1.1-0.2-0.8-1.3-1.1-2.1c0.3-0.1,0.6-0.4,1-0.4c0.2-0.8-0.7-0.4-1.2-0.8
						c-1-0.7,0.9-1.3,0.6-1.6c-1-0.3-2-0.8-2.8-1.4c0.1-0.7,0.1-1.4,0.3-2c-0.3-0.5-0.9-0.1-1.3-0.2c0-0.6,0.7-1.4-0.1-1.9
						c-1.1,0.6-1.5-0.4-2.5-0.5c-0.9-0.1,0.4-1.8-0.3-1.7c-0.8,0.1-0.2,1.1-0.8,1.3c-0.6,0.1-1.2,0-1.8-0.2l0-1.1
						c-1.3,0.8-2.7,1.4-4.2,1.8c-0.1-0.4,0-1-0.6-1.1c-0.4,0.4-0.1,0.9-0.3,1.4c-1.9,0-1.8,2.6-3.2,2.1c-0.7,0.2,0.2,0.7,0.1,1.1
						c-0.3,1-0.9-0.1-1.5,0.3c0,0.4,0.5,0.5,0.6,0.8c0.2,1.4-1.4,0.6-2,1.1c0.2,0.5,1.1,0,1.2,0.7c-0.9,0.8-0.4,2.1-1.6,2.6
						c1,0,1,0.9,1.4,1.5c-0.2,0.1-0.5,0.5-0.8,0.5c0,0.6,0.5,0.4,0.9,0.3c0,0.1-0.1,0.3-0.2,0.4c8,1.2,12.3,0.5,18.9,0
						C24.4,19.3,24.9,18.9,25.5,18.8z"/>
				</g>
				<path id="Tracé_272" class="st8" d="M74.5,60.4c-1.8-0.9,0.6-1.6,0.5-2.5c-0.8,0-0.7,1.7-2,1.2c-0.1-1,0.4-1.9,1.3-2.2l0.2-0.2
					c-1.6,0.2-2.9,3.2-5.1,2.1c0.4-0.4,0.1-1.5-0.6-1.4c-1.4,1.3-3.2,0.6-4.8,1.7l0.1-1c-1.4,0.8-2.5,2.4-3.8,3.5
					c-0.5-2.2-2.2,1.9-3.2,0.4c0.3,1.5-0.2,3-1.3,2.9c-0.5,2.2-0.8,5.4,1.1,7.2c0.4,1.5,1.4,0.9,2.9,1.9l0-0.5
					c0.5,0.3,1.5,0.1,1.4,1c0.8-0.6,1.8-0.7,2.8-0.4c0.8,0.8,2.4,0.9,2.8,0c0.4-0.1,0.6,0.2,0.7,0.4c0.3-0.4,0.9-0.6,1.4-0.6
					c2.2-1.1,4.2-2.9,7.4-3.1l-0.9,0.3l-0.4-1l2.8-0.1c-0.9-0.5-2.7-0.1-3-1.3c0.1-1.1,1.2-1.1,1.9-1.6l-1,0.2
					c-0.1-1.2,2.1-1.1,2.2-2.6c-2.2-0.1-2.1-1.6-1.7-3l1.9-2C77.3,60.7,75.8,61,74.5,60.4z"/>
				<path id="Tracé_273" class="st9" d="M100.8,28.6c0.1-0.1,0.1-0.3,0.3-0.4c-0.1-0.4-0.4,0-0.6,0c-0.5,0,0-0.7-0.2-0.7
					c-0.4,0.2-0.9,0.2-1.4,0.2c-0.2-0.3-0.3-0.5-0.4-0.8c-0.2-0.1-0.3,0.2-0.6,0.3c-0.2-0.2-0.1-0.7-0.5-0.7c-0.2,0.5-0.7,0.3-1,0.5
					c-0.3,0.2-0.3-0.8-0.5-0.6c-0.3,0.3,0.2,0.4,0,0.7c-0.2,0.2-0.5,0.3-0.7,0.4l-0.3-0.4c-0.2,0.6-0.6,1.2-1.1,1.8
					c-0.1-0.1-0.2-0.4-0.5-0.3c0,0.2,0.2,0.3,0.2,0.6c-0.7,0.5,0,1.4-0.6,1.7c-0.2,0.3,0.3,0.2,0.3,0.4c0.2,0.4-0.4,0.2-0.5,0.5
					c0.1,0.1,0.3,0.1,0.4,0.1c0.4,0.5-0.4,0.6-0.4,0.9c0.2,0.2,0.4-0.3,0.6-0.1c-0.1,0.5,0.4,0.9,0.1,1.4c0.4-0.3,0.6,0.1,0.9,0.2
					c-0.1,0.1-0.1,0.3-0.2,0.4c0.2,0.2,0.3,0,0.4-0.1c0.1,0.2,0.1,0.5,0.2,0.7c0.2,0.2,0.4-0.1,0.7-0.1c0.1,0.3,0,0.8,0.4,0.9
					c0.4-0.5,0.8-0.1,1.2-0.2c0.4-0.1,0.2,1,0.4,0.8c0.3-0.2-0.1-0.6,0.1-0.8c0.2-0.2,0.6-0.2,0.8-0.2l0.2,0.6
					c0.4-0.6,0.9-1.2,1.6-1.6c0.1,0.2,0.2,0.5,0.5,0.4c0.1-0.3-0.1-0.4-0.1-0.7c0.9-0.3,0.3-1.6,1.1-1.6c0.3-0.2-0.2-0.3-0.3-0.5
					c-0.1-0.5,0.4-0.1,0.6-0.4c-0.1-0.2-0.3-0.2-0.4-0.3c-0.4-0.6,0.5-0.6,0.7-0.9c-0.2-0.2-0.5,0.2-0.7-0.1
					c0.3-0.5-0.2-1.1,0.2-1.5C101.2,29.3,101.1,28.8,100.8,28.6z"/>
			</g>
			<g id="Groupe_295" transform="translate(98.398 82.113)">
				<path id="Tracé_274" class="st10" d="M15.3,8.6c0-0.4-0.4,0-0.6,0c-0.5-0.2,0.1-0.5,0-0.8c-0.2-0.1-0.3,0.2-0.5,0.3
					c-0.7,0-0.2-0.8-0.4-1.2c-0.3,0-0.1,0.6-0.4,0.6c-0.3-0.6-1-0.4-1.2-1.1c-0.1,0.6-0.6,0.4-0.9,0.6c0-0.1-0.2-0.3-0.2-0.5
					c-0.4-0.1-0.2,0.4-0.3,0.7c-0.3,0.5-0.6-0.4-0.7-0.2C10,7.3,9.9,7.7,9.6,8.1C9.3,7.9,9,7.7,8.7,7.5C8.3,7.6,8.4,8,8.2,8.2
					C7.9,8,7.6,7.5,7.2,7.7c0.1,0.7-0.6,0.7-0.9,1.2c-0.2,0.5-0.9-0.7-1-0.3C5.2,9.1,5.9,9,5.9,9.4c0,0.4-0.3,0.7-0.5,0.9L4.7,10
					c0.2,0.9,0.2,1.8,0,2.7c-0.2-0.1-0.5-0.3-0.7,0C4.1,13,4.5,13,4.7,13.3c-0.4,1,1,1.6,0.4,2.3c-0.1,0.4,0.4,0.1,0.6,0.2
					c0.5,0.4-0.2,0.5-0.2,0.9c0.2,0.1,0.4-0.1,0.6-0.1c0.8,0.2,0,0.9,0.2,1.3c0.3,0.1,0.3-0.6,0.7-0.5C7.2,18,8,18.1,8,18.9
					c0.2-0.6,0.7-0.3,1.1-0.4c0,0.1,0.2,0.4,0.1,0.6c0.4,0.2,0.3-0.2,0.4-0.5c0.2,0.1,0.4,0.1,0.6,0.1c0.1,0.2,0.1,0.3,0.2,0.2
					c0-0.1,0.1-0.1,0.1-0.2c0.2,0,0.3,0,0.5,0c1.6-3.1,3-6.2,4.3-9.5C15.2,9.1,15.2,8.8,15.3,8.6z"/>
			</g>
			<path id="Tracé_275" class="st4" d="M70.4,84c-4.8,3.7-9.7,7.2-14.8,10.5c-1.3,0.8-2.5,1.7-3.8,2.5l-3.9,2.3
				c-1.3,0.8-2.6,1.5-3.9,2.3s-2.6,1.5-4,2.2c-5.3,2.9-10.8,5.6-16.3,8c-5.6,2.4-11.3,4.6-17.1,6.4l0.3-1.5c3.1,2.7,6.4,5.1,9.9,7.2
				c3.5,2.2,7.1,4.1,10.8,5.8c7.5,3.4,15.4,5.4,23.6,6.1c8.2,0.7,16.4-0.3,24.2-2.8c3.9-1.2,7.7-2.8,11.4-4.7
				c3.7-1.9,7.2-4.1,10.5-6.5c-6.5,5.2-13.8,9.3-21.6,12.1c-7.9,2.8-16.3,3.9-24.6,3.4c-8.4-0.6-16.5-2.7-24.2-6
				C19.1,128,12,123.5,5.7,118l-1.2-1l1.5-0.4c5.7-1.8,11.4-3.8,16.9-6.2c5.5-2.4,11-4.9,16.4-7.6S50,97,55.2,93.9
				c2.6-1.5,5.1-3.2,7.7-4.8C65.4,87.4,67.9,85.7,70.4,84z"/>
		</g>
		<g id="Groupe_298" transform="translate(137.078 8.167)">
			<path id="Tracé_277" class="st11" d="M12.9,6.3l-2,0.9L12.9,6.3z"/>
			<path id="Tracé_278" class="st11" d="M6.9,9.1l2.8-1.1L9.3,7.6l0.8-0.2L9.6,6.9L6.9,9.1z"/>
			<path id="Tracé_279" class="st11" d="M5.6,9.7L4,10.1L5.6,9.7z"/>
		</g>
		<g id="Groupe_299" transform="translate(40.611 54.44)">
			<path id="Tracé_280" class="st6" d="M24.8,11.3c0.8-1.4,1-3.1,0.5-4.6c-0.2-0.5-0.6-0.5-0.9,0c-1,1.6-2,3.3-2.8,5.1
				c-1,0.1-2.1,0.2-3.1,0.2c-0.6,0-0.8,0.2-0.4,0.8c0.6,0.7,1.5,1.1,2.4,1.1c-1.6,3.2-3.2,6.7-4,8.7c-0.2,0.5-0.3,1-0.4,1.5
				c-1.6,2.6-4.2,5.4-7.1,5.2c-2-0.1-2.9-2.7-1.7-6.5c2.6,2.3,5.1,1.3,7-1.2c1.6-2.1,1.9-4.6,1.2-5.6c-0.6-0.9-1.3-1.6-2.2-2.1
				c-1.9-1.2-5.7,0.9-8.1,6.2s-0.8,10.4,4,10.3c2.7-0.2,5.2-1.5,6.8-3.6c0.3,2.2,1.7,3.5,3.3,3.6c3,0.1,5.5-3.5,6-4.7
				c0.4-0.7,0.5-1.5,0.4-2.3c-0.1-0.6-0.6-0.5-0.8,0c-1.4,3.1-3.5,6-5.2,5.9c-1.6-0.1-2-2.6-0.7-5.6c1.4-3.4,3.6-7.4,5-10.1
				c1-0.2,1.9-0.2,2.9-0.2c0.6,0,0.7-0.3,0.4-0.8C26.7,11.6,25.8,11.1,24.8,11.3z M7.9,21c1.8-3.9,4.9-6.3,5.7-5.6
				c0.5,0.4-0.3,2.6-1.5,4.3c-1.1,1.6-2.6,3.3-4.5,2C7.7,21.5,7.8,21.3,7.9,21L7.9,21z"/>
			<path id="Tracé_281" class="st6" d="M145.7,13.7c0.6-0.8,0.7-1.8,0.3-2.7c-0.5-1.1-1.6-1.6-2.2-0.9c-0.7,0.9-0.7,2.1-0.2,3
				C144.1,14.2,145.2,14.3,145.7,13.7z"/>
			<path id="Tracé_282" class="st6" d="M158,23.5c-0.1-0.4-0.4-0.4-0.6,0c-1.6,2.7-4.3,6-7.5,5.8c-2-0.1-2.9-2.7-1.7-6.5
				c2.6,2.3,5.1,1.3,7-1.2c1.6-2.1,1.9-4.6,1.2-5.6c-0.6-0.9-1.3-1.6-2.2-2.1c-1.9-1.2-5.7,0.9-8.1,6.2c-0.5,1.2-0.9,2.4-1.1,3.7
				c-1.1,2.8-3.1,5.3-4.8,5.4c-1.2,0.1-1.3-1.5-0.4-3.9c0.8-2,2.4-4.8,3.2-6.6c0.9-2,0.6-3.8,0-4.5c-0.3-0.4-0.6-0.2-0.9,0.2
				c-1.9,3.1-3.5,6.3-4.7,9.7c-1.4,2.6-3.1,5-4.5,5c-1.3,0.1-1.6-1.8-0.6-4.2c0.9-2.1,2.7-5.1,3.5-6.9c0.9-2.1-0.2-4.1-1.5-4.3
				s-3.8,2-5.5,4c0.5-1.3,0.4-2.6-0.1-3.9c-0.2-0.4-0.5-0.4-0.8,0c-2.3,3.7-4.2,7.5-5.8,11.6c-1.5,1.8-3.3,3.2-5.3,4.3
				c1.6-4,3.9-8.9,5.1-11.4c0.8-1.4,0.8-3.1,0.1-4.5c-0.3-0.4-0.6-0.3-0.9,0.2c-0.4,0.7-0.8,1.4-1.2,2.2c0-1.4-0.7-2.7-2.2-2.7
				c-1.9,0-4.9,1.8-7.9,6.6c-0.9,1.4-1.5,3-1.8,4.7c-1.3,2.3-2.9,4.3-4.2,4.3s-1.2-1.7-0.3-4c0.9-2.2,2.8-5.2,3.6-7.1
				c0.8-1.4,0.8-3.1,0-4.5c-0.3-0.4-0.6-0.3-0.9,0.2c-0.4,0.7-0.9,1.5-1.4,2.5c0.1-1.6-0.7-2.9-2.3-2.9c-1.9,0-4.8,1.8-7.9,6.7
				c-0.8,1.3-1.4,2.7-1.8,4.2c-1.3,2.5-3.4,5-6.7,5.2c1.8-1.5,3.2-3.4,3.9-5.6c1.4-3.3,2.2-7,0.4-9.1c-1.6-1.8-3.8-0.7-5.5,0.9
				c0-0.6,0-1.2-0.2-1.8c-0.2-0.5-0.5-0.6-0.9,0c-2.4,3.9-4.5,8-6.4,12.1c-1.1,1.8-2.2,3.1-3.3,3.2c-1.4,0.1-1.9-1.8-0.8-4.2
				c0.9-2,2.7-4.7,3.4-6.5c0.8-2,0.4-4.4-0.9-4.4c-1.2,0-3.7,1.9-5.5,3.7c0.4-1.8-0.2-4-1.5-4c-1.3,0-4.1,2.4-5.8,4.4
				c0.6-1.3,0.6-2.9,0.1-4.3c-0.2-0.4-0.6-0.4-0.8,0c-1.9,3.3-4.3,6.3-6.7,6.4c0.1-0.2,0.1-0.4,0.1-0.7c0.2-3-0.9-3.2-1.8-4.5
				c-0.8-1.1-1.3-1.5-2.5-1.4c-2.2,0.2-4.5,2.6-6,5.3c-0.8,1.6-1.4,3.3-1.6,5c-1.6,2.4-4.1,5.1-6.9,5c-2.2,0-3-3.4-0.9-8.1
				c1.7-3.7,4.5-6.3,5.1-5.8c0.5,0.4-0.6,2.2-1,3.7c-0.5,1.8,0,3.1,0.9,3.6c0.5,0.3,0.6,0.2,0.8-0.3c0.8-2.2,2.3-4.4,1.5-6.1
				c-0.4-0.9-1.1-1.7-2-2.2c-1.9-1.2-5.7,1-8.1,6.1c-2.4,5.3-0.8,10.3,3.9,10.3c2.8-0.2,5.3-1.6,6.9-3.9c0.1,0.7,0.4,1.3,0.8,1.9
				c0.9,1.7,3,2.4,4.8,1.8c2.8-1,5.1-5.2,5.9-8.7c1.2,0.1,2.5-0.2,3.5-1c-0.9,1.8-1.7,3.8-2.4,5.7c-0.6,2-0.4,3.4,0.4,4.1
				c0.4,0.3,0.6,0.2,0.7-0.1c1.3-3.7,3.1-7.1,5.5-10.2c2.4-2.9,4.3-4,4.6-3.8c0.7,0.3-3.3,5.9-4.5,9.3c-1,2.9-0.6,4.5,0,5.1
				c0.3,0.4,0.7,0.2,0.9-0.2c1.5-4,3.7-7.8,6.5-11c2.4-2.6,3.7-3.1,4-3c0.6,0.2-2.8,4.7-4.1,8.2c-1.3,3.3-0.2,6.1,3,6.1
				c0.8,0,1.5-0.2,2.2-0.6c-0.6,1.4-1.2,2.9-1.7,4.4c-0.7,2.5-0.5,3.6,0,4.5c0.2,0.4,0.5,0.3,0.6-0.1c1.8-4.5,3.7-8.7,5.5-12.2
				c0.1,1,0.5,2,1.3,2.7c1.3,1.3,2.9,1.7,5.3,1.5c2.4-0.1,4.6-1.3,6-3.2c0.3,1.7,1.3,2.9,2.9,2.9c1.8,0,3.5-1.5,4.7-3.2
				c-0.2,1.7,1.1,3.2,2.7,3.3c0.1,0,0.2,0,0.3,0c1.6,0.1,3.3-1.2,4.5-2.8c0.2,1.5,1.4,2.6,2.9,2.6c1.5-0.1,2.9-0.9,3.8-2
				c-0.4,0.9-0.7,1.9-1.1,2.8c-3.7,1.5-6.9,4-8,7.7c-0.6,1.7-0.3,3.6,0.7,5.1c0.7,1.1,1.4,1.2,2.2,0.9c3-1.3,5.7-7.8,7.8-13.3
				c2-0.7,3.9-1.8,5.5-3.2c0,0.7,0.2,1.4,0.7,1.9c0.3,0.4,0.6,0.2,0.7-0.2c1.6-3.8,3.3-7.8,5.5-10.4c2.4-2.9,4.6-4,4.9-3.8
				c0.7,0.3-2.6,4.7-3.9,8.7c-1.1,3.6-0.3,6.1,2.8,6.1c1.8-0.2,3.4-1.1,4.5-2.6c0.1,1.5,1.4,2.6,2.9,2.5h0c2.3-0.2,4.3-1.6,5.3-3.7
				c0.4,2.3,2.5,3.9,4.9,3.8c3-0.2,5.8-1.8,7.3-4.4C157.9,25.3,158.1,24.4,158,23.5z M148.8,21.2c1.8-3.9,4.9-6.3,5.7-5.6
				c0.5,0.4-0.3,2.6-1.5,4.3c-1.1,1.6-2.6,3.3-4.5,2C148.6,21.7,148.7,21.4,148.8,21.2L148.8,21.2z M51.7,24.2
				c-1.8,3.7-4.1,5.2-5.1,4.2c-1-0.9-0.5-4.7,1.2-7.7c0.7-1.4,1.7-2.7,2.9-3.9c0.1,1.6,1,3.1,2.4,3.9C52.7,21.9,52.3,23,51.7,24.2
				L51.7,24.2z M53.4,19.6c-0.7-0.7-1-1.7-0.9-2.7c0.2-1.2,0.9-1.4,1.1-0.1C53.7,17.7,53.6,18.7,53.4,19.6L53.4,19.6z M82.2,28.3
				c-1-0.9-0.9-3.4,0.1-6c0.4-0.9,0.9-1.6,1.3-2.3c1.8-3.1,4.1-5.2,5-4.7c0.9,0.5,0.5,3.9-0.9,7.1C85.8,26.4,83.4,29.3,82.2,28.3
				L82.2,28.3z M96.1,28.9c-1.5,0-1-3.6,1-7.1c2.1-3.6,4.8-6.3,6-6.2c1.1,0.1,0.7,2.7-1.6,7.1C99.6,26.4,97.6,29,96.1,28.9
				L96.1,28.9z M106.9,42.4c-0.6-1,1-6.6,5.9-9.7C110.4,38.9,107.4,43.2,106.9,42.4L106.9,42.4z M111.2,29c-1.5,0-1.1-3.6,0.9-7.1
				c2.1-3.6,4.8-6.2,6-6.1c1.1,0.1,0.7,2.6-1.6,7.1C114.6,26.5,112.7,29,111.2,29L111.2,29z"/>
		</g>
		<g id="Groupe_300" transform="translate(70.705 113.729)">
			<path id="Tracé_283" class="st10" d="M17.5,21.8c0.7,0.5-0.4,0.6-0.5,1c0.4,0.1,0.5-0.7,1-0.3c0,0.4-0.4,0.8-0.8,0.8l-0.1,0.1
				c0.7,0.1,1.5-1.1,2.4-0.4c-0.2,0.1-0.2,0.6,0.1,0.6c0.7-0.4,1.4,0,2.2-0.3l-0.2,0.4c0.7-0.3,1.3-0.7,2-1.1c0,1,1.1-0.6,1.4,0.1
				c0-0.7,0.4-1.2,0.8-1.1c0.6-0.9,0.7-2.1,0.3-3.1c0-0.7-0.5-0.5-1-1.1l0,0.2c-0.2-0.2-0.6-0.2-0.5-0.6c-0.4,0.2-0.8,0.1-1.2-0.1
				c-0.3-0.4-0.9-0.6-1.2-0.3c-0.2,0-0.2-0.2-0.3-0.2c-0.2,0.1-0.4,0.2-0.7,0.1c-1.1,0.4-2.3,0.6-3.4,0.6l0.4,0l0.1,0.4L17,17.4
				c0.3,0.3,1.1,0.3,1.1,0.8c-0.1,0.4-0.6,0.3-1,0.5l0.4,0c-0.1,0.5-1,0.3-1.2,0.9c0.9,0.2,0.7,0.9,0.4,1.5l-1,0.7
				C16.3,21.4,17,21.4,17.5,21.8z"/>
			<path id="Tracé_284" class="st12" d="M67.6,21.7l-0.2,0.1c0.4,0,0.7,0.1,1.1,0.2c0,0.2-0.1,0.4-0.3,0.4l-0.1,0
				c0.2,0.1,0.7-0.4,0.8,0.2l-0.1,0.2c0.8-0.6,1.5,0.1,2.3-0.5c1.2,0.4,1.4-1,2-1.2c-0.2-0.3,0-0.7,0.1-1l-1.1-1.8
				c-0.5-0.1-0.9-0.2-1.3-0.5c0.4-0.6,0.6-1.3,0.5-1.9c-0.2-1.2-1.3-0.7-2-1.3c-0.3,0.5-0.9,0.5-1.4,0.5l-0.3-0.1
				c0.9,0.6-0.5,1-0.9,1.4l-0.3,0.2c0.3,0.1,0.6-0.1,0.8,0.1l-0.7,0.4c0.2-0.1,0.4-0.1,0.6,0l0,0.4c0.1-0.1,0.3,0,0.4,0.1
				c0.1,0.1,0,0.3,0,0.4l0.5,0c-0.1,0.4-0.4,0.6,0,1l-0.9,0.7l0.4,0.1c0,0.2-0.2,0.4-0.4,0.5l-0.1,0l0.4,0.2l-0.7,0.5
				C66.8,21.4,67.9,21,67.6,21.7z"/>
			<path id="Tracé_285" class="st12" d="M8.4,15.7l0.2,0.2c-0.1,0.3,0.7-1,1.3-0.5c2.1-2.1-2.6-3.3,0.6-5.3c-1.1-1.3,0.1-3.2-2-3.8
				C6.9,6,5.7,7.3,4.9,8.5L4,10.4c0.4-0.1,0.5,0.4,0.3,0.7l-0.2,0.9c1.5-0.5,0.2,1.3,1,1.8l0.1-0.3c1.4,0.3,0.3,1.6,1.4,2.3l0.1,0.7
				C7.5,16.6,7.8,15.9,8.4,15.7z"/>
			<path id="Tracé_286" class="st9" d="M32.9,35.1c-0.2,0.3,0.6-0.2,0.4,0.4c0.4-0.3,0.7,0.3,1.1,0.1l0,0.1
				c0.5-0.7,1.2,0.7,1.9-0.6c0.9,0.3,0.5-1,1.1-1.1c0.2-0.9-0.2-1.8-1-2.2c-0.9-0.4-0.4,0-1.5-0.4l-0.5-0.1c0.2,0.8-1-0.4-0.9,0.6
				c-0.4,0.2-0.7,0-1,0.4c0.1,0,0.3,0.1,0.3,0.2c-0.1,0.3-0.4,0.4-0.6,0.6l0.3,0.2l-0.3,0.5c0.1,0,0.2,0.1,0.3,0.2l-0.3,0.3
				C32.3,34.9,33.2,34.2,32.9,35.1z"/>
			<path id="Tracé_287" class="st10" d="M27.4,33.4l-0.8,0.4l0.5-0.2L27.4,33.4z"/>
			<path id="Tracé_288" class="st7" d="M34.4,8.7l0.3,0.4c0.3-0.4,0.6,0.2,0.9,0.2c0.8-0.5,2-1,1.7-1.9l-1.1-1.1
				c-0.3,0.4-1,0.1-1.5,0.2c0.3,0.4-0.6,0.6-0.5,0.6l0.2,0.1c-0.3,0.4-0.6,0.8-0.6,1.3c0.1-0.2,0.3-0.2,0.5-0.1
				C34.4,8.5,34.4,8.6,34.4,8.7L34.4,8.7z"/>
			<path id="Tracé_289" class="st10" d="M34.2,8.1L34.2,8.1L34.6,8l-0.1-0.1L34.2,8.1z"/>
			<path id="Tracé_290" class="st10" d="M51,35.6c0.4-0.4,1.2-0.4,1-1.3c-0.4-0.5-1.3-1.5-1.8-0.6l-0.4-0.1l-0.2,0.9
				c0.6,0.2,0,0.9,0.7,1C50.4,35.4,50.8,35.2,51,35.6z"/>
			<path id="Tracé_291" class="st10" d="M52.6,32.9l0.7-0.1L52.6,32.9z"/>
			<path id="Tracé_292" class="st10" d="M54.8,32.5l-1,0.2l0.1,0.1h-0.3l0.1,0.2L54.8,32.5z"/>
			<path id="Tracé_293" class="st10" d="M56.5,32.8c-0.1,0-0.1,0.1-0.2,0.2c0.2,0,0.3-0.1,0.5,0l-0.4,0.5c0.4-0.1,0.9,0,1.2,0.3
				l0,0.1c1,0.1,1.9-0.2,2.6-0.9c0.3-0.6,0.4-1.6,1.2-1.8c0-0.5-0.6,0-0.4-0.5s-0.2-1.2-0.2-1.9c-0.9,0-0.9-0.5-1.4-1
				c-0.3-0.1-0.8,0.2-0.9-0.4L58.5,28c-0.5,0-0.5-0.6-0.8-0.8l-0.2,0.7c-0.5-0.3-1.3,0.2-1.7,0.3c-0.1,0.9-1.2,0.5-1.7,0.3
				c0,0.5,1.3,0.6,1.1,1.5c-0.1,0-0.3-0.2-0.4,0c-0.2,0.8,1.1,0.4,0.7,1.1l-1.5-0.2C55,31.4,56.1,31.4,56.5,32.8z"/>
			<path id="Tracé_294" class="st10" d="M55.2,32.4l0.5,0L55.2,32.4z"/>
			<path id="Tracé_295" class="st10" d="M56.8,25.7L56.8,25.7l0.1,0.4L56.8,25.7z"/>
		</g>
		<path id="Tracé_296" class="st4" d="M219.4,49.6c-0.5-2.1-1.8-3.1-1.8-5.2c0-1.7,4.1-3.8,4.1-4.6c-0.3-1.3-1.3-2.3-2.6-2.6
			c-1.6,0-4.7,2.7-4.7,4.9c0.1,1,0.4,1.9,0.8,2.8c-1.5,1.6-2.5,2.6-2.5,2.7l0,0c-1.2,1.1-2.4,2.2-3.7,3.2c-0.1,0-0.2,0.1-0.3,0.1
			c-0.4,0.1-0.8,0.4-1,0.8c-1.3,1-2.8,1.7-4.5,1.9c-1.4,0-2.3-1.4-2.3-3.3c0-0.7,0.1-1.5,0.2-2.2c3.4-2.2,6.9-5.4,6.9-6.9
			c0-0.7-0.9-2.9-2.9-2.9c-2.9,0-8.3,5.4-8.8,10.8c-2.4,2-6.6,5.3-8.5,5.3c-0.4,0-1.2-0.3-1.2-1.8c0.2-2.1,0.6-4.3,1.4-6.3
			c6-5.7,15.8-16.8,15.8-20.6c0.1-1.9-1.4-3.6-3.4-3.6c-4.4,0-14.4,15.2-16.9,26.1c-2.3,2-6.7,6.7-8.5,6.7c-0.4,0-1.2-0.3-1.2-1.8
			c0.2-2.3,0.7-4.5,1.6-6.6c6.3-5.7,15.1-15.5,15.1-19.2c0.1-1.9-1.4-3.6-3.4-3.6c-4.7,0-13.8,12.7-16.3,23.8l0,0
			c0,0-6.1,6.1-9.5,6.1c-1.4,0-2.3-1.4-2.3-3.3c0-0.7,0.1-1.5,0.2-2.2c3.4-2.2,6.9-5.4,6.9-6.9c0-0.7-0.9-2.9-2.9-2.9
			c-2.9,0-8.4,5.5-8.8,10.9c-2.2,1.9-5.9,4.8-8.8,4.8c-0.3,0-0.6-0.2-0.6-0.6c0,0,0,0,0-0.1c0-3.3,5-7.7,5-8.4c0-0.8-1.1-3-2.3-3
			c-2.3,0-8.1,3.8-10.6,5.6c1.4-2.3,2.5-3.9,2.5-4.9c-0.2-1.7-1.5-3.1-3.1-3.4c-0.4,0-0.6,0.2-0.6,0.8c0,1.9-2.4,5.6-4.4,8.6
			c-2.2,1.9-6.7,5.4-9.5,5.4c-0.3,0-0.7-0.1-0.7-0.8c0-2.4,7.2-10.7,7.2-11.8c-0.2-1.6-1.5-2.8-3-2.9c-0.6,0-1,0.4-1.2,0.9
			c-0.8,2-3.5,5.7-5.2,8.8c-2.2,2-8.1,6.8-12.1,6.8c-1.2,0-2-0.9-2-2.4c0-5.3,6-11.2,9-11.2c0.4,0,0.5,0.3,0.5,0.4
			c-0.3,1.1-0.9,2.1-1.8,2.9c-0.1,0.1-0.2,0.2-0.2,0.4c0,0.1,0.1,0.1,0.1,0.1c0.4,0,0.8-0.1,1.1-0.2c1-0.9,1.6-2,1.8-3.3
			c-0.2-1.7-1.6-2.9-3.3-2.8c-3.5,0-8.9,4.8-10.7,10c-2.6,2.2-7.7,6.1-11.3,6.1c-1.2,0-2-0.9-2-2.4c0-5.3,6-11.2,9-11.2
			c0.4,0,0.5,0.3,0.5,0.4c-0.3,1.1-0.9,2.1-1.8,2.9c-0.1,0.1-0.2,0.2-0.2,0.4c0,0.1,0.1,0.1,0.1,0.1c0.4,0,0.8-0.1,1.1-0.2
			c1-0.9,1.6-2,1.8-3.3c-0.2-1.7-1.6-2.9-3.3-2.8c-2.7,0-6.5,2.8-8.9,6.4c-1.3,0.4-2.8,0.5-4.1,0.3c0.5-1.1,0.7-2.4,0.7-3.6
			c0.1-2.6-2.3-4.5-5.1-4.5c-3.3,0-10.2,3.2-11,11.6c-6,5.4-13.8,10.2-23,10.2c-5.4,0-8.5-2-8.5-7.2c0-15.2,25.2-34.8,37.4-34.8
			c2.3,0,3.6,0.8,3.6,2.1c0,4.8-8.5,10.4-12.8,11.1c-0.3,0-0.5,0.3-0.5,0.6c0,0.4,2.1,1.8,3.6,1.8c1.8,0,11-7.7,11-12.5
			c-0.1-3.6-3-6.5-6.6-6.5c-14.4,0-40.1,19.8-40.1,36c0,6.3,6.9,11.4,13.2,11.4c8,0,17.4-6.4,22.7-11.1c0,0.2,0,0.3,0,0.5
			c0,2.9,4,4.4,5.5,4.4c0.9,0,4.3-0.6,9.5-8.3c0,0,0.2,0,0.6,0l0,0c1.1,0.1,2.1,0.1,3.2-0.1c-1,1.7-1.5,3.5-1.6,5.5
			c0,2.9,2.5,4.5,5,4.5c3.6,0,9-4.1,11.9-6.6c-0.2,0.7-0.3,1.4-0.3,2.2c0,2.9,2.5,4.5,5,4.5c3.8,0,9.5-4.5,12.3-6.9
			c-0.4,0.8-0.6,1.6-0.7,2.4c0,2,2.4,3.4,3.4,3.5c2.6,0,6.6-3,9.2-5.1c-0.7,0.9-1.2,1.9-1.6,2.9c0,1.3,1.4,3.1,2.1,3.1
			s1.3-3.2,5.2-6.7c3.5-3.1,7.7-5.3,8.3-5.3c0.1,0,0.1,0.1,0.1,0.1c0,0.4-2.6,3.9-2.6,6.7c0.2,2.1,1.8,3.9,3.9,4.2
			c2.2,0,6.4-3.4,8.7-5.6c-0.1,2.7,2,5,4.7,5.1c0.2,0,0.4,0,0.6,0c4.3,0,9.8-5.5,10.8-6.6c-0.3,1.4-0.4,2.8-0.4,4.2
			c-0.2,2,1.3,3.7,3.3,3.8c0.1,0,0.2,0,0.3,0c2.4,0,7.1-4.7,9.5-7c-0.1,0.8-0.2,1.6-0.3,2.4c-0.1,2,1.4,3.8,3.4,3.9c0,0,0,0,0,0
			c0,0,0.1,0,0.1,0c2.4,0,7.2-3.8,9.8-6.1c-0.1,2.7,1.9,5,4.6,5.2c0.2,0,0.4,0,0.7,0c2.2-0.2,4.3-1.1,6.1-2.4c1,2.3,3.2,3.9,5.7,4
			c3,0,6.1-2.5,6.1-5.3c0-0.3,0-0.6-0.1-0.9c0.7,0.3,1.3,0.7,1.9,1.1c0.4,0,0.7-0.3,0.8-0.7C222.2,50.6,221.4,49.9,219.4,49.6z
			 M206.1,40.9c0.3,0,0.3,0.3,0.3,0.4c0,1.1-2.6,3.9-5.2,5.8C203.1,42.8,205.2,40.9,206.1,40.9L206.1,40.9z M201.8,25.2
			c0.3,0,0.5,0.2,0.6,0.5c0,3.6-9,14.2-13.8,19C190.6,38.6,198.6,25.2,201.8,25.2L201.8,25.2z M188.4,26.8c0.3,0,0.5,0.2,0.6,0.5
			c0,3.6-8.2,12.6-13,17.4C178,38.6,185.2,26.8,188.4,26.8L188.4,26.8z M164.3,40.9c0.3,0,0.3,0.3,0.3,0.4c0,1.1-2.6,3.9-5.2,5.8
			C161.2,42.7,163.3,40.9,164.3,40.9L164.3,40.9z M72.3,54.2c-0.9-0.1-1.8-1.2-2.1-2.6c-0.2-1.3,0.3-6.1,2.8-8.8l0,0
			c0.6,0.9,2.5,2.7,7.8,3.7C79.2,50.7,75.2,54.4,72.3,54.2L72.3,54.2z M81.3,45.3c-1.7-0.6-3.4-1.4-4.9-2.5
			c-0.5-0.4-0.9-0.9-1.1-1.5c-0.1-1.3,0.8-2.4,2.1-2.5c0.2,0,0.4,0,0.5,0c2.1,0,3,1.2,3.4,3.2C81.5,43.1,81.5,44.2,81.3,45.3
			L81.3,45.3z M212.1,53.3c-2,0-3.2-0.6-3.2-1c0-0.2,0.1-0.3,0.5-0.5c2-0.9,4.1-1.4,6.2-1.7C215.2,51.8,214.2,53.3,212.1,53.3
			L212.1,53.3z M215.8,49.4c-1.7,0.2-3.5,0.5-5.2,1c1.2-1.1,2-2,2.1-2l0,0c0,0,1.2-1.2,2.8-2.9c0.3,1.1,0.5,2.2,0.4,3.3
			C215.9,49,215.8,49.2,215.8,49.4L215.8,49.4z"/>
		<path id="Tracé_297" class="st11" d="M138,19.6c0.3-0.1,0.2-0.4,0.3-0.7c-0.6,0.2-1,0.5-1.6,0.5l0.7-1.8
			c-1.3,0.8-2.4,0.4-3.8,0.1l0-0.4c-3.1,0-5.7,2.5-7.1,4.6c-0.4,2.1,0,5-2.3,6.1c0.4,1.4,1.8-0.4,1.5,1.1s1.3,3.6,1.9,5.4
			c2.6-0.5,3.1,0.9,5,1.9c1,0.1,2.3-1.2,2.9,0.4l-0.1-1.5c1.5-0.4,2,1.3,2.9,1.9l0.2-2.3c1.8,0.6,3.6-1.6,4.8-2
			c-0.4-2.6,3.2-2.2,4.9-2.1c-0.5-1.5-4.3-1-4.2-3.7c0.4,0,1,0.3,1.3-0.2c0.1-2.4-3.5-0.4-2.9-2.8l4.6-0.4
			C143.2,22.7,139.9,23.5,138,19.6z"/>
	</g>
	<g id="Groupe_471" transform="translate(-11.591 0)">
		<g id="Groupe_470">
			<path id="Tracé_5499" class="st13" d="M7,62.2c0.2,1.4,0.5,2.9,0.9,4.3c0.1,0.1,0,0.3-0.1,0.3c-0.1,0-0.1,0-0.2,0
				c-0.5-0.1-1.1-0.7-1.6-2.2c-0.2-0.5-0.3-1.1-0.4-1.6c-0.4,0.1-0.9,0-1.3-0.1c-0.3-0.2-0.4-0.3,0-0.5c0.3-0.2,0.7-0.4,1-0.7
				C4.6,57.5,4.1,51,4.8,47.4c0.1-0.5,0.3-0.7,0.8-0.6c0.4,0.1,0.8,0.2,1.2,0.5c0.6,0.3,1,0.9,1.2,1.5c1,2.5,2.1,5,3.4,7.3
				c0.6-0.3,1.3-0.1,1.8,0.3c0.2,0.2,0.2,0.3-0.1,0.4c-0.4,0.2-0.7,0.4-1,0.6c0.7,1.2,1.5,2.4,2.4,3.6c0.2,0.2,0.1,0.4-0.2,0.4
				c-0.6,0.2-1.3-0.1-2.3-1.3c-0.3-0.4-0.8-1-1.2-1.7C9.5,59.8,8,61.4,7,62.2z M10,57.1c-1.5-2.4-2.7-5-3.7-7.7
				c-0.1,3.6,0,7.3,0.5,10.9C8,59.2,9.1,57.9,10,57.1z"/>
			<path id="Tracé_5500" class="st13" d="M15.8,47.5c0.1-0.4,0.3-0.5,0.5-0.5c0.8,0.1,2,0.7,1.9,1.8c-0.2,1.8,0,3.6,0.4,5.3
				c0.5,1.4,1.4,2,2.1,1.5c0.9-0.6,0.8-2.7,0.3-4.8c0-0.2,0.1-0.4,0.3-0.3c0.5,0.3,0.8,0.8,0.9,1.4c0.5,1.5,0,3.2-1.2,4.3
				c-1.6,1.1-3.3,0.2-4-1.8c-0.5-1.9-0.7-3.9-0.5-5.9c-0.3,1.1-1,2-1.8,2.8c0.4,2.1,0.7,6.7,1.8,8.9c0.1,0.2,0.1,0.4-0.3,0.4
				c-1.1-0.1-1.9-1.1-2.2-2.6c-0.2-1.3-0.4-4.4-0.5-6.1c-1.8,0.2-2-3.8-1.2-4.4c0.6-0.5,1.4,0.8,2,2.6
				C15.1,49.4,15.6,48.5,15.8,47.5z"/>
			<path id="Tracé_5501" class="st13" d="M17.7,44.3c-0.4-0.1-0.4-0.4-0.1-0.6c0.6-0.4,1.2-0.9,1.7-1.4c-0.2-1.3-0.3-2.6-0.4-3.9
				c0-0.4,0.2-0.6,0.5-0.4c0.9,0.6,1.4,1.6,1.5,2.6c0.5-0.5,1.2-0.6,1.8-0.4c0.3,0.1,0.4,0.4,0,0.6c-0.6,0.4-1.1,0.8-1.6,1.3
				c0.2,2.1,0.6,5.1,1.1,7.5c0.5,2.1,1.7,3.3,2.6,2.6c1-0.7,1.1-3.1,0.7-5.3c-0.1-0.4,0.1-0.6,0.5-0.3c0.4,0.4,0.6,0.9,0.7,1.4
				c0.2,0.8,0.2,3.8-1.6,5c-1.5,1-3.8,0.3-4.6-3c-0.4-1.4-0.8-3.9-1.2-6.3C19,44.2,18.3,44.4,17.7,44.3z"/>
			<path id="Tracé_5502" class="st13" d="M26.4,38.7c-0.1,0.5-0.7,0.9-1.5,0.5c-0.7-0.3-1.1-1-1-1.7c0.1-0.6,0.9-0.8,1.6-0.4
				C26.1,37.4,26.4,38.1,26.4,38.7z M25.6,47.9c-0.6-2.4-0.9-4.8-1-7.3c0-0.4,0.1-0.6,0.4-0.5c1,0.4,1.6,1.3,1.7,2.4
				c0.2,1.3,0.4,3.4,0.7,4.9c0.4,1.6,1,2.5,1.7,1.9c1-0.7,1.1-3,0.7-5c0-0.3,0.1-0.4,0.3-0.2c0.5,0.3,0.8,0.9,0.8,1.5
				c0.3,1.7-0.3,3.5-1.6,4.6C27.7,51.2,26.3,50.1,25.6,47.9L25.6,47.9z"/>
			<path id="Tracé_5503" class="st13" d="M33.7,35.9c1.1,0.6,1,2.4,1.3,3.9c0.1,0.3,0,0.5-0.4,0.5c-0.7,0.1-1.5-0.4-1.8-1.6
				c-0.3-1-0.2-2.4-0.7-2.4c-0.6-0.1-1.3,2.5-1,5.2c0.4,3.4,2.1,4.9,3.5,4.1c1.9-1.2,2.3-4.1,2.3-6.1c0-0.3,0.2-0.4,0.4-0.2
				c0.3,0.5,0.5,1,0.5,1.6c0,2.1-1,4.1-2.7,5.3c-2.8,1.9-5.6-0.2-6.1-4.1c-0.4-3.8,1.1-6.5,2.6-6.5C32.4,35.4,33.1,35.5,33.7,35.9z"
				/>
			<path id="Tracé_5504" class="st13" d="M40.6,41.7c1.2-0.6,1.8-3.2,1.7-5.5c0-0.4,0.2-0.6,0.5-0.3c0.4,0.4,0.6,1,0.6,1.6
				c0.1,0.9-0.5,3.8-2.4,4.8c-1.6,0.9-3.1,0.3-4.1-2.6c-1.3-4.6-1.4-9.5-0.3-14.1c0.1-0.6,0.4-0.8,0.9-0.7c1.1,0.3,1.9,1.2,2,2.2
				c0.9,3.3,0,7.6-1.3,10.1C38.6,40.1,39.5,42.2,40.6,41.7z M38.5,27.2c-0.4,0-0.6,3.6-0.5,7.5c0,0.5,0,1,0.1,1.4
				C39.7,31.7,38.9,27.2,38.5,27.2L38.5,27.2z"/>
			<path id="Tracé_5505" class="st13" d="M46.9,38.3c2-0.9,2.8-3.7,3.1-5.8c0-0.3,0.2-0.3,0.4-0.2c0.3,0.5,0.5,1.1,0.3,1.7
				c-0.3,2.1-1.6,3.9-3.4,5c-3,1.6-5.6-0.9-5.6-4.8s1.8-6.4,3.4-6.3c0.7,0,1.4,0.2,2,0.5c0.7,0.4,1.3,1.9,0.9,3.7
				c-0.5,2-1.7,3.5-4.1,2.9C44.2,37.7,45.6,38.9,46.9,38.3z M46.1,31.8c0.3-1.4,0.2-2.9-0.3-3c-0.7-0.2-2,2.3-2,5.1
				c0,0.2,0,0.4,0,0.5C45.4,34.6,45.8,33.1,46.1,31.8L46.1,31.8z"/>
			<path id="Tracé_5506" class="st13" d="M51.3,26.7c-0.3-0.7-0.2-1.6,0.1-2.3c0.3-0.7,0.9-1.1,1.2-0.9c0.4,0.1,0.3,0.5,0.3,1.2
				c0,0.2,0,0.4-0.1,0.6c0.8,2.4,2.1,4.1,2.7,5.8c0.5,1,0.5,2.1,0,3.1c1.2-1.3,1.9-3,1.9-4.8c0-0.3,0.3-0.4,0.5-0.2
				c0.3,0.5,0.5,1.2,0.3,1.8c-0.2,2-1.4,3.7-3.2,4.6c-1.4,0.8-3.2,0.7-4.5-0.3c-1.1-0.9-1.7-2.5-1.1-3.6c0.2-0.4,0.4-0.4,0.6,0
				c0.1,0.2,0.2,0.4,0.3,0.6C50.7,30.3,51.1,28.5,51.3,26.7z M51.1,33.4c1,1.3,2.1,2,2.8,1.4c1-0.8-1-4.6-1.9-6.5
				C51.7,30,51.5,31.7,51.1,33.4z"/>
			<path id="Tracé_5507" class="st13" d="M67.1,30.3c2.2-0.5,3.5-3.1,4.1-5.2c0.1-0.2,0.3-0.3,0.4-0.1c0.2,0.5,0.3,1.2,0,1.7
				c-0.7,2-2.2,3.6-4.2,4.3c-3.3,1-5.3-1.9-4.6-5.7s3-5.9,4.5-5.6c0.7,0.2,1.3,0.5,1.9,0.9c0.6,0.5,0.9,2.1,0.2,3.8
				c-0.8,1.9-2.3,3.1-4.6,2.1C64.6,29.2,65.7,30.6,67.1,30.3z M68.8,16.5c-0.8,0.7-2,1.9-2.6,2.3c-0.4,0.3-0.9,0.4-1.3,0.4
				c-0.2,0-0.3-0.2-0.1-0.4c0.6-0.8,1.3-1.5,2-2.2c0.5-0.4,1.2-0.6,1.9-0.5C68.9,16.2,69,16.3,68.8,16.5L68.8,16.5z M67.5,23.8
				c0.5-1.3,0.7-2.8,0.2-3c-0.7-0.3-2.4,1.9-2.9,4.7c0,0.2-0.1,0.4-0.1,0.5C66.3,26.4,67,24.9,67.5,23.8L67.5,23.8z"/>
			<path id="Tracé_5508" class="st13" d="M73.8,29.2c-2.4,0.5-3.7-2.6-2.2-6.3c1.4-3.5,3.2-5.2,4.6-5.5c0.9-0.2,1.8,0.3,2,1.2
				c0,0.1,0,0.2,0,0.3c0.2-0.7,0.4-1.3,0.8-1.9c0.2-0.4,0.4-0.3,0.7-0.1c0.5,0.6,0.7,1.7,0.2,3.5c-1.5,4.8-2.8,9.8-3.8,14.8
				c-0.1,0.3-0.2,0.4-0.4,0.2c-0.5-0.3-0.9-0.8-0.8-2.4c0.1-1.7,0.4-3.3,0.8-4.9C75.1,28.7,74.5,29.1,73.8,29.2z M76.9,18.7
				c-0.9,0.1-2.4,2.2-3.3,4.9c-0.9,2.6-0.7,5,0.3,4.8c1.1-0.2,2.1-2.2,2.9-4.8C77.8,20.3,77.7,18.6,76.9,18.7L76.9,18.7z"/>
			<path id="Tracé_5509" class="st13" d="M82.6,27.3c-1.9,0.2-2.3-1.8-2-3.6c0.5-2.6,1.4-5,2.5-7.4c0.1-0.2,0.3-0.3,0.5-0.3
				c0.1,0,0.1,0.1,0.2,0.1c0.7,0.8,0.8,2,0.1,3.7c-0.6,1.4-1.1,2.8-1.4,4.2c-0.3,1.4-0.1,2.3,0.5,2.3c1-0.1,2.2-2.2,3.3-4.7
				c1.2-3,1.7-4.9,2.4-6.2c0.2-0.4,0.4-0.5,0.6-0.3c0.7,0.8,0.9,2,0.5,3c-0.4,1.3-1.4,3.5-1.8,5c-0.4,1.6-0.1,2.7,0.8,2.5
				c1.1-0.2,2.2-2.2,2.9-4.2c0.1-0.3,0.3-0.3,0.5-0.1c0.2,0.5,0.2,1.2,0,1.7c-0.5,1.7-1.8,3-3.5,3.5c-1.7,0.3-2.6-0.7-2.6-2.3
				C85.3,25.6,84.1,27.2,82.6,27.3z"/>
			<path id="Tracé_5510" class="st13" d="M91.3,22c0.6-2.4,1.5-4.7,2.6-6.9c0.2-0.3,0.4-0.5,0.6-0.2c0.6,0.8,0.8,2,0.3,2.9
				c-0.4,1.2-1.3,3.2-1.7,4.6c-0.4,1.6-0.3,2.7,0.6,2.5c1.2-0.2,2.4-2.1,3-4.1c0.1-0.3,0.3-0.3,0.4-0.1c0.3,0.5,0.3,1.1,0,1.7
				c-0.5,1.7-1.9,2.9-3.6,3.3C91.5,25.9,90.8,24.3,91.3,22z M96.4,14.3c-0.4,0.4-1,0.4-1.4,0c-0.1-0.1-0.1-0.1-0.2-0.2
				c-0.5-0.6-0.5-1.4-0.1-2c0.4-0.5,1.2-0.3,1.6,0.4C96.7,13,96.7,13.7,96.4,14.3L96.4,14.3z"/>
			<path id="Tracé_5511" class="st13" d="M97.5,13.6c-0.3-0.3-0.2-0.6,0.2-0.6c0.7-0.1,1.5-0.2,2.2-0.3c0.5-1.2,1.1-2.4,1.7-3.5
				c0.2-0.4,0.5-0.4,0.6-0.1c0.4,1,0.4,2.1-0.1,3.1c0.7-0.1,1.3,0.1,1.7,0.6c0.2,0.3,0.1,0.5-0.3,0.5c-0.7,0-1.4,0.1-2.1,0.3
				c-0.9,1.9-2.2,4.6-3,7c-0.7,2-0.3,3.7,0.9,3.6c1.2-0.1,2.6-2.1,3.4-4.2c0.1-0.3,0.4-0.4,0.6-0.1c0.1,0.5,0.1,1.1-0.1,1.6
				c-0.3,0.8-1.8,3.3-4,3.4c-1.8,0.1-3.4-1.7-2.4-4.9c0.4-1.4,1.4-3.7,2.3-6C98.6,14.2,98,14,97.5,13.6z"/>
			<path id="Tracé_5512" class="st13" d="M111.6,13.5c0.2-0.4,0.4-0.4,0.6-0.2c0.6,0.9,0.6,2,0.1,3c-0.5,1.2-1.8,3.3-2.4,4.8
				c-0.6,1.5-0.6,2.7,0.3,2.6c1.1-0.1,2.5-2,3.4-3.9c0.1-0.2,0.3-0.3,0.4,0c0.1,0.6,0.1,1.2-0.2,1.7c-0.6,1.5-2.3,3.1-3.7,3
				c-1.1,0.1-2.2-0.7-2.3-1.9c0-0.1,0-0.2,0-0.2c-0.7,1.2-1.9,2-3.3,2.2c-2.5,0.1-3.2-3.3-1.1-6.6c2-3.3,4.1-4.6,5.4-4.6
				c0.9-0.1,1.7,0.6,1.7,1.5c0,0.1,0,0.2,0,0.3C111,14.6,111.3,14,111.6,13.5z M109.5,14.7c-0.9,0-2.7,1.8-4.1,4.2
				c-1.3,2.4-1.6,4.7-0.5,4.7c1.1,0,2.4-1.8,3.7-4.2C110.1,16.4,110.3,14.7,109.5,14.7L109.5,14.7z"/>
			<path id="Tracé_5513" class="st13" d="M116.9,24.2c-1.3,0-2.4-0.8-2.8-2c-0.3,0.6-0.6,1.2-0.8,1.8c-0.1,0.3-0.3,0.3-0.4,0.1
				c-0.4-0.5-0.6-1.3-0.1-3c2.4-5.1,5.1-9.9,8.2-14.6c0.2-0.3,0.5-0.3,0.7,0c0.4,0.8,0.4,2-0.8,4c-0.4,0.7-1.6,2.6-2.5,4
				c0.6-0.6,1.5-1,2.3-1.1c2.3,0.1,2.3,3.2,0.8,6.5C120.2,22.7,118.5,24.2,116.9,24.2z M118.4,15.6c-1.5,1.6-2.7,3.5-3.6,5.5
				c0,0.8,0.4,1.6,1.1,1.8c0.9,0.2,2.2-0.5,3.8-3.6c1.6-3,1.3-4.6,0.7-4.7C119.8,14.5,119.2,14.8,118.4,15.6L118.4,15.6z"/>
			<path id="Tracé_5514" class="st13" d="M124.8,23.8c1.3,0.2,3.3-1.6,4.5-3.6c0.2-0.3,0.5-0.3,0.6,0c0.1,0.6-0.1,1.2-0.4,1.6
				c-0.4,0.8-2.6,2.8-4.7,2.6c-1.8-0.2-2.7-1.6-1.9-4.4c1.5-4.5,4.2-8.6,7.8-11.8c0.4-0.4,0.8-0.4,1.2,0c0.7,0.8,0.9,2,0.4,3
				c-1.1,3.2-4.3,6.2-6.9,7.6C124,21.4,123.6,23.6,124.8,23.8z M131.3,10.7c-0.3-0.2-2.6,2.6-4.7,5.9c-0.3,0.4-0.5,0.8-0.7,1.2
				C129.8,15.1,131.6,10.9,131.3,10.7z"/>
			<path id="Tracé_5515" class="st13" d="M131.9,24.6c2.2,0.4,4.4-1.5,5.8-3.1c0.2-0.2,0.4-0.2,0.4,0.1c0,0.6-0.2,1.2-0.7,1.6
				c-1.4,1.6-3.5,2.4-5.6,2.2c-3.4-0.4-4.1-3.9-1.9-7.1s5.1-4.2,6.3-3.3c0.6,0.4,1,1,1.4,1.6c0.4,0.7,0,2.3-1.3,3.5
				c-1.5,1.4-3.4,1.9-5.1,0.1C130.1,22.6,130.5,24.3,131.9,24.6z M134.9,18.8c1-1,1.8-2.3,1.4-2.7c-0.5-0.5-2.9,0.8-4.5,3.1
				c-0.1,0.1-0.2,0.3-0.3,0.4C132.8,20.7,134,19.7,134.9,18.8z"/>
			<path id="Tracé_5516" class="st13" d="M142.2,17.5c0.2-0.8,0.7-1.4,1.4-1.8c0.7-0.4,1.3-0.4,1.5-0.1c0.2,0.3,0,0.6-0.4,1.1
				c-0.1,0.1-0.2,0.3-0.4,0.4c-0.7,2.4-0.6,4.5-1,6.3c-0.1,1.1-0.8,2-1.7,2.5c1.8-0.4,3.3-1.4,4.3-2.9c0.2-0.3,0.4-0.1,0.5,0.1
				c0,0.6-0.3,1.2-0.7,1.7c-1.3,1.5-3.3,2.3-5.3,2c-1.6-0.1-3-1.2-3.5-2.8c-0.4-1.3,0-3,1.1-3.6c0.4-0.2,0.6-0.1,0.5,0.4
				c0,0.2-0.1,0.4-0.1,0.6C139.6,20.2,140.9,18.9,142.2,17.5z M138.2,22.9c0.1,1.6,0.6,2.8,1.6,2.8c1.3-0.1,1.7-4.3,2.1-6.5
				C140.6,20.5,139.4,21.8,138.2,22.9L138.2,22.9z"/>
		</g>
	</g>
	<g id="Groupe_473" transform="translate(-3.552 29.438)">
		<g id="Groupe_472">
			<path id="Tracé_5517" class="st13" d="M9.9,52.2c1.9-1.2,2.2-4.1,2.1-6.2c0-0.3,0.2-0.4,0.4-0.2c0.4,0.4,0.6,1,0.6,1.6
				c0,2.1-0.9,4.1-2.6,5.4c-2.7,2-5.7,0-6.3-3.8s0.8-6.6,2.3-6.7c0.7-0.1,1.4,0,2.1,0.2c0.8,0.2,1.6,1.7,1.4,3.5
				c-0.1,2.1-1.2,3.7-3.6,3.6C7.2,51.9,8.7,52.9,9.9,52.2z M8.1,45.8c0-1.4-0.3-2.9-0.8-2.9c-0.7,0-1.6,2.6-1.1,5.4
				c0,0.2,0.1,0.4,0.1,0.5C7.8,48.7,8.1,47.1,8.1,45.8z"/>
			<path id="Tracé_5518" class="st13" d="M8.9,39.6c-0.4-0.2-0.4-0.4-0.1-0.6c0.6-0.4,1.2-0.9,1.8-1.4c-0.2-1.3-0.2-2.6-0.2-3.9
				c0-0.4,0.2-0.6,0.5-0.4c0.9,0.6,1.4,1.6,1.5,2.7c0.5-0.5,1.2-0.6,1.8-0.3c0.3,0.2,0.4,0.4,0,0.6c-0.6,0.4-1.2,0.8-1.7,1.3
				c0.2,2.1,0.4,5.1,0.9,7.5c0.4,2.1,1.6,3.3,2.6,2.7c1-0.7,1.2-3.1,0.8-5.3c-0.1-0.4,0.2-0.6,0.5-0.3c0.4,0.4,0.6,0.9,0.7,1.4
				c0.2,0.8,0.1,3.8-1.7,5c-1.5,1-3.8,0.2-4.5-3.1c-0.3-1.4-0.7-3.9-1-6.3C10.2,39.5,9.6,39.7,8.9,39.6z"/>
			<path id="Tracé_5519" class="st13" d="M29.7,38.8c0.9-0.6,1.2-2.9,1-5c0-0.3,0.1-0.4,0.4-0.2c0.4,0.4,0.7,1,0.7,1.5
				c0.2,1.6-0.5,3.7-1.8,4.4c-0.9,0.7-2.2,0.5-2.8-0.4C27.1,39.1,27,39,27,38.9c-0.1,1.4-0.7,2.6-1.7,3.5c-2.1,1.3-4.3-1.3-4.2-5.2
				c0.2-3.8,1.4-5.9,2.5-6.6c0.7-0.5,1.7-0.3,2.2,0.5c0,0.1,0.1,0.1,0.1,0.2c-0.2-3.1-0.4-7.3-0.3-9c0-0.5,0.2-0.6,0.5-0.3
				c0.8,0.6,1.3,1.6,1.4,3.9c0.1,2.6,0.3,7.8,0.6,10.9C28.4,38.4,28.9,39.4,29.7,38.8z M23.1,37.1c0,2.7,1,4.9,1.9,4.3
				c0.9-0.5,1.3-2.7,1.1-5.4c-0.2-3.4-0.8-5-1.5-4.6C23.9,31.9,23.2,34.4,23.1,37.1L23.1,37.1z"/>
			<path id="Tracé_5520" class="st13" d="M46.6,30.8c-1.9,0.9-3.4-0.5-3.8-2.7c-0.1-2.1,0.2-4.1,0.8-6.1c-0.6,1-1.4,1.8-2.5,2.3
				c0.3,3.8,0.1,8.7-2.4,10.2c-1.4,0.8-2.6,0.2-3.1-1.3c-0.3,1.5-0.9,3.3-2.3,3.9c-1.8,0.7-2.7-1.1-2.9-2.9
				c-0.3-2.6-0.1-5.2,0.4-7.7c0.1-0.3,0.3-0.5,0.5-0.3c1,0.5,1.3,1.6,1.2,3.4c-0.2,1.5-0.3,3-0.2,4.5c0.1,1.4,0.6,2.2,1.1,2
				c1-0.4,1.5-2.7,1.8-5.4c0.3-3.2,0.2-5.2,0.5-6.6c0.1-0.4,0.2-0.5,0.5-0.4c0.9,0.6,1.4,1.6,1.3,2.7c0,1.3-0.3,3.7-0.3,5.2
				c0.1,1.7,0.6,2.6,1.4,2.1c1.5-0.9,2-5,1.6-9c-2.3,0.2-1.6-4.2-0.6-4.7c0.8-0.4,1.3,1.2,1.5,3c0.9-0.6,1.6-1.5,2.1-2.4
				c0.2-0.4,0.4-0.6,0.7-0.4c0.7,0.3,1.8,1.1,1.5,2.3c-0.5,1.8-0.8,3.6-0.7,5.5c0.2,1.6,0.9,2.4,1.7,2.1c1-0.4,1.5-2.6,1.4-4.8
				c0-0.3,0.2-0.3,0.4-0.2c0.4,0.4,0.6,1,0.6,1.6C48.9,28.4,48.1,30,46.6,30.8z"/>
			<path id="Tracé_5521" class="st13" d="M54.7,16.7c0.1-0.4,0.3-0.5,0.6-0.4c0.8,0.7,1.2,1.8,0.9,2.8c-0.2,1.3-0.8,3.7-1,5.2
				c-0.2,1.6,0.2,2.7,1,2.4c1-0.4,1.9-2.6,2.2-4.7c0.1-0.3,0.2-0.4,0.4-0.2c0.3,0.5,0.4,1.1,0.3,1.7c-0.2,1.6-1.3,3.6-2.8,4
				c-1.1,0.4-2.3-0.1-2.7-1.2c0-0.1-0.1-0.2-0.1-0.2c-0.4,1.3-1.3,2.5-2.5,3.1c-2.4,0.8-3.9-2.3-2.9-6.1c1.1-3.7,2.7-5.5,4-5.9
				c0.9-0.3,1.8,0.1,2.1,1c0,0.1,0.1,0.2,0.1,0.3C54.5,17.8,54.6,17.2,54.7,16.7z M53.1,18.4c-0.8,0.2-2.1,2.5-2.8,5.2
				c-0.6,2.6-0.2,5,0.8,4.7c1.1-0.3,1.8-2.4,2.4-5.1C54.1,19.9,53.8,18.2,53.1,18.4L53.1,18.4z"/>
			<path id="Tracé_5522" class="st13" d="M62.7,25.6c-1.2,0.4-2.5-0.1-3.2-1.2c-0.1,0.6-0.2,1.3-0.3,1.9c0,0.3-0.2,0.4-0.4,0.2
				c-0.5-0.4-1-1.1-0.8-2.8c1-5.5,2.3-10.9,4.1-16.2c0.2-0.4,0.4-0.4,0.7-0.1c0.6,0.6,0.9,1.8,0.3,4c-0.2,0.8-0.9,2.9-1.3,4.5
				c0.4-0.8,1.1-1.3,2-1.6c2.2-0.5,3.1,2.5,2.4,6C65.5,23.3,64.3,25.2,62.7,25.6z M61.9,16.9c-1,2-1.7,4.1-2.1,6.2
				c0.2,0.7,0.8,1.5,1.5,1.5c1,0,2-1.1,2.7-4.5c0.8-3.3,0.1-4.8-0.6-4.7C62.9,15.5,62.4,15.9,61.9,16.9L61.9,16.9z"/>
			<path id="Tracé_5523" class="st13" d="M70.2,23.2c1.3-0.1,2.8-2.4,3.4-4.6c0.1-0.4,0.4-0.5,0.6-0.1c0.2,0.5,0.2,1.1,0,1.7
				c-0.2,0.9-1.7,3.4-3.9,3.8c-1.8,0.3-3-0.8-3-3.8c0.3-4.8,1.8-9.4,4.4-13.4c0.3-0.5,0.7-0.6,1.1-0.3c0.9,0.6,1.4,1.7,1.2,2.8
				c-0.2,3.4-2.6,7.1-4.6,9.1C68.9,21.1,69,23.3,70.2,23.2z M73.1,8.8c-0.4-0.1-1.8,3.2-3,6.9c-0.2,0.5-0.3,0.9-0.4,1.4
				C72.8,13.5,73.5,8.9,73.1,8.8L73.1,8.8z"/>
			<path id="Tracé_5524" class="st13" d="M77.3,22.1c2.2-0.2,3.9-2.6,4.8-4.5c0.1-0.2,0.3-0.3,0.5,0c0.2,0.6,0.1,1.2-0.2,1.7
				c-1,1.9-2.7,3.2-4.8,3.6c-3.4,0.5-5-2.6-3.8-6.3s3.8-5.5,5.2-4.9c0.7,0.3,1.3,0.7,1.8,1.2c0.6,0.6,0.6,2.2-0.3,3.7
				c-1.1,1.8-2.8,2.7-4.8,1.5C75,20.6,75.9,22.2,77.3,22.1z M78.7,15.6c0.7-1.2,1.1-2.7,0.7-2.9c-0.6-0.4-2.6,1.5-3.5,4.2
				c-0.1,0.2-0.1,0.3-0.1,0.5C77.1,18.1,78,16.8,78.7,15.6L78.7,15.6z"/>
			<path id="Tracé_5525" class="st13" d="M85.1,12.4c-0.1-0.8,0.2-1.6,0.8-2.2c0.5-0.6,1.1-0.8,1.4-0.5c0.3,0.2,0.2,0.5-0.1,1.2
				c-0.1,0.2-0.2,0.3-0.2,0.5c0.1,2.5,0.8,4.5,0.9,6.4c0.2,1.1-0.2,2.2-0.9,2.9c1.6-0.9,2.7-2.4,3.2-4.1c0.1-0.3,0.4-0.3,0.5-0.1
				c0.2,0.6,0.1,1.2-0.2,1.8c-0.8,1.8-2.5,3.1-4.4,3.4c-1.6,0.4-3.2-0.3-4.2-1.6c-0.8-1.1-0.9-2.9,0-3.8c0.3-0.3,0.5-0.2,0.6,0.2
				c0,0.2,0.1,0.4,0.1,0.6C83.5,15.7,84.3,14.1,85.1,12.4z M82.9,18.7c0.6,1.5,1.4,2.5,2.3,2.2c1.2-0.5,0.4-4.7,0-6.8
				C84.6,15.7,83.8,17.2,82.9,18.7z"/>
		</g>
	</g>
	<g id="Groupe_475" transform="translate(130.577 185.334)">
		<g id="Groupe_474" transform="translate(0)">
			<path id="Tracé_5526" class="st14" d="M8.5,63.7c-0.1-0.2,0-0.4,0.3-0.3c2.2,0,5.1-0.9,6.6-1c0.9-0.2,1.8,0.3,2.1,1.2
				c0.1,0.2,0,0.4-0.3,0.4c-1.8,0.2-3.6,0.5-5.4,1c-1,1.7-2.2,4.1-3.4,6.5c0.6-0.1,1.3-0.3,1.9-0.3c1.3-0.1,2,0.3,2.3,1.1
				c0.1,0.2,0.1,0.4-0.2,0.4c-1.7,0.2-3.3,0.5-4.9,1c-0.7,1.5-1.3,3.1-1.8,4.4C7,77.5,8.3,77.2,9.8,77c1.3-0.1,2,0.3,2.3,1.1
				c0.1,0.2,0.1,0.4-0.2,0.4c-2,0.3-4,0.7-5.9,1.4C5.5,80,5.2,80,4.8,79.6c-0.2-0.3-0.4-0.6-0.6-1c-0.3-0.5-0.3-1-0.1-1.5
				c1.5-4.2,3.3-8.3,5.5-12.1C9.1,64.8,8.6,64.3,8.5,63.7z"/>
			<path id="Tracé_5527" class="st14" d="M17.1,69.6c0-0.8,0.2-1.6,0.8-2.1c0.5-0.6,1.1-0.7,1.4-0.5c0.3,0.2,0.2,0.6-0.1,1.2
				c-0.1,0.2-0.2,0.3-0.2,0.5c0,2.5,0.7,4.5,0.8,6.4c0.2,1.1-0.2,2.2-1,2.9c1.6-0.9,2.7-2.3,3.3-4c0.1-0.3,0.4-0.2,0.5,0
				c0.2,0.6,0.1,1.3-0.2,1.8c-0.8,1.8-2.5,3.1-4.5,3.4c-1.6,0.3-3.2-0.3-4.1-1.7c-0.7-1.1-0.8-2.9,0-3.8c0.3-0.3,0.5-0.2,0.6,0.2
				c0,0.2,0.1,0.4,0.1,0.6C15.4,72.9,16.3,71.2,17.1,69.6z M14.8,75.9c0.5,1.5,1.4,2.5,2.3,2.2c1.2-0.5,0.4-4.7,0.1-6.8
				C16.5,72.8,15.7,74.4,14.8,75.9L14.8,75.9z"/>
			<path id="Tracé_5528" class="st14" d="M32.5,72.8c0.1-0.4,0.4-0.3,0.5-0.1c0.2,0.6,0.1,1.2-0.1,1.8c-0.8,1.8-2.4,3.1-4.4,3.5
				c-1.3,0.4-2.7,0.2-3.9-0.5c-0.6-0.4-1-1-1.1-1.7c-1,2.5-2,5.3-2.9,8.5c-0.1,0.3-0.3,0.3-0.4,0.1c-0.5-0.5-0.7-1.2-0.4-2.9
				c1.3-4.9,3.1-9.6,5.3-14.2c0.2-0.4,0.5-0.4,0.6-0.1c0.2,0.4,0.3,0.8,0.3,1.2c1-1.2,2.5-2.1,3.8-1.1c1.5,1.2,1.2,3.6,0.5,6
				c-0.4,1.5-1.2,2.9-2.3,4C30.2,76.8,32,75.1,32.5,72.8z M25.1,76.9c0.9,0.6,2.4-1.6,3.4-4.3c0.8-2.3,0.8-4.5,0.1-4.8
				c-0.7-0.2-2.2,1.3-3.2,3.5c-0.2,0.5-0.5,1-0.7,1.6C24.2,74.7,24.3,76.4,25.1,76.9L25.1,76.9z"/>
			<path id="Tracé_5529" class="st14" d="M40.9,64.9c0.2-0.4,0.4-0.5,0.6-0.3c0.7,0.8,0.9,1.9,0.5,2.9c-0.4,1.3-1.3,3.5-1.7,5
				c-0.4,1.6-0.2,2.7,0.7,2.5c1.1-0.2,2.2-2.3,2.8-4.3c0.1-0.3,0.3-0.3,0.4-0.1c0.2,0.5,0.2,1.1,0.1,1.7c-0.4,1.6-1.8,3.3-3.3,3.5
				c-1.1,0.3-2.2-0.4-2.5-1.5c0-0.1,0-0.2,0-0.2c-0.5,1.3-1.6,2.2-2.9,2.6c-2.5,0.4-3.6-2.8-1.9-6.4c1.6-3.5,3.5-5.1,4.8-5.3
				c0.9-0.2,1.7,0.4,1.9,1.3c0,0.1,0,0.2,0,0.3C40.5,66,40.7,65.4,40.9,64.9z M39,66.4c-0.9,0.1-2.5,2.1-3.5,4.7
				c-1,2.5-0.9,4.9,0.1,4.8c1.1-0.2,2.2-2.1,3.1-4.7C39.8,68,39.8,66.3,39,66.4z"/>
			<path id="Tracé_5530" class="st14" d="M50.4,64.3c0.8,1,0.1,2.6-0.1,4.1c0,0.3-0.1,0.4-0.5,0.3c-0.7-0.2-1.2-0.9-1.1-2.1
				c0.1-1,0.6-2.3,0.2-2.5c-0.5-0.3-2.1,1.9-2.8,4.5c-0.8,3.3,0.3,5.3,1.8,5c2.2-0.5,3.6-3,4.3-4.9c0.1-0.2,0.3-0.3,0.5-0.1
				c0.2,0.6,0.1,1.2-0.1,1.7c-0.8,1.9-2.4,3.4-4.4,4c-3.3,0.8-5.2-2.2-4.2-6c0.9-3.7,3.3-5.7,4.8-5.2C49.4,63.4,50,63.8,50.4,64.3z"
				/>
			<path id="Tracé_5531" class="st14" d="M56.6,71.5c2.2-0.5,3.5-3.1,4.2-5.1c0.1-0.2,0.3-0.3,0.4-0.1c0.2,0.6,0.2,1.2,0,1.7
				c-0.7,2-2.3,3.5-4.3,4.2c-3.3,1-5.3-2-4.5-5.8s3-5.9,4.6-5.5c0.7,0.2,1.3,0.5,1.9,0.9c0.6,0.5,0.9,2.1,0.1,3.8
				c-0.8,1.9-2.4,3.1-4.6,2.1C54.1,70.3,55.2,71.8,56.6,71.5z M57.1,64.9c0.5-1.3,0.7-2.8,0.3-3c-0.7-0.3-2.4,1.9-2.9,4.6
				c0,0.2-0.1,0.4-0.1,0.5C55.9,67.5,56.6,66.1,57.1,64.9L57.1,64.9z"/>
			<path id="Tracé_5532" class="st14" d="M75.1,65.5c1-0.4,1.7-2.6,2-4.7c0-0.3,0.2-0.3,0.4-0.2c0.3,0.5,0.5,1.1,0.4,1.6
				c-0.2,1.6-1.2,3.6-2.6,4c-1,0.5-2.2,0-2.7-1c0-0.1-0.1-0.2-0.1-0.3c-0.3,1.3-1.2,2.5-2.4,3.1C67.7,69,66,66,67,62.2
				c0.9-3.7,2.5-5.6,3.7-6c0.8-0.3,1.8,0.1,2.1,0.9c0,0.1,0.1,0.2,0.1,0.2c0.4-3.1,1-7.2,1.4-8.9c0.1-0.4,0.4-0.5,0.6-0.2
				c0.7,0.7,1,1.8,0.7,4.1c-0.4,2.6-1.2,7.7-1.5,10.8C73.9,64.8,74.3,65.9,75.1,65.5z M69,62.6c-0.5,2.7,0,5,1,4.6
				c1-0.4,1.8-2.3,2.1-5.1c0.4-3.3,0.2-5.1-0.6-4.8C70.8,57.6,69.5,59.8,69,62.6L69,62.6z"/>
			<path id="Tracé_5533" class="st14" d="M81.8,62.6c2.1-0.8,3-3.6,3.3-5.7c0-0.3,0.2-0.3,0.4-0.2c0.3,0.5,0.4,1.1,0.3,1.7
				c-0.4,2.1-1.7,3.9-3.6,4.8c-3.1,1.5-5.6-1.1-5.4-5s2.1-6.3,3.6-6.1c0.7,0.1,1.4,0.3,2,0.6c0.7,0.4,1.2,2,0.7,3.7
				c-0.5,2-1.9,3.4-4.2,2.8C79.2,61.8,80.5,63.1,81.8,62.6z M81.3,56.1c0.3-1.4,0.3-2.9-0.2-3c-0.7-0.2-2.1,2.2-2.2,5.1
				c0,0.2,0,0.4,0,0.5C80.5,58.8,81,57.3,81.3,56.1L81.3,56.1z"/>
			<path id="Tracé_5534" class="st14" d="M105.2,51.2c-1.9,0.9-3.5-0.2-4-2.4c-0.3-2-0.1-4.1,0.4-6.1c-0.5,1-1.3,1.9-2.3,2.5
				c0.5,4.8-0.3,9.6-3.2,11.2c-3,1.7-5.6-0.6-5.8-4.4c-0.2-3.7,1.4-6.4,3-6.4c0.7,0,1.4,0.2,2,0.6c1,0.7,0.8,2.5,1.1,4
				c0.1,0.4,0.1,0.5-0.4,0.5c-0.7,0-1.5-0.5-1.7-1.7c-0.2-1,0-2.5-0.6-2.5c-0.6-0.1-1.5,2.3-1.3,5.1c0.2,3.3,1.8,5,3.2,4.2
				c2.6-1.3,3.2-6.5,2.7-10.2c-2.2,0.3-1.7-4.1-0.8-4.7c0.7-0.4,1.3,1.1,1.6,3c0.8-0.7,1.5-1.6,1.9-2.6c0.1-0.3,0.4-0.6,0.7-0.4
				c0.7,0.2,1.9,1,1.7,2.2c-0.4,1.8-0.6,3.7-0.3,5.6c0.3,1.5,1.1,2.3,1.9,1.9c1-0.5,1.3-2.7,1-4.8c0-0.3,0.1-0.4,0.3-0.2
				c0.4,0.4,0.7,1,0.8,1.6C107.3,48.6,106.6,50.3,105.2,51.2z"/>
			<path id="Tracé_5535" class="st14" d="M111.2,46.4c1.9-1.2,2.3-4,2.3-6.2c0-0.3,0.2-0.4,0.4-0.2c0.4,0.4,0.6,1,0.6,1.6
				c0,2.1-1.1,4.1-2.8,5.4c-2.8,2-5.7-0.2-6.1-4s1-6.5,2.6-6.6c0.7-0.1,1.4,0,2.1,0.3c0.8,0.3,1.5,1.7,1.3,3.5
				c-0.2,2.1-1.3,3.7-3.7,3.4C108.5,46.1,110,47.1,111.2,46.4z M108.7,32.7c-0.5,0.9-1.3,2.4-1.8,2.9c-0.3,0.4-0.7,0.7-1.1,0.8
				c-0.2,0-0.3-0.1-0.2-0.4c0.3-0.9,0.8-1.8,1.2-2.7c0.4-0.6,1-0.9,1.6-1C108.7,32.3,108.8,32.5,108.7,32.7z M109.6,40
				c0.1-1.4-0.2-2.9-0.7-2.9c-0.7-0.1-1.7,2.5-1.3,5.3c0,0.2,0,0.4,0.1,0.5C109.2,42.9,109.5,41.3,109.6,40L109.6,40z"/>
			<path id="Tracé_5536" class="st14" d="M117.4,29.4c0-0.4,0.1-0.6,0.4-0.5c1,0.4,1.7,1.3,1.8,2.4c0.3,1.3,0.4,3.7,0.8,5.3
				c0.4,1.6,1.1,2.5,1.8,1.9c0.8-0.7,0.9-3.1,0.5-5.1c0-0.3,0.1-0.4,0.3-0.3c0.4,0.4,0.7,0.9,0.8,1.5c0.4,1.6-0.1,3.8-1.3,4.6
				c-0.9,0.8-2.2,0.7-2.9-0.2c-0.1-0.1-0.1-0.1-0.2-0.2c0.1,1.4-0.4,2.7-1.4,3.7c-2,1.5-4.5-0.9-4.7-4.8c-0.2-3.8,0.7-6.1,1.8-6.9
				c0.7-0.6,1.7-0.5,2.3,0.3c0.1,0.1,0.1,0.2,0.2,0.3C117.5,30.7,117.5,30,117.4,29.4z M116.4,31.6c-0.7,0.5-1.2,3-0.9,5.8
				c0.3,2.7,1.5,4.8,2.3,4.2c0.9-0.7,0.9-2.9,0.6-5.6C117.9,32.7,117,31.2,116.4,31.6z"/>
			<path id="Tracé_5537" class="st14" d="M119.1,26.9c-0.5-0.1-0.5-0.4-0.1-0.6c0.6-0.5,1.1-1,1.6-1.6c-0.3-1.3-0.5-2.6-0.7-3.8
				c-0.1-0.4,0.2-0.6,0.5-0.4c0.9,0.5,1.6,1.5,1.8,2.5c0.4-0.5,1.1-0.7,1.8-0.5c0.4,0.1,0.4,0.3,0.1,0.6c-0.6,0.4-1.1,0.9-1.5,1.5
				c0.4,2,1,5,1.7,7.4c0.6,2.1,2,3.1,2.8,2.4c0.9-0.8,0.8-3.2,0.2-5.4c-0.1-0.3,0.1-0.6,0.4-0.4c0.4,0.3,0.7,0.8,0.8,1.3
				c0.3,0.8,0.5,3.8-1.2,5.1c-1.4,1.1-3.7,0.6-4.8-2.6c-0.5-1.4-1.1-3.8-1.7-6.2C120.4,26.7,119.8,27,119.1,26.9z"/>
			<path id="Tracé_5538" class="st14" d="M127,20.3c0,0.5-0.6,1-1.4,0.8c-0.7-0.2-1.2-0.8-1.3-1.5c0-0.6,0.8-0.9,1.5-0.7
				C126.5,19.1,126.9,19.6,127,20.3z M127.6,29.5c-1-2.3-1.7-4.6-2.1-7.1c-0.1-0.4,0-0.6,0.3-0.6c0.6,0,1.6,0.7,2,2.1
				c0.4,1.2,0.9,3.3,1.4,4.7c0.6,1.6,1.4,2.3,2,1.6c0.8-0.9,0.6-3.2-0.1-5.1c-0.1-0.3,0.1-0.4,0.3-0.3c0.5,0.3,0.9,0.7,1,1.3
				c0.6,1.6,0.2,3.5-0.9,4.8C130.2,32.5,128.6,31.6,127.6,29.5L127.6,29.5z"/>
			<path id="Tracé_5539" class="st14" d="M145.9,14.3c-1.3,1.8-3,1.2-4.4-0.8c-1.6-2.3-2.4-5.9-2.8-5.6c-0.3,0.2-0.6,1.8-0.2,4.3
				c0.6,2.6,1.7,5,3.1,7.2c0.1,0.2,0.1,0.4-0.2,0.5c-0.7,0.1-1.5-0.3-2.3-1.5c-0.7-1.1-1.4-2.3-1.9-3.6c0,0.9-0.4,1.7-1,2.4
				c1.5,1.8,2.7,4.8,2,6.8c-0.4,1.3-1.6,2.1-2.9,2c-2,0-3.6-1.8-4.6-4c-0.8-1.9-1.1-4.1-0.2-5.5c0.3-0.6,1.1-1,1.8-0.9
				c1.1,0,1.7-0.5,3.1,0.8c0.1,0.1,0.3,0.2,0.4,0.3c1-1.4,0.5-3.9-0.4-6.4c-0.1-0.3,0-0.5,0.3-0.5c0.9,0.2,1.6,0.7,2.1,1.4
				c-0.3-1.7-0.4-4,0.3-4.7c0.9-0.6,2.1-0.4,2.7,0.5c0.1,0.1,0.1,0.2,0.2,0.4c0.6,1.2,1.4,3.4,2.1,4.7c0.8,1.5,1.8,2.1,2.4,1.3
				c0.6-0.9,0-2.9-0.9-4.9c-0.1-0.1,0-0.3,0.1-0.3c0.1,0,0.1-0.1,0.2,0c0.3,0.1,0.8,0.4,1.2,1.2C146.8,11,146.8,12.8,145.9,14.3z
				 M131.7,18.3c0.1,1.1,0.3,2.2,0.8,3.2c0.9,2.2,2.7,4,3.6,3.7s1.2-2.1,0-4.6c-0.3-0.8-0.8-1.5-1.2-2.2
				C133.8,18.9,132.6,18.8,131.7,18.3z M132.9,16.6c-0.8-0.4-1,0.1-0.4,0.7c0.5,0.5,1.2,0.7,1.8,0.6C134,17.3,133.5,16.9,132.9,16.6
				z"/>
		</g>
	</g>
	<g id="Groupe_477" transform="translate(127.733 190.013)">
		<g id="Groupe_476" transform="translate(0)">
			<path id="Tracé_5540" class="st14" d="M17.7,92.1c0.1-0.4,0.4-0.3,0.5,0c0.1,0.6,0,1.2-0.3,1.8c-0.9,1.8-2.7,2.9-4.7,3.1
				c-1.3,0.3-2.7,0-3.8-0.8c-0.5-0.4-0.9-1.1-1-1.8c-1.2,2.4-2.4,5.2-3.6,8.2c-0.1,0.2-0.3,0.3-0.5,0.1c-0.4-0.5-0.6-1.3-0.1-3
				C6,94.9,8.2,90.3,10.7,86c0.3-0.4,0.5-0.3,0.6,0c0.2,0.4,0.2,0.8,0.2,1.2c1.1-1.1,2.7-1.9,3.9-0.7c1.3,1.3,0.8,3.7-0.1,6
				c-0.5,1.5-1.4,2.8-2.7,3.8C15.1,95.9,17,94.3,17.7,92.1z M10,95.5c0.9,0.7,2.6-1.4,3.7-4c1-2.2,1.2-4.4,0.5-4.7
				c-0.7-0.3-2.3,1.1-3.4,3.2c-0.3,0.5-0.6,1-0.9,1.6C9.3,93.3,9.2,94.9,10,95.5L10,95.5z"/>
			<path id="Tracé_5541" class="st14" d="M20.3,96.4c-2.5,0.2-3.3-3.1-1.4-6.5c1.9-3.3,3.9-4.7,5.2-4.8c0.9-0.1,1.7,0.6,1.7,1.5
				c0,0.1,0,0.1,0,0.2c0.3-0.7,0.6-1.3,0.8-1.6c0.2-0.3,0.4-0.4,0.6-0.2c0.6,0.9,0.7,2,0.3,2.9c-0.4,1.3-1.7,3.5-2.1,4.9
				c-0.5,1.6-0.3,2.6,0.5,2.4c1.7-0.3,3.8-3.8,4.7-7.9c-2.2-0.6,0-4.5,1-4.6c0.8-0.1,0.7,1.5,0.3,3.4c1.1-0.3,2-0.8,2.9-1.5
				c0.4-0.3,0.5-0.4,0.8-0.1c0.6,0.5,1.3,1.7,0.6,2.7c-1.2,1.5-2,3.2-2.6,4.9c-0.3,1.5,0.1,2.5,0.9,2.5c1.1,0,2.3-1.9,3-4
				c0.1-0.2,0.3-0.3,0.4,0c0.2,0.6,0.3,1.2,0,1.8c-0.5,1.6-1.8,2.8-3.5,3.1c-2,0.1-3-1.7-2.6-3.9c0.6-1.9,1.6-3.8,2.9-5.3
				c-0.9,0.7-2,1.1-3.1,1.3c-1,3.9-3,8.2-5.9,8.6c-1.1,0.3-2.1-0.4-2.4-1.4c0-0.2-0.1-0.4-0.1-0.6C22.8,95.1,21.6,96,20.3,96.4z
				 M20.8,90.7c-1.2,2.4-1.3,4.8-0.3,4.7c1.1-0.1,2.3-1.8,3.5-4.4c1.4-3.1,1.5-4.8,0.7-4.8C23.8,86.3,22,88.2,20.8,90.7L20.8,90.7z"
				/>
			<path id="Tracé_5542" class="st14" d="M38.1,83c-0.3-0.3-0.2-0.5,0.2-0.6c0.7-0.1,1.5-0.2,2.2-0.4c0.5-1.2,1-2.4,1.6-3.6
				c0.2-0.4,0.5-0.4,0.6-0.1c0.5,1,0.5,2.1,0.1,3.1c0.6-0.2,1.3,0.1,1.8,0.6c0.2,0.3,0.1,0.5-0.3,0.5c-0.7,0-1.4,0.2-2.1,0.4
				c-0.8,1.9-2,4.7-2.7,7.1c-0.6,2.1-0.1,3.7,1,3.6c1.2-0.1,2.5-2.2,3.2-4.3c0.1-0.3,0.4-0.4,0.6-0.1c0.2,0.5,0.1,1.1-0.1,1.6
				c-0.2,0.8-1.7,3.4-3.8,3.6c-1.8,0.2-3.4-1.6-2.6-4.8c0.4-1.4,1.2-3.8,2.1-6.1C39.3,83.6,38.6,83.5,38.1,83z"/>
			<path id="Tracé_5543" class="st14" d="M51.9,81.7c0.2-0.4,0.4-0.5,0.6-0.3c0.7,0.8,0.9,2,0.5,3c-0.4,1.3-1.4,3.5-1.8,5
				c-0.4,1.6-0.3,2.7,0.6,2.5c1.1-0.2,2.2-2.3,2.9-4.3c0.1-0.3,0.3-0.3,0.4-0.1c0.2,0.5,0.2,1.1,0,1.7c-0.4,1.6-1.9,3.3-3.3,3.5
				c-1.1,0.3-2.2-0.4-2.5-1.6c0-0.1,0-0.2,0-0.2c-0.6,1.3-1.6,2.2-3,2.6c-2.5,0.4-3.5-2.9-1.9-6.5c1.6-3.5,3.5-5,4.9-5.2
				c0.9-0.2,1.7,0.4,1.9,1.3c0,0.1,0,0.2,0,0.3C51.4,82.9,51.6,82.3,51.9,81.7z M50,83.1c-0.9,0.1-2.5,2.1-3.6,4.7
				c-1,2.5-1,4.9,0.1,4.8c1.1-0.2,2.2-2.1,3.2-4.6C50.8,84.8,50.7,83.1,50,83.1L50,83.1z"/>
			<path id="Tracé_5544" class="st14" d="M61.4,91.5c-0.7,3.8-1.7,8.4-3.6,9.7c-0.5,0.4-1.2,0.3-1.6-0.2c-0.9-0.8-1.4-2-1.2-3.1
				c0.3-2.5,2.2-4.6,4.6-6.2c0.1-0.6,0.2-1.3,0.4-2c-0.5,0.9-1.4,1.6-2.4,1.9c-2.4,0.5-3.6-2.7-2.1-6.3c1.4-3.5,3.3-5.1,4.6-5.4
				c0.8-0.2,1.7,0.3,1.9,1.2c0,0.1,0,0.1,0,0.2c0.2-0.6,0.4-1.1,0.6-1.6c0.1-0.4,0.4-0.5,0.6-0.3c0.7,0.8,0.9,1.9,0.6,2.9
				c-0.5,1.7-1.4,5.3-2,8.1c1.7-1.3,3-3,3.9-4.9c0.1-0.2,0.4-0.3,0.5,0c0.1,0.6,0,1.1-0.2,1.6C65.1,88.8,63.4,90.2,61.4,91.5z
				 M56.4,99.9c0.4,0.4,1.9-2.8,2.8-7.1C56.2,95.6,55.9,99.4,56.4,99.9L56.4,99.9z M60.6,81.1c-0.8,0.1-2.4,2.2-3.4,4.8
				c-0.9,2.6-0.7,4.9,0.3,4.7c1-0.2,2-2.1,2.9-4.7C61.5,82.7,61.4,81,60.6,81.1L60.6,81.1z"/>
			<path id="Tracé_5545" class="st14" d="M69.8,88c2.2-0.5,3.5-3,4.2-5c0.1-0.2,0.3-0.3,0.4-0.1c0.2,0.6,0.2,1.2,0,1.7
				c-0.7,2-2.4,3.5-4.4,4.1c-3.3,0.9-5.3-2.1-4.5-5.8s3.1-5.8,4.6-5.4c0.7,0.2,1.3,0.5,1.9,1c0.6,0.5,0.8,2.1,0.1,3.8
				c-0.9,1.9-2.4,3-4.6,2C67.4,86.8,68.4,88.3,69.8,88z M70.4,81.5c0.6-1.3,0.8-2.8,0.3-3c-0.7-0.3-2.4,1.8-3,4.6
				c0,0.2-0.1,0.4-0.1,0.5C69.2,84,69.9,82.7,70.4,81.5z"/>
			<path id="Tracé_5546" class="st14" d="M88.4,82.4c1-0.4,1.8-2.6,2.1-4.6c0-0.3,0.2-0.3,0.4-0.2c0.3,0.5,0.4,1.1,0.3,1.6
				c-0.2,1.6-1.3,3.5-2.7,3.9c-1,0.4-2.2,0-2.7-1c0-0.1-0.1-0.2-0.1-0.3c-0.3,1.3-1.2,2.4-2.5,3c-2.4,0.8-3.9-2.2-2.9-6
				c1-3.6,2.6-5.5,3.9-5.9c0.8-0.3,1.7,0.1,2.1,1c0,0.1,0.1,0.2,0.1,0.2c0.5-3.1,1.2-7.2,1.7-8.8c0.1-0.4,0.4-0.5,0.6-0.2
				c0.6,0.7,0.9,1.8,0.5,4.1c-0.5,2.6-1.4,7.6-1.8,10.8C87.2,81.7,87.5,82.8,88.4,82.4z M82.3,79.3c-0.6,2.7-0.1,5,0.9,4.6
				c1-0.3,1.9-2.3,2.3-5c0.5-3.3,0.3-5.1-0.4-4.8C84.3,74.4,83,76.6,82.3,79.3L82.3,79.3z"/>
			<path id="Tracé_5547" class="st14" d="M94.9,79.9c2.1-0.7,3.2-3.4,3.6-5.5c0-0.2,0.2-0.3,0.4-0.1c0.3,0.5,0.4,1.1,0.2,1.7
				c-0.5,2.1-1.9,3.8-3.8,4.6c-3.2,1.3-5.5-1.4-5.1-5.3s2.4-6.2,3.9-5.9c0.7,0.1,1.4,0.3,2,0.7c0.7,0.4,1.1,2,0.5,3.7
				c-0.6,2-2.1,3.3-4.4,2.6C92.3,79,93.5,80.4,94.9,79.9z M94.7,73.3c0.4-1.4,0.4-2.9,0-3c-0.7-0.2-2.2,2.1-2.4,4.9
				c0,0.2,0,0.4,0,0.5C93.7,76.1,94.3,74.6,94.7,73.3L94.7,73.3z"/>
			<path id="Tracé_5548" class="st14" d="M105.6,65.9c-0.3-0.7-0.3-1.6,0-2.3c0.3-0.7,0.8-1.1,1.1-1c0.4,0.1,0.4,0.5,0.3,1.2
				c0,0.2,0,0.4-0.1,0.6c0.9,2.3,2.2,4,2.9,5.7c0.5,0.9,0.6,2.1,0.1,3.1c1.2-1.3,1.8-3.1,1.7-4.9c0-0.3,0.3-0.4,0.5-0.2
				c0.4,0.5,0.5,1.1,0.4,1.8c-0.1,2-1.3,3.8-3.1,4.7c-1.4,0.9-3.1,0.8-4.5-0.2c-1.1-0.8-1.8-2.5-1.2-3.5c0.2-0.4,0.4-0.4,0.6,0
				c0.1,0.2,0.2,0.4,0.3,0.6C105.1,69.6,105.4,67.8,105.6,65.9z M105.5,72.7c1,1.2,2.2,1.9,2.9,1.3c1-0.9-1.2-4.5-2.2-6.4
				C106.1,69.3,105.9,71,105.5,72.7L105.5,72.7z"/>
			<path id="Tracé_5549" class="st14" d="M117.3,58.7c0.1-0.4,0.2-0.6,0.5-0.4c0.9,0.6,1.4,1.6,1.3,2.7c0,1.3-0.3,3.8-0.2,5.3
				c0.1,1.6,0.6,2.7,1.4,2.2c1-0.5,1.4-2.8,1.4-4.9c0-0.3,0.2-0.4,0.4-0.2c0.4,0.5,0.6,1,0.5,1.6c0,1.6-0.8,3.7-2.1,4.3
				c-1,0.6-2.3,0.2-2.9-0.7c0-0.1-0.1-0.1-0.1-0.2c-0.1,1.4-0.9,2.6-2,3.4c-2.2,1.1-4.2-1.7-3.7-5.6c0.5-3.8,1.8-5.9,3-6.5
				c0.8-0.4,1.8-0.1,2.2,0.7c0.1,0.1,0.1,0.2,0.1,0.3C117.2,59.8,117.2,59.2,117.3,58.7z M115.9,60.6c-0.8,0.3-1.8,2.8-2,5.6
				c-0.2,2.7,0.5,5,1.5,4.5c1-0.5,1.5-2.6,1.6-5.4C117.2,62,116.6,60.4,115.9,60.6z"/>
			<path id="Tracé_5550" class="st14" d="M126.3,53.4c0.1-0.4,0.3-0.4,0.5-0.2c0.3,0.5,0.4,1.2,0.2,2.6c-0.7,3.4-1.2,6.9-1.4,10.4
				c0,0.3,0,0.5-0.3,0.5c-1.1,0.2-2.1-0.5-2.4-1.5c-1.2-2.7-2.1-5.4-2.7-8.3c-0.1-0.3,0.1-0.5,0.4-0.5c1.1,0.2,1.8,1,2.2,2.6
				c0.5,2.2,1.2,4.3,2,6.4C125,61.4,125.5,57.4,126.3,53.4z"/>
			<path id="Tracé_5551" class="st14" d="M143,52.6c0.2,1.7-0.5,3.5-1.9,4.5c-1.7,1.1-3.1-0.1-3.6-2.4c-0.2-0.8-0.4-1.8-0.5-2.9
				c-0.3,0.8-0.9,1.5-1.7,1.9c0.8,2.2,0.8,5.5-0.5,7.1c-0.8,1.1-2.2,1.4-3.5,0.9c-1.9-0.7-2.8-2.9-2.9-5.3c-0.1-2.1,0.4-4.3,1.7-5.2
				c0.6-0.5,1.4-0.6,2-0.3c1,0.4,1.7,0.1,2.7,1.8c0.1,0.1,0.1,0.3,0.2,0.4c1.4-0.9,1.8-3.2,1.8-5.7c0-0.4,0.2-0.6,0.5-0.5
				c0.9,0.5,1.5,1.4,1.6,2.5c0.2,1.3,0.2,3.5,0.4,4.9c0.3,1.7,0.9,2.6,1.6,2c1-0.7,1.3-3,0.9-5c0-0.3,0.1-0.4,0.4-0.2
				C142.7,51.4,142.9,52,143,52.6z M130.6,53.1c-0.3,1.1-0.5,2.2-0.4,3.3c0.1,2.3,1.1,4.6,2.1,4.8c0.9,0.1,1.8-1.6,1.6-4.3
				c-0.1-0.8-0.2-1.7-0.4-2.5C132.4,54.5,131.3,54,130.6,53.1L130.6,53.1z M132.4,52c-0.5-0.7-0.9-0.2-0.6,0.5
				c0.3,0.6,0.8,1.1,1.5,1.2C133.1,53,132.8,52.5,132.4,52L132.4,52z M136.2,44.3c0.1-0.6,1-0.8,1.6-0.3c0.5,0.3,0.8,0.9,0.8,1.6
				c-0.1,0.5-0.7,0.9-1.5,0.5C136.6,45.7,136.2,45,136.2,44.3L136.2,44.3z"/>
			<path id="Tracé_5552" class="st14" d="M144.3,42.3c0.1-0.4,0.3-0.5,0.6-0.5c0.7,0.2,2,0.7,1.9,1.9c-0.3,1.8-0.2,3.6,0.2,5.3
				c0.5,1.4,1.4,2,2,1.6c0.9-0.6,0.9-2.7,0.5-4.8c0-0.2,0.1-0.4,0.3-0.2c0.5,0.4,0.8,0.9,0.9,1.4c0.4,1.6-0.1,3.2-1.4,4.3
				c-1.6,1.1-3.3,0.1-3.9-1.9c-0.4-1.9-0.6-3.9-0.3-5.9c-0.4,1.1-1,2-1.9,2.7c0.3,2.1,0.5,6.7,1.5,9c0.1,0.2,0,0.4-0.3,0.4
				c-1.1-0.2-1.8-1.2-2.1-2.7c-0.2-1.3-0.2-4.4-0.3-6.2c-1.8,0.1-1.8-3.8-1-4.4c0.7-0.5,1.4,0.9,1.9,2.6
				C143.5,44.2,144,43.3,144.3,42.3z"/>
			<path id="Tracé_5553" class="st14" d="M148.5,42.8c-0.2-0.2-0.3-0.3,0-0.5c1.2-0.8,2.5-2.3,3.5-3.1c0.6-0.7,1.7-0.8,2.4-0.2
				c0.2,0.2,0.3,0.3,0,0.5c-1.6,1.1-2.5,2.4-3.5,3.1C150.3,43.4,149.2,43.4,148.5,42.8z"/>
			<path id="Tracé_5554" class="st14" d="M161,38.8c0.2,0.2,0.4,0.5,0.6,0.7c0.3-1.5,0.2-3-0.2-4.4c-0.1-0.3,0.1-0.5,0.4-0.4
				c0.4,0.4,0.7,0.8,0.9,1.4c0.3,1.4,0.1,2.9-0.6,4.2c1.4,2.2,2.4,4.8,2.7,7.4c0.1,1.5-0.4,2-1.4,2c-0.9,0-2.2-0.2-3.5-2.1
				c-3.4-5-5.6-16.8-6.3-22.1c-0.1-0.4,0.2-0.6,0.5-0.4c0.8,0.5,1.6,1.4,2,3.6c0.4,2.1,1,5.6,1.8,8.7C158.8,37,159.8,37.5,161,38.8z
				 M159.6,39.2c-0.6-0.8-1.4-1.2-1.5-1c-0.1,0.3,0.6,1.5,1,2c0.5,0.7,1.1,0.9,1.6,0.7C160.4,40.3,160,39.7,159.6,39.2z M162.9,48.8
				c1,0.2,0-3.9-1.8-7.3c-0.5,0.4-1.3,0.6-1.9,0.3C160.4,45.5,161.9,48.6,162.9,48.8L162.9,48.8z"/>
			<path id="Tracé_5555" class="st14" d="M164,24.1c-0.1-0.4,0-0.6,0.3-0.6c1,0.3,1.8,1.1,2.1,2.1c0.4,1.3,0.9,3.7,1.4,5.1
				c0.6,1.5,1.4,2.4,2,1.7c0.7-0.8,0.5-3.1-0.1-5.1c-0.1-0.3,0-0.4,0.3-0.3c0.5,0.3,0.8,0.8,1,1.4c0.5,1.5,0.4,3.8-0.8,4.8
				c-0.8,0.9-2.1,0.9-2.9,0.1c-0.1-0.1-0.1-0.1-0.2-0.2c0.3,1.4-0.1,2.8-0.9,3.8c-1.8,1.8-4.5-0.3-5.2-4.2c-0.7-3.8,0-6.1,1-7.1
				c0.6-0.6,1.7-0.7,2.3,0c0.1,0.1,0.1,0.2,0.2,0.2C164.3,25.3,164.1,24.6,164,24.1z M163.3,26.4c-0.7,0.5-0.8,3.2-0.2,5.9
				c0.6,2.6,2,4.6,2.8,3.9c0.8-0.8,0.6-3-0.1-5.6C164.9,27.3,163.9,25.9,163.3,26.4L163.3,26.4z"/>
			<path id="Tracé_5556" class="st14" d="M168.9,18.5c0.1,0.5-0.5,1-1.3,0.9c-0.7-0.1-1.3-0.7-1.4-1.4c-0.1-0.6,0.7-1,1.5-0.8
				C168.3,17.4,168.7,17.9,168.9,18.5z M173.5,13.7c0-0.4,0.1-0.7,0.5-0.7c0.7,0,2.1,0.3,2.3,1.5c0.2,1.9,0.7,3.7,1.6,5.4
				c0.8,1.3,1.8,1.8,2.4,1.2c0.7-0.8,0.3-3-0.7-4.9c-0.1-0.2,0-0.4,0.3-0.3c0.6,0.2,1,0.7,1.2,1.2c0.8,1.5,0.6,3.3-0.4,4.6
				c-1.4,1.5-3.3,0.9-4.5-1c-0.9-1.9-1.5-3.9-1.7-6c-0.1,1.2-0.6,2.3-1.4,3.2c1.8,3.8,3,8.4,1.3,10.8c-1.2,1.7-3,0.9-4.2-1.1
				c-1.2-2.2-2.1-4.5-2.7-6.9c-0.1-0.4,0-0.6,0.3-0.6c0.6,0,1.6,0.6,2.2,2c0.6,1.2,1,3,1.8,4.6c0.7,1.5,1.6,2.1,2,1.4
				c1-1.5,0.5-5.6-1.7-9.5c-1.9,1.1-3-3.3-2.3-4.2c0.5-0.7,1.6,0.7,2.4,2.3C173.1,15.9,173.4,14.8,173.5,13.7L173.5,13.7z"/>
			<path id="Tracé_5557" class="st14" d="M184.8,15.2c1.4-1.7,0.9-4.6,0.1-6.6c-0.1-0.2,0-0.4,0.3-0.4c0.5,0.3,0.9,0.8,1.1,1.4
				c0.7,2,0.4,4.2-0.8,6c-2,2.8-5.4,1.7-7.1-1.8s-1.2-6.5,0.2-7.1c0.7-0.3,1.4-0.4,2.1-0.4c0.8,0,2,1.1,2.4,2.9c0.5,2,0,3.9-2.4,4.5
				C182.1,15.8,183.8,16.3,184.8,15.2z M181.1,9.7c-0.4-1.4-1.2-2.7-1.6-2.5c-0.7,0.2-0.7,2.9,0.6,5.5c0.1,0.2,0.2,0.3,0.2,0.4
				C181.7,12.5,181.5,10.9,181.1,9.7L181.1,9.7z"/>
		</g>
	</g>
</g>
<g class="st15">
	<path class="st13" d="M201.6,48.9c-1.5,0-2.7-0.3-3.5-0.8c-0.8-0.5-1.2-1.4-1.2-2.6c0-0.1,0.1-0.1,0.2-0.1c0.2,0,0.5,0.1,1.1,0.2
		c0.5,0.1,1.5,0.2,2.9,0.2c2.4,0,4.6-0.3,6.7-0.8c2-0.5,3.8-1.3,5.3-2.2c1.5-1,2.7-2,3.5-3.2c0.8-1.2,1.2-2.4,1.2-3.7
		c0-1.1-0.3-2.1-1-2.8c-0.6-0.7-1.5-1.2-2.5-1.6c-1-0.4-2.2-0.6-3.4-0.7c-1.2-0.1-2.5-0.2-3.7-0.2c-0.5,0-1.1,0-1.6,0
		c-0.5,0-1.1,0-1.5,0c-0.6,2.3-1.3,4.6-1.9,6.8s-1.2,4.5-1.9,6.7c-0.7,0-1.3-0.2-1.8-0.6c-0.5-0.4-0.7-0.9-0.7-1.4
		c0-0.3,0.1-0.7,0.2-1.2c0.1-0.4,0.3-0.9,0.4-1.2c0.2-0.6,0.5-1.5,0.9-2.8c0.4-1.3,0.9-2.9,1.5-4.6c0.6-1.8,1.3-3.6,2-5.5
		c0.7-1.9,1.5-3.8,2.2-5.7c0.8-1.8,1.5-3.5,2.2-4.9c-1.2,0.2-2.2,0.5-3,0.8s-1.4,0.7-1.9,1s-0.8,0.4-1,0.4c-0.1,0-0.3-0.1-0.5-0.2
		s-0.4-0.3-0.6-0.5c-0.2-0.2-0.3-0.3-0.3-0.5c1.4-0.6,2.9-1.1,4.4-1.6c1.5-0.5,3.4-0.7,5.6-0.7c0.9,0,1.9,0.1,3.1,0.2
		c1.1,0.2,2.2,0.5,3.2,0.9s1.8,1.1,2.5,2c0.6,0.9,1,2.1,1,3.5c0,1.4-0.3,2.5-0.9,3.5c-0.6,1-1.4,1.8-2.3,2.4s-2,1.1-3.1,1.5
		c-1.1,0.4-2.2,0.6-3.3,0.8c2.1,0.1,3.7,0.4,5,0.9c1.3,0.5,2.2,1,2.9,1.7c0.7,0.7,1.1,1.4,1.3,2.1c0.2,0.7,0.3,1.4,0.3,2.1
		c0,1.6-0.4,3.1-1.3,4.4c-0.8,1.3-1.9,2.5-3.3,3.4c-1.4,1-2.9,1.8-4.5,2.5c-1.6,0.7-3.2,1.1-4.8,1.5
		C204.3,48.7,202.9,48.9,201.6,48.9z M204.3,29.7c1.5-0.1,3.1-0.2,4.6-0.5s2.9-0.8,4.2-1.4c1.3-0.6,2.3-1.5,3-2.5
		c0.8-1,1.2-2.3,1.2-3.9c0-1.5-0.3-2.6-1-3.4c-0.7-0.8-1.6-1.3-2.6-1.6c-1.1-0.3-2.2-0.5-3.4-0.5c-0.1,0-0.3,0-0.4,0s-0.3,0-0.4,0
		c-1,2-1.9,4.1-2.8,6.5C205.8,24.8,205.1,27.2,204.3,29.7z"/>
	<path class="st13" d="M224.6,46.6c-1.2,0-2.1-0.4-2.6-1.1c-0.5-0.7-0.8-1.6-0.8-2.7c0-0.9,0.1-1.8,0.4-2.7c0.3-0.9,0.7-1.8,1.1-2.6
		c0.5-0.8,1-1.5,1.6-2c0.6-0.5,1.2-0.8,1.7-0.8c0.1,0,0.3,0,0.4,0.1c0.2,0,0.3,0.1,0.4,0.1c-0.3,0.2-0.6,0.6-0.9,1.2
		c-0.4,0.6-0.7,1.3-1,2.1c-0.3,0.8-0.6,1.5-0.8,2.3S224,42,224,42.5c0,0.8,0.1,1.4,0.4,1.8s0.6,0.6,1.1,0.6c0.6,0,1.3-0.3,2.1-0.9
		c0.8-0.6,1.6-1.4,2.4-2.4c-0.8-0.6-1.4-1.5-1.8-2.5c-0.4-1-0.7-2.1-0.7-3.2c0-0.9,0.2-1.8,0.5-2.6c0.3-0.8,0.8-1.5,1.4-2
		c0.6-0.5,1.4-0.7,2.2-0.7c1.1,0,1.9,0.3,2.3,0.9c0.4,0.6,0.6,1.4,0.6,2.3c0,1.1-0.3,2.3-0.8,3.6c-0.5,1.3-1.2,2.6-2,3.8
		c0.5,0.3,1,0.4,1.6,0.4c0.4,0,1-0.1,1.5-0.3c0.6-0.2,1.1-0.5,1.7-0.9c0.5-0.4,1-1,1.3-1.8l0.5,0.4c-0.6,1.3-1.4,2.2-2.4,2.8
		c-1,0.5-2,0.8-2.9,0.8c-0.4,0-0.7,0-1-0.1c-0.3-0.1-0.7-0.2-1-0.3c-1,1.3-2,2.3-3.1,3.2C226.8,46.2,225.7,46.6,224.6,46.6z
		 M230.8,40.4c0.7-1,1.3-2.1,1.7-3.3s0.7-2.2,0.7-3.2c0-0.8-0.1-1.4-0.4-1.8s-0.5-0.6-0.9-0.6c-0.6,0-1.1,0.4-1.7,1.2
		s-0.9,1.8-0.9,3.1c0,0.8,0.1,1.6,0.4,2.5C229.9,39.2,230.3,39.9,230.8,40.4z"/>
	<path class="st13" d="M240.2,46.5c-1,0-1.7-0.4-2.3-1.3c-0.6-0.9-0.9-1.8-0.9-3c0-0.8,0.1-1.7,0.4-2.8c0.3-1.1,0.6-2.1,1-3.2
		c0.4-1,0.8-1.9,1.2-2.6s0.8-1,1.1-1c0.1,0,0.4,0.1,0.7,0.2c0.3,0.2,0.6,0.4,0.8,0.6c-0.3,0.5-0.7,1.2-1.1,2.2c-0.4,1-0.8,2-1.2,3.2
		s-0.5,2.2-0.5,3.1c0,0.2,0,0.6,0.1,1c0.1,0.5,0.2,0.9,0.4,1.2c0.2,0.4,0.6,0.5,1,0.5c0.5,0,1.1-0.3,1.6-0.8s1.1-1.3,1.7-2.1
		c0.6-0.9,1.1-1.8,1.7-2.8c0.5-1,1-2,1.5-2.9s0.8-1.7,1.2-2.3c0.2,0,0.4,0.1,0.7,0.2c0.3,0.1,0.6,0.2,0.9,0.3
		c0.3,0.1,0.4,0.3,0.4,0.6c0,0.1-0.1,0.5-0.4,1.1c-0.3,0.6-0.6,1.4-1,2.3c-0.4,0.9-0.7,1.8-1,2.8s-0.4,1.7-0.4,2.4
		c0,0.5,0.1,0.9,0.3,1.2c0.2,0.3,0.6,0.5,1.1,0.5c0.6,0,1.3-0.3,2.1-0.8c0.8-0.5,1.7-1.3,2.6-2.3c0.9-1,1.6-2.2,2.3-3.7l0.5,0.4
		c-0.6,1.5-1.4,2.8-2.3,4c-1,1.2-2,2.1-3,2.7c-1.1,0.6-2.1,1-3.1,1c-0.7,0-1.3-0.1-1.7-0.4c-0.4-0.3-0.7-0.7-0.9-1.1
		c-0.2-0.5-0.3-1-0.3-1.6c0-0.3,0-0.7,0.1-1c0.1-0.3,0.1-0.7,0.2-1.1c-0.5,0.9-1,1.8-1.6,2.6c-0.6,0.8-1.2,1.4-1.8,1.9
		C241.5,46.3,240.9,46.5,240.2,46.5z"/>
	<path class="st13" d="M259,47.2c-1.2,0-2.1-0.3-2.8-1s-1-1.7-1-3.1c0-1.2,0.2-2.8,0.7-4.6c0.5-1.8,1-3.7,1.7-5.6
		c-0.3-0.1-0.5-0.1-0.8-0.1c-0.3,0-0.5-0.1-0.7-0.2v-0.8c0.2,0,0.5,0.1,0.8,0.1c0.3,0,0.7,0.1,1,0.1c0.6-1.5,1.2-3,1.9-4.4
		c0.7-1.4,1.3-2.7,2-3.8c0.7-1.1,1.3-2,1.9-2.6c0.6-0.7,1.1-1,1.5-1c0.2,0,0.4,0.1,0.6,0.2c0.2,0.2,0.3,0.4,0.3,0.7
		c0,0.5-0.3,1.3-0.9,2.3c-0.6,1.1-1.3,2.4-2.2,3.8c-0.9,1.5-1.7,3.1-2.5,4.8c0.3,0,0.5,0,0.8,0c0.3,0,0.5,0,0.8,0c0.9,0,1.9,0,2.9,0
		c1,0,2.1-0.1,3.1-0.2v0.8c-1.5,0.2-2.9,0.3-4.1,0.4c-1.2,0.1-2.3,0.1-3.3,0.1c-0.1,0-0.2,0-0.3,0c-0.1,0-0.2,0-0.3,0
		c-0.6,1.5-1.2,3-1.6,4.6c-0.4,1.6-0.7,3.1-0.7,4.6c0,1.2,0.2,2.1,0.5,2.6c0.4,0.5,1,0.8,1.8,0.8c1.5,0,2.9-0.6,4.3-1.9
		c1.4-1.3,2.6-3,3.7-5.2l0.5,0.4c-0.7,1.6-1.5,3-2.5,4.2c-1,1.3-2.1,2.3-3.4,3C261.6,46.8,260.3,47.2,259,47.2z"/>
	<path class="st13" d="M270.4,46.3c-1.1,0-1.9-0.3-2.4-1c-0.5-0.7-0.8-1.5-0.8-2.5c0-0.6,0.1-1.5,0.4-2.4c0.2-1,0.6-2,0.9-3.1
		c0.4-1.1,0.8-2.1,1.4-3c0.5-1,1.1-1.7,1.7-2.3c0.6-0.6,1.2-0.9,1.7-0.9c0.3,0,0.5,0.1,0.7,0.2c0.2,0.2,0.3,0.4,0.3,0.7
		c0,0.3-0.2,0.9-0.7,1.6c-0.4,0.8-0.9,1.6-1.5,2.6c-0.6,1-1.1,2-1.5,3.1c-0.4,1.1-0.7,2.1-0.7,3.1c0,1,0.2,1.7,0.5,2
		s0.9,0.5,1.6,0.5c1,0,2-0.5,3-1.4c1.1-1,2.2-2.6,3.4-5l0.4,0.4c-0.8,2.4-2,4.3-3.5,5.5C273.6,45.7,272.1,46.3,270.4,46.3z
		 M275.4,27.1c-0.4,0-0.8-0.1-1.2-0.3c-0.4-0.2-0.5-0.6-0.5-1c0-0.6,0.3-1.1,1-1.5c0.7-0.4,1.4-0.7,2-0.7c0.4,0,0.8,0.1,1,0.3
		c0.3,0.2,0.4,0.5,0.4,1c0,0.5-0.3,1-0.9,1.5C276.7,26.9,276.1,27.1,275.4,27.1z"/>
	<path class="st13" d="M285.7,57c-0.4,0-0.7-0.2-1-0.6s-0.4-1.2-0.4-2.4c0-1,0.1-2.2,0.3-3.7c0.2-1.5,0.5-3,0.9-4.6
		c0.4-1.6,0.8-3.1,1.3-4.6c-1.1,1.6-2.2,2.9-3.4,3.9c-1.1,1-2.2,1.5-3.3,1.5c-0.5,0-1-0.1-1.4-0.4c-0.5-0.2-0.9-0.6-1.2-1.2
		c-0.3-0.5-0.5-1.2-0.5-2.1c0-1,0.2-2,0.7-3.2c0.4-1.1,1.1-2.3,1.8-3.4c0.8-1.1,1.7-2.1,2.7-3c1-0.9,2.1-1.6,3.2-2.2
		c1.1-0.6,2.2-0.8,3.4-0.8c1,0,1.7,0.2,2.4,0.6c0.6,0.4,0.9,0.9,0.9,1.5c0,0.3-0.1,0.5-0.2,0.8c-0.1,0.3-0.3,0.5-0.6,0.6
		c-0.1,0.1-0.3,0.2-0.6,0.2c0-0.6-0.2-1.2-0.5-1.6c-0.4-0.5-1-0.7-1.8-0.7c-0.9,0-1.8,0.3-2.6,0.8s-1.6,1.2-2.3,2.1
		c-0.7,0.9-1.3,1.8-1.8,2.8c-0.5,1-0.9,2-1.2,2.9s-0.4,1.7-0.4,2.4c0,0.6,0.1,1.1,0.4,1.5c0.3,0.4,0.6,0.5,1.1,0.5
		c0.6,0,1.2-0.3,1.8-0.8c0.6-0.5,1.3-1.2,2-2.1c0.7-0.9,1.4-1.8,2.1-2.9c0.7-1,1.4-2.1,2-3.1c0.2-0.3,0.4-0.5,0.6-0.7
		c0.2-0.2,0.4-0.3,0.6-0.4c0.3-0.1,0.6-0.2,0.8-0.2c0.2,0,0.4,0.1,0.5,0.2c0.1,0.1,0.2,0.3,0.2,0.5c0,0.4-0.2,1-0.7,1.8
		c-0.5,0.8-1,1.7-1.6,2.9c-0.6,1.2-1.1,2.6-1.4,4.3c1.2-0.1,2.4-0.6,3.6-1.3c1.2-0.8,2.3-2.2,3.4-4.2l0.5,0.5
		c-0.9,2.1-2.1,3.6-3.5,4.5s-2.8,1.4-4.1,1.6c0.2,0.7,0.4,1.5,0.5,2.3s0.2,1.6,0.2,2.5c0,1.3-0.1,2.5-0.4,3.6
		c-0.3,1.1-0.6,2-1.1,2.6C286.8,56.7,286.2,57,285.7,57z M286.8,54.7c0.2,0,0.4-0.3,0.6-0.8c0.2-0.5,0.3-1.2,0.4-2
		c0.1-0.8,0.1-1.6,0.1-2.5c0-0.6,0-1.1-0.1-1.6c0-0.5-0.1-1-0.2-1.5c-0.4,1.5-0.6,2.9-0.8,4.2c-0.2,1.3-0.3,2.3-0.3,3.1
		c0,0.4,0,0.7,0.1,0.9C286.6,54.6,286.7,54.7,286.8,54.7z"/>
	<path class="st13" d="M297.5,46.5c-1,0-1.7-0.4-2.3-1.3c-0.6-0.9-0.9-1.8-0.9-3c0-0.8,0.1-1.7,0.4-2.8c0.3-1.1,0.6-2.1,1-3.2
		c0.4-1,0.8-1.9,1.2-2.6s0.8-1,1.1-1c0.1,0,0.4,0.1,0.7,0.2c0.3,0.2,0.6,0.4,0.8,0.6c-0.3,0.5-0.7,1.2-1.1,2.2c-0.4,1-0.8,2-1.2,3.2
		s-0.5,2.2-0.5,3.1c0,0.2,0,0.6,0.1,1c0.1,0.5,0.2,0.9,0.4,1.2c0.2,0.4,0.6,0.5,1,0.5c0.5,0,1.1-0.3,1.6-0.8s1.1-1.3,1.7-2.1
		c0.6-0.9,1.1-1.8,1.7-2.8c0.5-1,1-2,1.5-2.9s0.8-1.7,1.2-2.3c0.2,0,0.4,0.1,0.7,0.2c0.3,0.1,0.6,0.2,0.9,0.3
		c0.3,0.1,0.4,0.3,0.4,0.6c0,0.1-0.1,0.5-0.4,1.1c-0.3,0.6-0.6,1.4-1,2.3c-0.4,0.9-0.7,1.8-1,2.8s-0.4,1.7-0.4,2.4
		c0,0.5,0.1,0.9,0.3,1.2c0.2,0.3,0.6,0.5,1.1,0.5c0.6,0,1.3-0.3,2.1-0.8c0.8-0.5,1.7-1.3,2.6-2.3c0.9-1,1.6-2.2,2.3-3.7l0.5,0.4
		c-0.6,1.5-1.4,2.8-2.3,4c-1,1.2-2,2.1-3,2.7c-1.1,0.6-2.1,1-3.1,1c-0.7,0-1.3-0.1-1.7-0.4c-0.4-0.3-0.7-0.7-0.9-1.1
		c-0.2-0.5-0.3-1-0.3-1.6c0-0.3,0-0.7,0.1-1c0.1-0.3,0.1-0.7,0.2-1.1c-0.5,0.9-1,1.8-1.6,2.6c-0.6,0.8-1.2,1.4-1.8,1.9
		C298.9,46.3,298.2,46.5,297.5,46.5z"/>
	<path class="st13" d="M317.3,47.1c-1.7,0-3-0.5-3.8-1.4c-0.9-0.9-1.3-2.1-1.3-3.5c0-1.3,0.3-2.6,0.9-4s1.5-2.7,2.5-3.9
		c1-1.2,2.2-2.2,3.5-3c1.3-0.8,2.5-1.2,3.7-1.2c0.6,0,1.2,0.2,1.8,0.5s0.8,1,0.8,2.1c0,1.1-0.3,2.1-0.9,3s-1.5,1.8-2.5,2.5
		c-1,0.7-2.1,1.3-3.4,1.8c-1.2,0.5-2.4,0.8-3.6,0.9c-0.1,0.3-0.1,0.5-0.1,0.8c0,0.3,0,0.5,0,0.7c0,0.4,0,0.8,0.1,1.3
		c0.1,0.4,0.3,0.8,0.5,1.2c0.3,0.4,0.6,0.6,1,0.8c0.4,0.2,1,0.3,1.6,0.3c1.2,0,2.4-0.3,3.6-1c1.2-0.7,2.3-1.6,3.3-2.7
		c1-1.1,1.9-2.4,2.6-3.7l0.5,0.4c-0.8,1.7-1.7,3.1-2.9,4.4s-2.4,2.2-3.8,2.9C320.1,46.8,318.7,47.1,317.3,47.1z M315.2,40
		c0.8-0.3,1.6-0.6,2.6-1.1c1-0.5,1.9-1.1,2.8-1.7c0.9-0.7,1.6-1.4,2.2-2.2c0.6-0.8,0.9-1.7,0.9-2.6c0-0.3-0.1-0.5-0.2-0.7
		s-0.4-0.3-0.7-0.3c-0.7,0-1.4,0.3-2.1,0.8c-0.8,0.5-1.5,1.2-2.2,2S317,36,316.5,37C315.9,38,315.5,39,315.2,40z"/>
</g>
<g class="st15">
	<path class="st14" d="M17.8,287.5c-0.6-0.4-1-0.8-1.2-1.2c-0.2-0.4-0.3-0.7-0.3-1c0-0.8,0.3-1.8,0.9-3.2c0.6-1.3,1.3-2.9,2.3-4.6
		c1-1.7,2-3.5,3.2-5.4c-1-0.1-1.9-0.1-2.6-0.2c-0.7,0-1.4,0-1.9,0h-1.5c0.3-0.8,0.8-1.4,1.6-1.7c0.8-0.3,1.7-0.5,2.8-0.5
		c0.5,0,1,0,1.5,0.1c0.5,0.1,1,0.1,1.6,0.2c1.4-2.2,2.9-4.2,4.4-6.3c1.5-2,2.9-3.8,4.2-5.4c1.3-1.6,2.4-2.8,3.3-3.6
		c0.8-0.8,1.5-1.2,2-1.2c0.3,0,0.7,0.1,1,0.4c0.4,0.2,0.8,0.6,1.2,1c-0.3,0.2-0.6,0.8-1.1,1.8c-0.4,1-0.9,2.2-1.4,3.6
		c-0.5,1.5-1,3.1-1.4,4.8c-0.5,1.7-0.9,3.5-1.3,5.3c-0.4,1.8-0.7,3.5-1,5.1c-0.2,1.6-0.4,3.1-0.4,4.3c0,1.1,0.1,1.9,0.4,2.5
		s0.6,0.9,1.2,0.9c0.7,0,1.6-0.5,2.5-1.5c0.9-1,1.9-2.6,3-4.7l0.4,0.4c-0.8,2.2-1.9,4.1-3.2,5.5c-1.3,1.4-2.7,2.1-4.1,2.1
		c-1.1,0-2-0.5-2.5-1.5c-0.5-1-0.8-2.4-0.8-4.1c0-0.9,0.1-1.9,0.2-2.9s0.3-2.2,0.5-3.3c-1.2-0.2-2.4-0.4-3.4-0.5
		c-1-0.1-2-0.2-2.8-0.4c-1.3,2.4-2.6,4.9-3.8,7.5C20,282.5,18.9,285,17.8,287.5z M31.6,271.8c0.4-1.8,0.9-3.7,1.5-5.6
		c0.6-1.9,1.2-3.7,1.8-5.4s1.2-3.2,1.8-4.5c-0.9,0.5-1.9,1.5-3,2.8c-1.1,1.4-2.3,3-3.6,5c-1.3,1.9-2.5,4.1-3.9,6.4
		c1,0.2,1.9,0.4,2.8,0.7C30,271.4,30.8,271.6,31.6,271.8z"/>
	<path class="st14" d="M43.5,285.8c-1.2,0-2.1-0.3-2.8-1c-0.6-0.7-1-1.7-1-3.1c0-1.2,0.2-2.8,0.7-4.6c0.5-1.8,1-3.7,1.7-5.6
		c-0.3-0.1-0.5-0.1-0.8-0.1c-0.3,0-0.5-0.1-0.7-0.2v-0.8c0.2,0,0.5,0.1,0.8,0.1c0.3,0,0.7,0.1,1,0.1c0.6-1.5,1.2-3,1.9-4.4
		c0.7-1.4,1.3-2.7,2-3.8c0.7-1.1,1.3-2,1.9-2.6c0.6-0.7,1.1-1,1.5-1c0.2,0,0.4,0.1,0.6,0.2c0.2,0.2,0.3,0.4,0.3,0.7
		c0,0.5-0.3,1.3-0.9,2.3c-0.6,1.1-1.3,2.4-2.2,3.8c-0.9,1.5-1.7,3.1-2.5,4.8c0.3,0,0.5,0,0.8,0s0.5,0,0.8,0c0.9,0,1.9,0,2.9,0
		c1,0,2.1-0.1,3.1-0.2v0.8c-1.5,0.2-2.9,0.3-4.1,0.4c-1.2,0.1-2.3,0.1-3.3,0.1c-0.1,0-0.2,0-0.3,0c-0.1,0-0.2,0-0.3,0
		c-0.6,1.5-1.2,3-1.6,4.6c-0.4,1.6-0.7,3.1-0.7,4.6c0,1.2,0.2,2.1,0.5,2.6c0.4,0.5,1,0.8,1.8,0.8c1.5,0,2.9-0.6,4.3-1.9
		c1.4-1.3,2.6-3,3.7-5.2l0.5,0.4c-0.7,1.6-1.5,3-2.5,4.2c-1,1.3-2.1,2.3-3.4,3C46,285.4,44.8,285.8,43.5,285.8z"/>
	<path class="st14" d="M56.4,285.7c-1.7,0-3-0.5-3.8-1.4c-0.9-0.9-1.3-2.1-1.3-3.5c0-1.3,0.3-2.6,0.9-4s1.5-2.7,2.5-3.9
		c1-1.2,2.2-2.2,3.5-3c1.3-0.8,2.5-1.2,3.7-1.2c0.6,0,1.2,0.2,1.8,0.5c0.5,0.3,0.8,1,0.8,2.1c0,1.1-0.3,2.1-0.9,3
		c-0.6,0.9-1.5,1.8-2.5,2.5c-1,0.7-2.1,1.3-3.4,1.8c-1.2,0.5-2.4,0.8-3.6,0.9c-0.1,0.3-0.1,0.5-0.1,0.8c0,0.3,0,0.5,0,0.7
		c0,0.4,0,0.8,0.1,1.3c0.1,0.4,0.3,0.8,0.5,1.2c0.3,0.4,0.6,0.6,1,0.8c0.4,0.2,1,0.3,1.6,0.3c1.2,0,2.4-0.3,3.6-1
		c1.2-0.7,2.3-1.6,3.3-2.7c1-1.1,1.9-2.4,2.6-3.7l0.5,0.4c-0.8,1.7-1.7,3.1-2.9,4.4c-1.2,1.2-2.4,2.2-3.8,2.9
		C59.2,285.4,57.8,285.7,56.4,285.7z M54.3,278.7c0.8-0.3,1.6-0.6,2.6-1.1c1-0.5,1.9-1.1,2.8-1.7c0.9-0.7,1.6-1.4,2.2-2.2
		c0.6-0.8,0.9-1.7,0.9-2.6c0-0.3-0.1-0.5-0.2-0.7c-0.1-0.2-0.4-0.3-0.7-0.3c-0.7,0-1.4,0.3-2.1,0.8c-0.8,0.5-1.5,1.2-2.2,2
		c-0.7,0.8-1.3,1.8-1.9,2.8C55,276.6,54.6,277.7,54.3,278.7z"/>
	<path class="st14" d="M69.3,285.1c-1.2,0-2.1-0.4-2.6-1.2c-0.5-0.8-0.8-1.9-0.8-3.1c0-1.3,0.3-2.9,0.8-4.8c0.5-1.8,1.2-3.8,2-5.8
		c0.8-2,1.7-4,2.7-6c1-1.9,2-3.7,2.9-5.3c1-1.6,1.9-2.9,2.7-3.8c0.8-1,1.5-1.4,2-1.4c0.3,0,0.6,0.2,0.8,0.5c0.2,0.4,0.4,0.8,0.5,1.3
		c0.1,0.5,0.2,0.9,0.2,1.3c0,0.8-0.2,1.7-0.6,3s-0.9,2.6-1.6,4.1c-0.7,1.5-1.5,3-2.4,4.5c-0.9,1.5-2,3-3.1,4.4
		c-1.1,1.4-2.3,2.6-3.5,3.6c-0.2,0.8-0.3,1.5-0.4,2.2c-0.1,0.7-0.1,1.4-0.1,2c0,1.1,0.2,1.9,0.5,2.4c0.3,0.5,0.8,0.8,1.4,0.8
		c0.8,0,1.5-0.3,2.2-1c0.7-0.7,1.4-1.5,2.1-2.5c0.7-1,1.2-2.1,1.7-3.2l0.6,0.3c-1.1,2.4-2.3,4.3-3.7,5.6
		C72.3,284.4,70.8,285.1,69.3,285.1z M69.6,274.9c1-1,1.9-2.1,2.9-3.4c0.9-1.3,1.8-2.6,2.6-4c0.8-1.4,1.5-2.7,2.1-4
		c0.6-1.3,1.1-2.4,1.4-3.5c0.3-1,0.5-1.8,0.5-2.4c0-0.3,0-0.5-0.1-0.5c-0.1-0.1-0.1-0.1-0.2-0.1c-0.2,0-0.6,0.4-1.2,1.1
		c-0.5,0.7-1.2,1.7-1.9,2.9c-0.7,1.2-1.5,2.6-2.2,4.1c-0.8,1.5-1.5,3.2-2.2,4.8C70.7,271.6,70.1,273.3,69.6,274.9z"/>
	<path class="st14" d="M78.8,285c-1.1,0-1.9-0.3-2.4-1c-0.5-0.7-0.8-1.5-0.8-2.5c0-0.6,0.1-1.5,0.4-2.4c0.2-1,0.6-2,0.9-3.1
		c0.4-1.1,0.8-2.1,1.4-3c0.5-1,1.1-1.7,1.7-2.3c0.6-0.6,1.2-0.9,1.7-0.9c0.3,0,0.5,0.1,0.7,0.2c0.2,0.2,0.3,0.4,0.3,0.7
		c0,0.3-0.2,0.9-0.7,1.6s-0.9,1.6-1.5,2.6c-0.6,1-1.1,2-1.5,3.1c-0.4,1.1-0.7,2.1-0.7,3.1c0,1,0.2,1.7,0.5,2s0.9,0.5,1.6,0.5
		c1,0,2-0.5,3-1.4c1.1-1,2.2-2.6,3.4-5l0.4,0.4c-0.8,2.4-2,4.3-3.5,5.5C82,284.3,80.4,285,78.8,285z M83.8,265.7
		c-0.4,0-0.8-0.1-1.2-0.3c-0.4-0.2-0.5-0.6-0.5-1c0-0.6,0.3-1.1,1-1.5c0.7-0.4,1.4-0.7,2-0.7c0.4,0,0.8,0.1,1,0.3
		c0.3,0.2,0.4,0.5,0.4,1c0,0.5-0.3,1-0.9,1.5C85.1,265.5,84.5,265.7,83.8,265.7z"/>
	<path class="st14" d="M90.4,285.7c-1.7,0-3-0.5-3.8-1.4c-0.9-0.9-1.3-2.1-1.3-3.5c0-1.3,0.3-2.6,0.9-4s1.5-2.7,2.5-3.9
		c1-1.2,2.2-2.2,3.5-3c1.3-0.8,2.5-1.2,3.7-1.2c0.6,0,1.2,0.2,1.8,0.5c0.5,0.3,0.8,1,0.8,2.1c0,1.1-0.3,2.1-0.9,3
		c-0.6,0.9-1.5,1.8-2.5,2.5c-1,0.7-2.1,1.3-3.4,1.8c-1.2,0.5-2.4,0.8-3.6,0.9c-0.1,0.3-0.1,0.5-0.1,0.8c0,0.3,0,0.5,0,0.7
		c0,0.4,0,0.8,0.1,1.3c0.1,0.4,0.3,0.8,0.5,1.2c0.3,0.4,0.6,0.6,1,0.8c0.4,0.2,1,0.3,1.6,0.3c1.2,0,2.4-0.3,3.6-1
		c1.2-0.7,2.3-1.6,3.3-2.7c1-1.1,1.9-2.4,2.6-3.7l0.5,0.4c-0.8,1.7-1.7,3.1-2.9,4.4c-1.2,1.2-2.4,2.2-3.8,2.9
		C93.2,285.4,91.8,285.7,90.4,285.7z M88.4,278.7c0.8-0.3,1.6-0.6,2.6-1.1c1-0.5,1.9-1.1,2.8-1.7c0.9-0.7,1.6-1.4,2.2-2.2
		c0.6-0.8,0.9-1.7,0.9-2.6c0-0.3-0.1-0.5-0.2-0.7c-0.1-0.2-0.4-0.3-0.7-0.3c-0.7,0-1.4,0.3-2.1,0.8c-0.8,0.5-1.5,1.2-2.2,2
		c-0.7,0.8-1.3,1.8-1.9,2.8C89.1,276.6,88.6,277.7,88.4,278.7z"/>
	<path class="st14" d="M107.1,285c-1,0-1.7-0.3-2.2-0.8s-0.8-1.2-0.8-2c0-0.8,0.2-1.7,0.6-2.6c0.4-0.9,0.8-1.8,1.2-2.8
		c0.4-0.9,0.6-1.7,0.6-2.5c0-0.9-0.3-1.6-0.8-2c-0.5-0.4-1-0.8-1.6-1.2c-0.6,1.7-1.3,3.2-2,4.7c-0.7,1.5-1.3,2.6-1.7,3.4l-0.4-0.7
		c0.4-0.7,0.9-1.8,1.5-3.2c0.6-1.4,1.3-3,1.9-4.8c-0.3-0.3-0.4-0.6-0.4-1c0-0.8,0.2-1.5,0.7-2.1c0.5-0.5,0.8-0.8,1.1-0.8
		c0.3,0,0.5,0.1,0.5,0.4c0,0.3,0.1,0.5,0.1,0.6c0,0.1-0.1,0.4-0.2,0.8c-0.2,0.4-0.2,0.7-0.2,0.7c0,0.4,0.2,0.8,0.7,1.1
		c0.4,0.3,0.9,0.7,1.5,1.1c0.6,0.4,1.1,0.9,1.5,1.5c0.4,0.6,0.7,1.3,0.7,2.2c0,0.8-0.2,1.7-0.5,2.6s-0.7,1.7-1,2.5
		c-0.4,0.8-0.5,1.5-0.5,2.1c0,0.5,0.1,0.8,0.4,1s0.5,0.3,0.9,0.3c0.7,0,1.4-0.2,2.1-0.6s1.4-1,2.1-1.6c0.7-0.6,1.3-1.3,1.8-2
		c0.5-0.7,0.9-1.4,1.2-2l0.5,0.4c-0.5,1.2-1.3,2.3-2.2,3.5c-0.9,1.1-2,2.1-3.1,2.8C109.5,284.6,108.3,285,107.1,285z"/>
</g>
</svg>
