<?xml version="1.0" encoding="utf-8"?>
<!-- Generator: Adobe Illustrator 25.2.0, SVG Export Plug-In . SVG Version: 6.00 Build 0)  -->
<svg version="1.1" xmlns="http://www.w3.org/2000/svg" xmlns:xlink="http://www.w3.org/1999/xlink" x="0px" y="0px"
	 viewBox="0 0 372 372" style="enable-background:new 0 0 372 372;" xml:space="preserve">
<style type="text/css">
	.st0{fill:#82B657;}
	.st1{fill:#ACDB52;}
	.st2{fill:#A1CE57;}
	.st3{fill:#4A0D17;}
	.st4{fill:#400F18;}
	.st5{fill:#BE1F1F;}
	.st6{fill:#A91F1F;}
	.st7{fill:#3FA4A4;}
	.st8{fill:#EAD015;}
	.st9{fill:#FF9517;}
	.st10{fill:#FF646B;}
	.st11{fill:#DA0B00;}
	.st12{fill:#EDB720;}
	.st13{fill:#168992;}
</style>
<g id="Calque_1">
	<g id="Groupe_321" transform="translate(-1.306 114.314)">
		<g id="Groupe_292_1_" transform="translate(1.306 115.746)">
			<path id="Tracé_238_1_" class="st0" d="M111.3,90.3c-1.9,1.3-4.6,1.2-6.2,3.2c2.7,0.7,5.4,0.2,8,1.3c2.1,0.9,3.9,1.9,6.4,1.5
				c-3.1,1.1-6.8,1-9.8,3.7c0.9,1.2,2.3,1.2,3.6,1.3c-0.3,0.3-0.5,0.6-0.7,1c0.6,0.1,1.1,0.9,1.7,1c-0.1,0.2-0.1,0.5-0.2,0.7
				l0.1-0.3l0.2,0.8c2.6,1.4,5.6,1.9,8.5,1.4c6.2-0.6,8.7,8.9,15,7.6c3.9-1,7.1,0.8,10.5,2.6c3.3,1.8,6.7,3.7,10.6,3.3
				c14.3-1.9,28.1-6.4,41.3-1.9c12.6,4.2,17.1,9.9,28.3,7.4c11.2-2.5-5.2-11.9,7.8-12.4c33.6-1.3,59.4-11.7,68.2-19.4
				c6.4-5.5,21.3-14.6,22.9-23.6c-5.8,7.9-14.8,13.1-23.4,16.9c15.3-13.7,31.1-28.2,40.9-45.6c-10,15.6-23.5,28.6-39.6,37.9
				c-15.8,9.1-37.4,20.4-62.3,14c27.4-0.7,49.3-8.5,67.4-21.2c18.1-12.6,33.3-29.8,37.8-49.1c0.7-3.1,1-6.2,0.8-9.4
				c-1.6,20.5-15.5,38.2-32.9,51c-17.5,13-36,17-70.3,14.8c-19.9-1.2-49.7-17.1-49.7-17.1c-22-1.3-63.5,22.4-86.1,28
				C110.6,89.7,111,90,111.3,90.3z"/>
			<path id="Tracé_239_1_" class="st1" d="M172.4,81.3c-42.6-24.6,28.9,6.8,65.6-17.4c-8.8,5.8-15.9-11.2-20.7-15.9
				c-23.2-8.2-21.3,16.2-44,10.3c-5.1-1.4-9-3.3-15.4-5.2c-9.3-2.8-20.9-5.2-27.5-5c-13.8,0.4-17.9,4.8-25.2,20.6
				c7,4.9,15.5,4.6,22.1,10.4c-3,2.1-6.5,4.6-9.9,5.2c3,1.3,6.2,4.3,9.3,3.5L172.4,81.3z"/>
			<path id="Tracé_240_1_" class="st2" d="M78.1,44.2c1.5,0.8,3.7,1.8,4.4,3.2"/>
			<g id="Groupe_290_1_" transform="translate(24.207 22.225)">
				<path id="Tracé_241_1_" class="st2" d="M254.3,70.9c2.1-1,4.1-2.4,5.8-4c-12.7,8.8-31.8,11.3-50.5,10.1
					c-18.8-1.2-39.7-8-57.3-16c-16.4-7.3-30.9-15.2-46.7-20.3c-3.9-2.1-7.8-4-11.7-5.9c-8-4-15.8-7.8-24.2-11.1l-6.5-2.6
					c-2.6-1-5.3-1.7-8-2.3c-0.2,0-0.5-0.1-0.7-0.1l-6.4-2.6c-3.1-1.2-6.4-2.1-9.7-2.8c-7.1-1.2-15.3-1-25.4,3.9
					c2,2.3,6.8,2.9,8.2,5.5c-2.5,0.6-5,0.9-7.5,1c1.2,0.7,1.8,2,3.8,2c-1.9,0-3.8,0.5-5.6,1.3c0.9,1.3,5.2,0.7,7.3,0.6
					c1.2,0,7.8-1.2,8-0.2c-5.1,1.1-10.6,1.6-16.1,3.3c0.6,0.6,1.6,0.9,2,1.7c-2.4,0.5-4.8-0.2-7.2,1c2.2,1.1,4.9,1.4,6.9,2.8
					c1.6,1.1,2.8,2.3,5.2,2.5c-3.3,0.1-6.8-0.8-10.8,0.5c0.3,1.1,1.6,1.4,2.8,1.7c-0.4,0.1-0.7,0.3-1.1,0.6c0.4,0.2,0.6,0.9,1.1,1.1
					C10,43,9.8,43.2,9.7,43.3l0.2-0.2l31.8,6.9c0.9,1.7,1.8,3.4,4.5,3.6c3.4,0.1,5.2,1.8,7,3.5c1.9,1.7,3.7,3.5,6.9,3.9
					c11.6,1.5,23.8,1.4,32.2,6.5c8,4.9,13.3,1,22,4.3c8.7,3.4,11,7.5,20,12.3c10.5,5.6,37.5,3.9,47.6,4c7.3,0.1,22.2,1.9,28.4-1.6
					c-8.3,1.3-17.1,0-24.9-1.7c17.8-0.1,36.4-0.3,52.7-4.4c-15.6,3.2-31.7,3.6-47.4,1.4c-15.5-2.2-36.1-5.8-48.6-18.8
					c17.3,7.8,40.5,13.6,59.6,15.1C220.6,79.7,240.3,78,254.3,70.9z"/>
				<path id="Tracé_242_1_" class="st2" d="M9.7,43.4l-0.7,0.6C9.2,43.8,9.4,43.6,9.7,43.4z"/>
			</g>
			<g id="Groupe_291_1_" transform="translate(0 6.993)">
				<path id="Tracé_243_1_" class="st2" d="M16.3,42.9c0.3,0.9-0.8,0.3-1.1,0.7c0.3,0.3,0.9-0.3,1.1,0.3c-0.3,0.4-0.8,0.5-1.3,0.3
					h-0.1c0.7,0.5,2.2,0,2.6,1.1c-0.3,0-0.6,0.5-0.3,0.7c1,0.1,1.4,1,2.3,1.2l-0.4,0.3c0.9,0.1,1.8,0.2,2.6,0.2
					c-0.6,1,1.5,0.2,1.3,1c0.5-0.6,1.2-1,1.5-0.5c1-0.6,2.3-1.6,2.3-2.9c0.4-0.7-0.2-0.8-0.3-1.7l-0.2,0.2c-0.1-0.3-0.5-0.6-0.1-0.9
					c-0.5-0.1-0.9-0.4-1.1-0.9c0-0.6-0.5-1.2-1-1c-0.2-0.1-0.1-0.3-0.1-0.4c-0.3,0-0.5-0.1-0.7-0.3c-1.2-0.4-2.5-0.6-3.7-1.6
					l0.4,0.2l-0.2,0.5l-1-1c0.1,0.5,0.9,1,0.6,1.5c-0.4,0.3-0.8-0.1-1.2-0.1l0.4,0.3c-0.4,0.5-1.1-0.4-1.7,0.1
					c0.7,0.8,0.1,1.3-0.5,1.7l-1.4,0C15.5,41.7,16.1,42.2,16.3,42.9z"/>
				<path id="Tracé_244_1_" class="st2" d="M61.8,80.7l-0.3,0c0.4,0.1,0.6,0.6,0.9,0.9c-0.2,0.2-0.3,0.3-0.6,0.3l-0.1-0.1
					c0.1,0.2,1,0.1,0.6,0.8l-0.2,0.1c1.2-0.1,1.4,1.1,2.5,1c0.8,1.2,2,0,2.8,0.1c0-0.5,0.5-0.6,0.7-0.9l0.1-2.4
					c-0.4-0.3-0.6-0.8-1-1.3c0.7-0.3,1.4-0.9,1.7-1.6c0.6-1.3-0.8-1.5-1.1-2.5c-0.6,0.3-1.2-0.1-1.7-0.4L66,74.2
					c0.5,1.1-1.2,0.6-1.8,0.8l-0.4,0c0.2,0.2,0.7,0.2,0.6,0.6l-1-0.1c0.2,0,0.4,0.2,0.6,0.3l-0.3,0.4c0.2,0,0.3,0.2,0.4,0.3
					c0,0.2-0.2,0.3-0.3,0.4l0.4,0.3c-0.4,0.3-0.8,0.4-0.6,1l-1.4,0.1l0.4,0.3C62.6,79,62.3,79.1,62,79l-0.1-0.1l0.3,0.4l-1,0
					C61.3,79.8,62.6,80.1,61.8,80.7z"/>
				<path id="Tracé_245_1_" class="st2" d="M8,36.8l0.1,0.4c-0.2,0.2,1.3-0.5,1.6,0.3c3.4-0.8-0.3-4.9,4-4.8c-0.2-2,2.1-3.1,0.5-5
					c-1.4-1.3-3.5-0.8-5-0.2l-2.1,1.3c0.4,0.2,0.2,0.7-0.1,0.9l-0.7,0.7c1.8,0.5-0.6,1.4-0.2,2.4l0.2-0.2c1.2,1.2-0.7,1.8-0.1,3.1
					L6,36.5C6.5,37.1,7.3,36.6,8,36.8z"/>
				<path id="Tracé_246_1_" class="st2" d="M19.4,71.4c-0.4,0.2,0.7,0.2,0.1,0.6c0.6,0,0.5,0.7,1,0.8L20.4,73
					c1-0.4,0.8,1.5,2.3,0.6c0.7,0.8,1.2-0.7,1.8-0.4c0.8-0.7,1-1.9,0.5-2.8c-0.6-1-0.4-0.3-1.2-1.3l-0.5-0.4c-0.3,0.9-0.7-1-1.2,0
					c-0.5-0.1-0.7-0.4-1.2-0.3c0.1,0.1,0.2,0.3,0.2,0.4c-0.3,0.3-0.7,0.1-1,0.2l0.1,0.4l-0.7,0.3c0.2,0.1,0.2,0.2,0.2,0.4l-0.4,0.1
					C19,70.8,20.2,70.8,19.4,71.4z"/>
				<path id="Tracé_248_1_" class="st2" d="M37.7,46.6l0,0.4c0.5-0.2,0.3,0.4,0.6,0.6c0.8,0,2,0.2,2.2-0.6l-0.3-1.3
					c-0.4,0.2-0.8-0.4-1.2-0.6c0.1,0.5-0.8,0.1-0.7,0.2l0.1,0.2c-0.5,0.1-0.6,0.3-1.1,0.7c0.2-0.1,0.3,0,0.4,0.2
					C37.8,46.4,37.8,46.5,37.7,46.6z"/>
				<path id="Tracé_249_1_" class="st2" d="M38,45.9V46l0.6,0v-0.1L38,45.9z"/>
				<path id="Tracé_250_1_" class="st2" d="M42.1,14.8c0.8,0,1.6-0.7,1.1-1.5c-0.4-0.4-1.1-0.6-1.6-0.4
					C40.8,13.2,40.8,15,42.1,14.8z"/>
				<path id="Tracé_251_1_" class="st2" d="M55.5,61.8c-0.1,0.4,0,0.3,0.1,0.8c0.4,0.2,1.2,0.4,1.6,0c0.3-0.4,0.3-1,0-1.4
					c-0.5-0.4-0.4-0.2-1-0.5c-0.4,0.3-1,0.4-1,1.1L55.5,61.8z"/>
				<path id="Tracé_252_1_" class="st2" d="M58.8,64c0.1-0.3-0.1-0.4-0.3-0.6c-0.2,0-0.6,0.2-0.4,0.6L58.8,64z"/>
				<path id="Tracé_253_1_" class="st2" d="M45.5,39.8c0.3,0.4,0.8,0.5,1.3,0.5c0.1-0.3,0.5-0.5,0.2-0.8c-0.3-0.3-0.8-0.5-1.2-0.5
					c-0.1,0.2-0.5,0.4,0,0.7L45.5,39.8z"/>
				<path id="Tracé_254_1_" class="st2" d="M46.3,39.5l0.2-0.1c0.3,0.2-0.6-0.6-0.6,0.1C46,39.9,46.1,39.6,46.3,39.5z"/>
				<path id="Tracé_255_1_" class="st2" d="M61.3,31.2l-0.7,0.2c0.5-0.1,0.8,0.3,1.1,0.7c0,0.2-0.1,0.3-0.2,0.4
					c0.4-0.1,0.6,0.2,1,0.4l-0.3,0.5c1.5-0.1,3.9,1.1,4.9-1l-0.2-2.3l-0.1,0.1c-0.4-1.1-1.2-1.2-1.7-2.1l0-0.3l-0.7,0.5
					c-0.3-0.4-0.2,0.2-0.6,0.1l-1.1-0.7c-0.1,0.2,0.2,0.3,0.3,0.4c-0.3,0.5-0.6,0.1-0.9-0.1c0.2,0.5-0.4,0.9-1,1.6
					c-0.1-0.2-0.3-0.1-0.5-0.1c0.3,0,0.4,0.3,0.6,0.4v0.1l-1,0.1C60.4,30.8,61.4,30.4,61.3,31.2z"/>
				<path id="Tracé_256_1_" class="st2" d="M76.2,27.8c0.4,0.3,0.4,0.5,0.1,0.8l-0.2,0.2c-0.2-0.1,0.5,0.2,0.6-0.1
					c0.3,0.3,0.1,1,0.8,0.8c0.4,0.4-0.3,0.6-0.3,1c0.7,0.1,0.7-0.7,1.4-0.3c0.6,1.5,1.8-0.2,2.5,0.5c0.1,0,0.8,0.1,0.8-0.4
					c0.2,0,0.3,0.3,0.4,0.3c0.7-0.2,0.9-1.5,1.4-1.4c0.4-0.2,0.4-0.6,0.7-0.8c-0.1-0.3,0.1-0.6,0.3-0.7c-0.9-0.6,1-0.8-0.1-1.2
					c-0.2-0.4,0.4-0.6,0.5-0.7c-0.3-0.1-0.6,0.3-1-0.1c1.1-0.9-0.8-1-0.3-2.2c-0.3,0.3-0.6-0.1-0.7-0.3l0-0.3
					c-0.7,0.5-1-0.6-1.5-0.7c-0.3-0.3-1.4,0.9-2.1-0.3c-0.5-0.3-0.7,1.5-1.6,0.6L77.8,22c-0.4,0.5,0.7,0.7,0.1,1.1
					c-0.6,0.2-0.4-0.4-0.8-0.6c0.1,0.2,1,1.4-0.2,1.5l-1-0.4c0.2,0.4,0.4,0.8,0.5,1.2c-0.3,0.7-1-0.3-0.9,0.2
					c0.3,0.2,0.7,0.3,0.5,0.8l-1,0.5C76,26.4,75.5,27.6,76.2,27.8z"/>
				<path id="Tracé_257_1_" class="st2" d="M79.4,75.5c0.1-0.3,0.4-0.4,0.3-0.8c-0.3-0.6-1-0.3-1.1,0
					C79.1,75.2,78.6,75.5,79.4,75.5z"/>
				<path id="Tracé_258_1_" class="st2" d="M95.3,49.2c0.4-0.1,0.7,0.1,1-0.4c-0.2-0.2-0.1-0.8-0.5-0.9l-0.4,0
					c-0.3,0.3,0.8,0.5-0.1,0.8l-0.3-0.4C95.1,48.7,95,49,95.3,49.2z"/>
				<path id="Tracé_259_1_" class="st2" d="M95.4,33c0,0.4,0.1,0.8,0.2,1.1c0.6,0.5,1.4,0.8,2.2,0.8c1-0.7,1.6-0.9,1.5-2
					c0.5-0.3-0.6-0.8,0.2-1c-0.3-0.2-1.2-0.4-0.6-1c0.1,0.4-0.9,0-1.1-0.1l0-0.2c-0.2,0-0.3,0.4-0.6,0.2c-0.2-0.7-0.6,0.2-1.1-0.1
					c0.2,0.1,0.1,0.3,0.1,0.5c-0.1,0.2-0.5,0-0.7,0.1l-0.1-0.1l0.3,0.3l-0.6,0.7l0.3,0.3l-0.4,0.1L95.4,33z"/>
				<path id="Tracé_260_1_" class="st2" d="M106.7,41c0.2,0.3,1.1,0.1,0.9,0.8c0.2-0.1,0.4,0.2,0.5,0.4l0,0.3
					c0.1-0.3,0.4-0.1,0.6-0.1c0.2,0.1,0,0.4,0.1,0.6c0.2-0.2,0.4-0.1,0.6-0.4l0.5,0.3c0-0.2,0.2-0.2,0.3-0.4
					c0.8,0.6,1.2-0.5,1.8-0.6c0.6-0.2,0.1-1.3,1-1.3c-0.9-1.2,0.6-1.8-0.5-3.2c-0.1,0-0.3-0.1-0.4,0.1c-0.4-0.2-0.2-0.7-0.1-0.9
					c-0.3,0-0.4,0.2-0.6,0.4c-0.3-1.2-1.4-0.4-1.9-0.9c0,0.5-0.6,0-0.8,0.3l-0.3-0.3l0.1,0.6c-0.3-0.1-0.6,0.2-0.8-0.4
					c-0.3,0.6,0,1.6-0.9,1.3c0.3,0.2,0.2,0.6,0.2,0.9C105.8,38.9,107.5,40.3,106.7,41z"/>
				<path id="Tracé_261_1_" class="st2" d="M36.7,83.5c0.6-0.1,1.4,0.4,1.7-0.6c0-0.8-0.2-2.3-1.3-1.8l-0.3-0.3L36,81.5
					c0.4,0.5-0.6,0.9,0,1.4C36.3,83,36.8,83.1,36.7,83.5z"/>
				<path id="Tracé_262_1_" class="st2" d="M40,82l0.8,0.3L40,82z"/>
				<path id="Tracé_263_1_" class="st2" d="M42.4,82.9l-1-0.5v0.2l-0.3-0.2l0,0.3L42.4,82.9z"/>
				<path id="Tracé_264_1_" class="st2" d="M43.8,84.3c-0.1-0.1-0.2,0-0.3,0.1c0.2,0.1,0.4,0.1,0.5,0.3L43.4,85
					c0.6,0.1,0.8,0.6,1,1.1l-0.1,0.1c0.9,0.7,2,1,3.1,0.8c0.7-0.4,1.4-1.3,2.3-1c0.3-0.5-0.6-0.4-0.1-0.7s0.6-1.3,1-1.9
					c-0.8-0.6-0.6-1.1-0.8-1.9c-0.2-0.3-0.9-0.3-0.6-0.9l-0.4,0.4c-0.5-0.3-0.1-0.9-0.2-1.3L48,80.2c-0.3-0.7-1.4-0.6-1.8-0.8
					c-0.6,0.8-1.5-0.3-1.9-0.8c-0.3,0.5,0.9,1.5,0.1,2.1c-0.1-0.1-0.2-0.4-0.4-0.3c-0.7,0.6,0.8,1.1,0,1.5l-1.3-1.2
					C43.3,82,44.4,82.7,43.8,84.3z"/>
				<path id="Tracé_265_1_" class="st2" d="M42.9,83.1l0.6,0.3L42.9,83.1z"/>
				<path id="Tracé_266_1_" class="st2" d="M48.7,77.6L48.7,77.6l-0.1,0.5L48.7,77.6z"/>
			</g>
		</g>
		<g id="Groupe_296_1_" transform="translate(184.501 7.021)">
			<path id="Tracé_267_1_" class="st3" d="M162.8,61.5c0.5,0.2,1.1,0.5,1.7,0.7c2.2,0.9,4.8,2.3,7.3,2.4c5.3,0.1,11-5.1,12.9-10.2
				c0.6-1.3,0.9-2.8,0.8-4.3c0-0.9-0.6-1.7-1.4-2c-1.5-0.4-2.8,1-3.1,2.8s0.2,3.6-0.2,5.4c-0.6,2.6-2.7,4.7-5.3,5.4
				c-2.3,0.5-4.7,0.2-6.9-0.8c-2.2-0.8-4.3-1.8-6.3-3c-0.5-2.2-1.2-4.3-2-6.4c1-2.8,0-6.9-2.8-10.2l0,0l0,0l0,0l0,0
				c-3.2-3-7.2-4.2-10.1-3.3c-2-1-4.1-1.8-6.3-2.3c-1.1-2.1-2-4.2-2.7-6.4c-0.9-2.2-1-4.6-0.4-6.9c0.8-2.6,3-4.5,5.7-5.1
				c1.8-0.3,3.6,0.3,5.4,0.1s3.3-1.5,2.9-3c-0.2-0.7-0.8-1.3-1.9-1.5c-1.5-0.2-3,0.1-4.3,0.6c-5.2,1.7-10.6,7.1-10.8,12.4
				c-0.1,2.5,1.2,5.1,2,7.4c0.2,0.6,0.4,1.1,0.7,1.7c-4.5-0.7-9-0.6-13.4,0.5c7.6,4.7,17.4,12.6,23.1,22.5
				c4.3,9.6,5.6,15.4,9.9,23.3C161.3,74.7,163.3,65.9,162.8,61.5z"/>
			<path id="Tracé_268_1_" class="st4" d="M81.6,129.3C35,152.6,6,153.4,6,153.4c10.3,16.3,40,39.7,96.6,10.6
				c22-11.3,56.7-46,41.6-85.7C144.2,78.3,120.9,109.6,81.6,129.3z"/>
			<path id="Tracé_269_1_" class="st5" d="M91.4,120.2c-44.9,31-83,41.1-83,41.1c13.3,15.3,55.5,37.4,109.9-1.1
				c21.2-15,51.9-56,29.9-94.8C148.1,65.4,129.3,93.9,91.4,120.2z"/>
			<g id="Groupe_294_1_" transform="translate(12.61 42.632)">
				<path id="Tracé_270_1_" class="st6" d="M78.8,77.5C37.5,113.2,6,125.9,6,125.9c14.9,13.8,64.1,35.8,114-8.4
					c19.4-17.2,41.3-68,12.9-104.7C133,12.8,113.7,47.3,78.8,77.5z"/>
				<g id="Groupe_293_1_" transform="translate(31.258 112.437)">
					<path id="Tracé_271_1_" class="st7" d="M34.9,29.7c-1.5-0.3-1-1.8-1.4-2.8c0.4-0.1,0.9-0.6,1.3-0.5c0.2-1.1-0.9-0.6-1.6-1
						c-1.3-1,1.2-1.7,0.8-2.2c-1.4-0.4-2.6-1-3.8-1.9c0.1-0.9,0.2-1.8,0.4-2.7c-0.4-0.6-1.2-0.1-1.8-0.3c0-0.8,0.9-1.8-0.1-2.6
						c-1.4,0.8-2.1-0.6-3.3-0.7c-1.2-0.1,0.6-2.4-0.4-2.2c-1.1,0.2-0.3,1.4-1.1,1.8c-0.8,0.1-1.6,0.1-2.4-0.3l0-1.5
						c-1.7,1.1-3.6,1.9-5.6,2.4c-0.1-0.5,0-1.3-0.8-1.5c-0.5,0.6-0.1,1.2-0.4,1.8c-2.6,0-2.4,3.5-4.4,2.9c-1,0.3,0.3,0.9,0.2,1.5
						c-0.3,1.3-1.2-0.1-2,0.4c-0.1,0.5,0.7,0.7,0.8,1.1c0.2,1.9-1.9,0.9-2.6,1.5c0.2,0.7,1.5,0.1,1.6,0.9c-1.2,1-0.5,2.8-2.2,3.5
						c1.4-0.1,1.3,1.2,1.9,2C7.6,29.5,7.2,30,6.8,30c0,0.8,0.6,0.5,1.2,0.5c-0.1,0.2-0.2,0.4-0.2,0.6c10.8,1.7,16.6,0.7,25.4,0
						C33.4,30.3,34.1,29.8,34.9,29.7z"/>
				</g>
				<path id="Tracé_272_1_" class="st8" d="M100.7,85.6c-2.4-1.1,0.8-2.2,0.7-3.4c-1.1,0-0.9,2.3-2.6,1.6c-0.2-1.3,0.6-2.6,1.8-3
					l0.2-0.2c-2.2,0.3-3.9,4.3-6.8,2.8c0.5-0.6,0.2-2-0.8-1.8c-1.9,1.8-4.3,0.9-6.4,2.3l0.2-1.3c-1.9,1-3.3,3.3-5.1,4.8
					c-0.7-3-3,2.5-4.3,0.6c0.4,2.1-0.3,4-1.7,3.9c-0.7,2.9-1.1,7.3,1.4,9.6c0.6,2.1,1.9,1.2,3.9,2.6l0-0.7c0.7,0.4,2,0.2,1.9,1.4
					c1.1-0.8,2.4-1,3.7-0.6c1.1,1.1,3.3,1.2,3.8-0.1c0.6-0.1,0.8,0.3,1,0.5c0.5-0.6,1.2-0.9,1.9-0.8c3-1.5,5.7-3.8,9.9-4.2L102,100
					l-0.5-1.3l3.8-0.1c-1.2-0.7-3.6-0.1-4-1.7c0.1-1.4,1.7-1.5,2.5-2.2l-1.3,0.2c-0.2-1.6,2.8-1.5,2.9-3.5c-2.9-0.1-2.8-2.1-2.3-4.1
					l2.6-2.7C104.6,85.9,102.3,86.6,100.7,85.6z"/>
				<path id="Tracé_273_1_" class="st9" d="M136,42.9c0.1-0.1,0.2-0.4,0.4-0.5c-0.2-0.5-0.5,0-0.9,0.1c-0.7,0,0-1-0.3-1
					c-0.6,0.2-1.2,0.3-1.9,0.3c-0.2-0.4-0.4-0.7-0.6-1.1c-0.3-0.1-0.5,0.3-0.7,0.4c-0.2-0.3-0.1-0.9-0.7-0.9
					c-0.3,0.7-0.9,0.3-1.4,0.6c-0.5,0.3-0.4-1.1-0.7-0.7c-0.3,0.4,0.3,0.6,0.1,1c-0.2,0.3-0.7,0.4-0.9,0.5l-0.4-0.6
					c-0.3,0.9-0.8,1.7-1.5,2.4c-0.2-0.2-0.3-0.5-0.7-0.3c0,0.3,0.3,0.5,0.3,0.8c-0.9,0.7,0,1.9-0.9,2.2c-0.3,0.4,0.3,0.3,0.4,0.5
					c0.2,0.6-0.5,0.3-0.6,0.7c0.1,0.2,0.4,0.1,0.6,0.2c0.6,0.6-0.5,0.8-0.6,1.2c0.3,0.2,0.6-0.4,0.8-0.1c-0.2,0.7,0.5,1.2,0.1,1.9
					c0.5-0.4,0.8,0.1,1.2,0.2c-0.1,0.1-0.1,0.4-0.2,0.6c0.2,0.3,0.4,0,0.6-0.2c0.1,0.3,0.2,0.6,0.2,1c0.3,0.2,0.6-0.2,0.9-0.2
					c0.2,0.4-0.1,1.1,0.5,1.2c0.5-0.6,1-0.1,1.6-0.2c0.6-0.2,0.2,1.3,0.6,1c0.4-0.3-0.2-0.7,0.2-1.1c0.3-0.3,0.8-0.2,1.1-0.3
					l0.3,0.8c0.5-0.8,1.3-1.6,2.1-2.1c0.1,0.2,0.2,0.7,0.6,0.6c0.1-0.4-0.2-0.6-0.2-1c1.2-0.4,0.4-2.1,1.4-2.1
					c0.4-0.3-0.3-0.4-0.4-0.7c-0.1-0.7,0.6-0.2,0.8-0.5c-0.1-0.3-0.4-0.2-0.6-0.4c-0.5-0.9,0.7-0.7,0.9-1.2
					c-0.2-0.3-0.7,0.2-0.9-0.2c0.3-0.7-0.3-1.5,0.3-2.1C136.6,43.8,136.4,43.1,136,42.9z"/>
			</g>
			<g id="Groupe_295_1_" transform="translate(132.218 110.373)">
				<path id="Tracé_274_1_" class="st10" d="M21.2,16c-0.1-0.6-0.5,0.1-0.8-0.1c-0.7-0.3,0.1-0.7,0-1.1c-0.3-0.1-0.4,0.3-0.6,0.3
					c-1,0-0.3-1.1-0.5-1.6c-0.4,0-0.2,0.8-0.6,0.8c-0.4-0.7-1.4-0.6-1.6-1.5c-0.1,0.8-0.7,0.6-1.2,0.8c0-0.2-0.3-0.4-0.3-0.7
					c-0.5-0.1-0.2,0.5-0.4,0.9c-0.4,0.7-0.8-0.6-1-0.3c-0.1,0.6-0.3,1.2-0.6,1.8c-0.4-0.2-0.9-0.5-1.3-0.8c-0.4,0.1-0.3,0.6-0.6,0.9
					c-0.5-0.2-0.8-0.9-1.4-0.6c0.1,1-0.8,1-1.1,1.6c-0.3,0.6-1.2-0.9-1.3-0.4c-0.1,0.6,0.7,0.5,0.7,1c0,0.5-0.5,0.9-0.7,1.2L7,17.9
					c0.2,1.2,0.2,2.4,0,3.6c-0.3-0.1-0.7-0.4-1,0c0.2,0.4,0.6,0.3,0.9,0.7c-0.6,1.4,1.4,2.1,0.6,3.1c-0.1,0.6,0.6,0.1,0.9,0.3
					C9,26.1,8,26.2,8.1,26.8c0.3,0.2,0.5-0.2,0.8-0.2c1.1,0.3,0,1.2,0.2,1.8c0.5,0.1,0.4-0.8,0.9-0.6c0.3,0.9,1.4,1,1.4,2
					c0.3-0.8,1-0.4,1.5-0.5c0,0.2,0.2,0.5,0.1,0.8c0.5,0.2,0.4-0.3,0.6-0.7c0.3,0.1,0.5,0.1,0.8,0.2c0.1,0.2,0.2,0.4,0.3,0.3
					c0-0.1,0.1-0.2,0.1-0.3c0.2,0,0.4,0,0.7,0c2.2-4.1,4.1-8.4,5.8-12.7C21.1,16.7,21,16.3,21.2,16z"/>
			</g>
			<path id="Tracé_275_1_" class="st4" d="M95.2,117.4c-6.5,4.9-13.1,9.7-19.9,14.1c-1.7,1.1-3.4,2.2-5.1,3.3l-5.2,3.1
				c-1.7,1.1-3.5,2-5.3,3c-1.8,1-3.5,2-5.3,3c-7.2,3.9-14.5,7.5-22,10.7c-7.5,3.3-15.1,6.2-22.9,8.6l0.5-2c4.2,3.6,8.6,6.8,13.3,9.7
				c4.6,2.9,9.5,5.5,14.5,7.8c10,4.5,20.7,7.3,31.7,8.2c11,0.9,22-0.4,32.5-3.8c5.3-1.7,10.4-3.8,15.3-6.4c4.9-2.6,9.6-5.5,14.1-8.7
				c-8.7,7-18.5,12.5-29,16.3c-10.6,3.7-21.9,5.3-33.1,4.6c-11.2-0.8-22.2-3.6-32.5-8.1c-10.3-4.5-19.9-10.5-28.3-17.9l-1.6-1.4
				l2-0.6c7.7-2.4,15.3-5.1,22.7-8.3c7.4-3.2,14.8-6.5,22-10.2s14.3-7.6,21.2-11.8c3.5-2,6.9-4.3,10.3-6.4
				C88.5,122,91.8,119.6,95.2,117.4z"/>
		</g>
		<g id="Groupe_298_1_" transform="translate(185.498 18.028)">
			<path id="Tracé_277_1_" class="st11" d="M18,12.8L15.3,14L18,12.8z"/>
			<path id="Tracé_278_1_" class="st11" d="M9.8,16.6l3.7-1.5l-0.4-0.4l1.1-0.3l-0.7-0.7L9.8,16.6z"/>
			<path id="Tracé_279_1_" class="st11" d="M8.1,17.4L6,18.1L8.1,17.4z"/>
		</g>
		<g id="Groupe_299_1_" transform="translate(55.863 80.208)">
			<path id="Tracé_280_1_" class="st6" d="M34,19.6c1.2-2.9,1.2-4.7,0.7-6.2c-0.2-0.7-0.8-0.7-1.2,0c-1.4,2.2-2.7,4.5-3.8,6.8
				c-1.4,0.2-2.8,0.3-4.2,0.2c-0.8-0.1-1.1,0.3-0.6,1.1c0.8,1,2,1.5,3.3,1.4c-2.2,4.3-4.3,8.9-5.3,11.7c-0.2,0.6-0.4,1.3-0.6,2
				c-2.2,3.4-5.6,7.2-9.5,7c-2.7-0.2-3.9-3.6-2.3-8.7c3.5,3.1,6.9,1.7,9.4-1.6c2.1-2.8,2.5-6.2,1.6-7.5c-0.8-1.2-1.8-2.1-3-2.9
				c-2.5-1.6-7.7,1.3-10.9,8.3s-1.1,13.9,5.3,13.8c3.6-0.2,6.9-2,9.1-4.9c0.4,3,2.3,4.8,4.4,4.8c4,0.2,7.4-4.7,8-6.3
				c0.5-1,0.7-2.1,0.5-3.1c-0.2-0.8-0.8-0.7-1.1,0c-1.9,4.1-4.7,8-7,7.9c-2.1-0.1-2.7-3.5-1-7.5c1.9-4.6,4.8-9.9,6.8-13.6
				c1.3-0.3,2.6-0.3,3.9-0.2c0.8,0,1-0.4,0.6-1C36.5,20.1,35.3,19.4,34,19.6z M11.3,32.7c2.4-5.2,6.5-8.5,7.6-7.6
				c0.7,0.6-0.4,3.5-2,5.8c-1.5,2.1-3.5,4.4-6,2.7C11,33.4,11.1,33,11.3,32.7L11.3,32.7z"/>
			<path id="Tracé_281_1_" class="st6" d="M196.3,22.9c0.8-1.1,0.9-2.5,0.4-3.7c-0.7-1.5-2.1-2.1-2.9-1.2c-0.9,1.2-1,2.8-0.3,4.1
				C194.3,23.5,195.7,23.7,196.3,22.9z"/>
			<path id="Tracé_282_1_" class="st6" d="M212.9,36c-0.2-0.5-0.6-0.5-0.9-0.1c-2.2,3.6-5.8,8-10,7.8c-2.7-0.2-3.9-3.6-2.3-8.7
				c3.5,3.1,6.9,1.7,9.4-1.6c2.1-2.8,2.5-6.1,1.6-7.5c-0.8-1.2-1.8-2.1-3-2.9c-2.5-1.6-7.6,1.3-10.9,8.3c-0.7,1.5-1.2,3.2-1.4,4.9
				c-1.5,3.7-4.2,7.2-6.4,7.3c-1.6,0.1-1.7-2-0.5-5.2c1.1-2.7,3.2-6.5,4.2-8.9c1.2-2.7,0.8-5.1,0.1-6c-0.4-0.5-0.8-0.3-1.2,0.3
				c-2.6,4.1-4.7,8.5-6.4,13c-1.9,3.5-4.1,6.7-6,6.8c-1.8,0.1-2.1-2.5-0.8-5.7c1.2-2.9,3.6-6.9,4.7-9.3c1.3-2.9-0.3-5.5-2-5.8
				s-5.1,2.7-7.4,5.4c0.6-1.7,0.6-3.6-0.1-5.2c-0.3-0.5-0.7-0.6-1.1,0c-3.1,4.9-5.7,10.1-7.8,15.5c-2,2.4-4.4,4.3-7.2,5.8
				c2.1-5.3,5.3-12,6.8-15.3c1.3-2.7,0.9-5.1,0.1-6c-0.4-0.5-0.9-0.4-1.3,0.3c-0.5,0.9-1.1,1.9-1.7,3c0.1-1.9-1-3.6-3-3.6
				c-2.6,0-6.6,2.5-10.6,8.8c-1.2,1.9-2.1,4.1-2.4,6.3c-1.7,3.1-3.9,5.7-5.7,5.8c-1.7,0.1-1.7-2.3-0.4-5.3c1.2-2.9,3.7-7,4.8-9.5
				c1.2-2.7,0.8-5.1,0.1-6.1c-0.4-0.5-0.8-0.4-1.2,0.3c-0.6,0.9-1.2,2-1.8,3.3c0.1-2.1-0.9-4-3.1-4c-2.5,0-6.5,2.5-10.6,8.9
				c-1.1,1.7-1.9,3.7-2.4,5.7c-1.7,3.4-4.6,6.7-9.1,6.9c1.9-1.3,3.8-3.9,5.3-7.5c1.9-4.5,3-9.4,0.6-12.2c-2.2-2.5-5.1-0.9-7.3,1.1
				c0.1-0.8,0-1.7-0.3-2.5c-0.3-0.7-0.7-0.8-1.2-0.1c-1.9,2.7-5.6,9.8-8.6,16.3c-1.5,2.4-3,4.2-4.4,4.3c-1.9,0.1-2.5-2.5-1.1-5.6
				c1.2-2.7,3.6-6.3,4.6-8.8c1-2.6,0.6-5.9-1.2-5.9c-1.6-0.1-5,2.5-7.4,5c0.6-2.4-0.2-5.3-2-5.4c-1.8-0.1-5.5,3.2-7.8,5.9
				c0.8-2.1,0.9-4.3,0.1-5.7c-0.3-0.5-0.8-0.6-1.1,0c-2.6,4.4-5.8,8.5-9.1,8.6c0.1-0.3,0.1-0.6,0.1-0.9c0.3-4.1-1.2-4.3-2.4-6
				c-1.1-1.5-1.8-2-3.4-1.9c-3,0.2-6.1,3.5-8,7.1c-1.1,2.1-1.8,4.4-2.1,6.8c-2.1,3.2-5.5,6.8-9.3,6.8c-3-0.1-4-4.6-1.2-10.8
				c2.3-5,6-8.5,6.9-7.7c0.7,0.6-0.8,3-1.4,4.9c-0.7,2.5,0,4.1,1.2,4.8c0.7,0.4,0.9,0.2,1.1-0.4c1-3,3-5.9,2-8.2
				c-0.6-1.3-1.6-2.3-2.8-3c-2.5-1.7-7.6,1.3-10.8,8.2c-3.3,7.1-1.1,13.9,5.3,13.8c3.6,0,7.2-2.4,9.3-5.3c0.2,0.9,0.5,1.8,1.1,2.6
				c2,3,4.6,3,6.4,2.4c3.7-1.3,6.9-7,7.9-11.7c1.7,0.2,3.4-0.3,4.7-1.4c-1.3,2.5-2.3,5-3.2,7.7c-0.8,2.7-0.6,4.6,0.5,5.5
				c0.5,0.4,0.8,0.3,1-0.2c2-5.2,4.4-10.2,7.4-13.7c3.2-3.8,5.7-5.3,6.2-5.1c1,0.4-4.4,8-6.1,12.5c-1.4,3.9-0.8,6,0,6.9
				c0.5,0.5,0.9,0.3,1.2-0.3c2.1-5.1,4.6-10.3,8.7-14.8c3.2-3.5,5-4.2,5.4-4.1c0.8,0.3-3.7,6.4-5.5,11c-1.8,4.4-0.3,8.2,4.1,8.2
				c1,0,2-0.3,2.9-0.8c-0.9,1.9-1.6,3.9-2.3,5.9c-1,3.3-0.7,4.9,0,6c0.3,0.5,0.7,0.4,0.9-0.1c2.4-6.1,5-11.7,7.4-16.4
				c0.1,1.4,0.7,2.7,1.7,3.7c1.8,1.8,3.9,2.3,7.1,2c3.2-0.2,6.1-1.8,8-4.3c0.4,2.3,1.8,3.8,4,3.8c2.4,0,4.7-2,6.3-4.3
				c0,2.6,1.4,4.3,4.1,4.5c2.1,0.1,4.4-1.6,6-3.7c0.5,2.1,1.8,3.5,3.9,3.5c2-0.2,3.8-1.2,5.1-2.7c-0.5,1.3-1,2.6-1.5,3.8
				c-5,2.1-9.3,5.4-10.8,10.4c-0.8,2.3-0.4,4.8,1,6.8c0.9,1.4,1.9,1.6,2.9,1.2c4.1-1.8,7.7-10.5,10.4-17.8c2.7-1,5.2-2.4,7.4-4.3
				c0,0.9,0.3,1.9,0.9,2.6c0.5,0.5,0.8,0.3,1-0.2c2.2-5.2,4.4-10.4,7.4-13.9c3.2-3.8,6.1-5.4,6.6-5.2c0.9,0.4-3.5,6.3-5.2,11.6
				c-1.5,4.8-0.5,8.2,3.8,8.2c2.1,0,4.4-1.5,6-3.5c0.1,2,1.9,3.5,3.9,3.4c0,0,0,0,0,0c2.6,0,5.5-2,7.1-5c0.6,3.1,3.4,5.3,6.5,5.1
				c4.1-0.3,7.7-2.5,9.9-5.9C212.7,38.4,213,37.2,212.9,36z M200.6,32.9c2.4-5.2,6.5-8.5,7.6-7.6c0.7,0.6-0.4,3.5-2,5.8
				c-1.5,2.1-3.5,4.4-6,2.7C200.3,33.6,200.5,33.2,200.6,32.9z M70.1,36.9c-2.5,4.9-5.5,7-6.9,5.7c-1.3-1.3-0.6-6.3,1.6-10.4
				c1-1.9,2.3-3.7,3.9-5.2c0.2,2.2,1.4,4.1,3.3,5.2C71.5,33.8,70.9,35.4,70.1,36.9z M72.3,30.8c-0.9-1-1.4-2.3-1.2-3.7
				c0.2-1.6,1.3-1.9,1.5-0.2C72.7,28.2,72.6,29.5,72.3,30.8z M111.1,42.4c-1.4-1.3-1.2-4.6,0.1-8c0.6-1.2,1.2-2.1,1.7-3.1
				c2.4-4.2,5.5-7,6.7-6.3c1.3,0.7,0.7,5.2-1.3,9.6C116,39.8,112.7,43.8,111.1,42.4z M129.7,43.3c-2-0.1-1.3-4.9,1.4-9.6
				c2.8-4.9,6.4-8.5,8.1-8.3c1.5,0.2,1,3.6-2.2,9.6C134.4,39.9,131.8,43.4,129.7,43.3L129.7,43.3z M144.3,61.4
				c-0.9-1.3,1.4-8.8,7.9-13C148.9,56.7,144.9,62.4,144.3,61.4L144.3,61.4z M150,43.4c-2-0.1-1.5-4.9,1.3-9.6c2.8-4.8,6.4-8.3,8-8.2
				c1.5,0.1,1,3.5-2.2,9.6C154.6,40,152,43.4,150,43.4L150,43.4z"/>
		</g>
		<g id="Groupe_300_1_" transform="translate(96.316 159.878)">
			<path id="Tracé_283_1_" class="st10" d="M24.1,33.8c0.9,0.7-0.6,0.8-0.6,1.4c0.5,0.1,0.6-0.9,1.3-0.4c0,0.6-0.5,1-1.1,1.1
				l-0.1,0.1c1,0.1,2.1-1.4,3.2-0.5c-0.3,0.2-0.3,0.8,0.2,0.9c1-0.6,1.9,0.1,2.9-0.4l-0.2,0.5c0.9-0.4,1.8-0.9,2.6-1.5
				c0,1.3,1.5-0.8,1.9,0.2c0-0.9,0.5-1.7,1.1-1.5c0.6-1.2,1.2-3,0.4-4.2c0-0.9-0.7-0.7-1.4-1.5l-0.1,0.3c-0.3-0.3-0.8-0.3-0.7-0.8
				c-0.5,0.2-1.1,0.2-1.6-0.1c-0.4-0.6-1.3-0.8-1.6-0.4c-0.2,0-0.3-0.2-0.4-0.3c-0.3,0.2-0.6,0.2-0.9,0.1c-1.4,0.3-2.8,1.1-4.6,0.8
				l0.6,0l0.1,0.6l-1.6-0.3c0.4,0.4,1.5,0.4,1.5,1.1c-0.2,0.6-0.8,0.5-1.3,0.7l0.6,0c-0.1,0.7-1.3,0.4-1.6,1.2c1.2,0.3,1,1.2,0.6,2
				l-1.4,0.9C22.5,33.2,23.4,33.2,24.1,33.8z"/>
			<path id="Tracé_284_1_" class="st12" d="M91.5,33.6l-0.3,0.2c0.5,0,1,0.1,1.4,0.3c-0.1,0.3-0.1,0.5-0.4,0.6l-0.2-0.1
				c0.3,0.2,1-0.5,1.1,0.3l-0.1,0.2c1.1-0.9,2.1,0.2,3.1-0.6c1.6,0.6,1.9-1.3,2.8-1.7c-0.3-0.4,0.1-0.9,0.1-1.4l-1.4-2.4
				c-0.6-0.1-1.3-0.3-1.8-0.6c0.5-0.8,0.8-1.7,0.6-2.6c-0.3-1.6-1.8-0.9-2.7-1.7c-0.4,0.7-1.3,0.7-1.9,0.7l-0.4-0.1
				c1.1,0.8-0.7,1.3-1.2,1.9l-0.4,0.2c0.4,0.1,0.8-0.2,1,0.2l-1,0.5c0.2-0.1,0.5-0.1,0.7,0l0,0.6c0.2-0.2,0.4,0,0.6,0.1
				c0.2,0.1,0,0.4,0,0.6l0.6,0c-0.1,0.5-0.5,0.8,0,1.3l-1.2,1l0.6,0.1c0,0.3-0.2,0.6-0.5,0.7l-0.2,0l0.5,0.2L90,32.7
				C90.4,33.1,91.8,32.6,91.5,33.6z"/>
			<path id="Tracé_285_1_" class="st12" d="M11.8,25.5l0.3,0.3c-0.1,0.3,1-1.4,1.8-0.7c2.8-2.9-3.4-4.5,0.9-7.1
				c-1.5-1.8,0.1-4.3-2.6-5.1c-2.2-0.3-3.9,1.4-4.9,3L6,18.4c0.5-0.1,0.7,0.5,0.5,0.9l-0.3,1.2c2-0.6,0.3,1.7,1.4,2.4l0.1-0.4
				c1.9,0.4,0.5,2.2,1.9,3l0.2,1C10.6,26.7,11.1,25.8,11.8,25.5z"/>
			<path id="Tracé_286_1_" class="st9" d="M44.8,51.6c-0.3,0.4,0.8-0.3,0.5,0.5c0.6-0.4,1,0.4,1.5,0.2l0,0.2c0.7-1,1.7,0.9,2.6-0.8
				c1.2,0.4,0.7-1.4,1.5-1.5c0.3-1.2-0.3-2.4-1.3-3c-1.2-0.5-0.6,0-2-0.5l-0.7-0.1c0.3,1.1-1.4-0.5-1.2,0.7c-0.5,0.2-1,0.1-1.4,0.5
				c0.2,0,0.3,0.1,0.4,0.3c-0.1,0.5-0.6,0.5-0.8,0.8l0.4,0.3l-0.5,0.7c0.2-0.1,0.3,0.1,0.4,0.3l-0.4,0.4
				C44,51.3,45.2,50.4,44.8,51.6z"/>
			<path id="Tracé_287_1_" class="st10" d="M37.4,49.3l-1,0.5l0.6-0.2L37.4,49.3z"/>
			<path id="Tracé_288_1_" class="st7" d="M46.9,16.2l0.3,0.5c0.5-0.6,0.8,0.2,1.2,0.3c1-0.7,2.7-1.4,2.3-2.6L49.3,13
				c-0.3,0.6-1.4,0.2-2,0.3c0.5,0.6-0.8,0.8-0.7,0.8l0.3,0.1c-0.5,0.5-0.8,1.1-0.9,1.8c0.1-0.2,0.4-0.3,0.6-0.1
				C46.8,15.9,46.9,16,46.9,16.2z"/>
			<path id="Tracé_289_1_" class="st10" d="M46.5,15.3l0.1,0.1l0.6-0.3L47.1,15L46.5,15.3z"/>
			<path id="Tracé_290_1_" class="st10" d="M69.1,52.3c0.5-0.5,1.6-0.5,1.3-1.7c-0.5-0.7-1.7-2.1-2.4-0.9l-0.5-0.1l-0.3,1.1
				c0.8,0.2,0,1.2,0.9,1.4C68.4,52,68.9,51.7,69.1,52.3z"/>
			<path id="Tracé_291_1_" class="st10" d="M71.3,48.6l1-0.2L71.3,48.6z"/>
			<path id="Tracé_292_1_" class="st10" d="M74.2,48l-1.3,0.2l0.1,0.2h-0.4l0.2,0.3L74.2,48z"/>
			<path id="Tracé_293_1_" class="st10" d="M76.5,48.5c-0.1,0-0.1,0.1-0.2,0.3c0.3,0,0.5-0.1,0.7,0l-0.5,0.7c0.6-0.1,1.2,0,1.7,0.4
				l0,0.2c1.3,0.2,2.6-0.3,3.5-1.3c0.4-0.8,0.5-2.1,1.6-2.4c0-0.6-0.8,0-0.5-0.6s-0.2-1.7-0.3-2.5c-1.2,0-1.3-0.7-1.9-1.3
				c-0.4-0.2-1.1,0.3-1.2-0.5L79.2,42c-0.7,0-0.7-0.8-1.1-1.1l-0.3,1c-0.7-0.4-1.7,0.3-2.3,0.4c-0.1,1.2-1.6,0.6-2.3,0.4
				c0.1,0.7,1.8,0.9,1.4,2c-0.2,0-0.4-0.2-0.6-0.1c-0.3,1,1.5,0.5,0.9,1.5l-2-0.3C74.5,46.6,76.1,46.6,76.5,48.5z"/>
			<path id="Tracé_294_1_" class="st10" d="M74.8,47.9l0.7,0L74.8,47.9z"/>
			<path id="Tracé_295_1_" class="st10" d="M76.9,39L76.8,39l0.3,0.5L76.9,39z"/>
		</g>
		<path id="Tracé_296_1_" class="st4" d="M296.7,78.1c-0.7-2.8-2.4-4.1-2.4-7c0-2.3,5.6-5.1,5.6-6.1c0-1.2-2-3.5-3.5-3.5
			c-2.2,0-6.3,3.6-6.3,6.6c0.1,1.3,0.5,2.6,1.1,3.7c-2.1,2.2-3.3,3.5-3.4,3.6l0,0c-1.6,1.5-3.3,3-5,4.3c-0.1,0-0.3,0.1-0.4,0.1
			c-0.6,0.2-1.1,0.6-1.4,1.1c-2.1,1.4-4.3,2.6-6,2.6c-1.9,0-3-1.9-3-4.5c0-1,0.1-2,0.3-3c4.6-2.9,9.3-7.2,9.3-9.3c0-0.9-1.3-4-3.9-4
			c-3.9,0-11.2,7.3-11.8,14.5c-3.2,2.7-8.8,7.1-11.4,7.1c-0.5,0-1.6-0.3-1.6-2.4c0-3.5,1.9-8.4,1.9-8.4c8.1-7.7,21.2-22.6,21.2-27.7
			c0.1-2.6-1.9-4.8-4.5-4.9c-5.9,0-19.4,20.5-22.7,35.1c-3,2.7-9,9-11.5,9c-0.5,0-1.6-0.3-1.6-2.4c0-3.5,2.1-8.9,2.1-8.9
			c8.4-7.7,20.3-20.8,20.3-25.8c0.1-2.6-1.9-4.8-4.5-4.9c-6.3,0-18.6,17.1-21.9,32l0,0c0,0-8.3,8.2-12.7,8.2c-1.9,0-3-1.9-3-4.5
			c0-1,0.1-2,0.3-2.9c4.6-2.9,9.3-7.2,9.3-9.3c0-0.9-1.3-4-3.9-4c-3.9,0-11.3,7.4-11.8,14.7c-2.9,2.6-8,6.4-11.8,6.4
			c-0.4,0-0.8-0.3-0.8-0.8c0,0,0-0.1,0-0.1c0-4.5,6.8-10.4,6.8-11.3c0-1.1-1.4-4-3-4c-3,0-10.9,5.1-14.2,7.6
			c1.9-3.1,3.4-5.3,3.4-6.6c0-2.2-2.6-4.6-4.2-4.6c-0.5,0-0.8,0.3-0.8,1c0,2.5-3.2,7.5-5.9,11.6c-3,2.6-9,7.3-12.8,7.3
			c-0.3,0-0.9-0.1-0.9-1.1c0-3.2,9.7-14.3,9.7-15.9c-0.3-2.1-2-3.7-4-4c-0.7,0.1-1.4,0.6-1.6,1.3c-1.1,2.7-4.7,7.7-7,11.9
			c-3,2.7-10.9,9.1-16.2,9.1c-1.6,0-2.7-1.2-2.7-3.3c0-7.2,8.1-15,12.1-15c0.6,0,0.7,0.4,0.7,0.5c0,1-1.3,2.8-2.4,3.9
			c-0.1,0.1-0.2,0.3-0.3,0.5c0,0.1,0.1,0.2,0.2,0.2c0.5,0,1-0.1,1.5-0.3c1.5-1.6,2.4-3.2,2.4-4.5c0-2.3-2.3-3.8-4.4-3.8
			c-4.7,0-12,6.5-14.3,13.5c-3.5,3-10.3,8.2-15.2,8.2c-1.6,0-2.7-1.2-2.7-3.3c0-7.2,8.1-15,12.1-15c0.6,0,0.7,0.4,0.7,0.5
			c0,1-1.3,2.8-2.4,3.9c-0.1,0.1-0.2,0.3-0.3,0.5c0,0.1,0.1,0.2,0.2,0.2c0.5,0,1-0.1,1.5-0.3c1.5-1.6,2.4-3.2,2.4-4.5
			c0-2.3-2.3-3.8-4.4-3.8c-3.6,0-8.7,3.8-11.9,8.7c-1.8,0.5-3.7,0.6-5.6,0.4c0.6-1.5,0.9-3.2,0.9-4.8c0.2-3.5-3-6-6.8-6
			c-4.4,0-13.8,4.3-14.8,15.6C84.5,85,74.1,91.4,61.7,91.4c-7.2,0-11.5-2.7-11.4-9.6c0-20.5,33.9-46.8,50.3-46.8
			c3.1,0,4.8,1,4.8,2.8c0,6.4-11.4,14-17.2,14.9c-0.4,0-0.7,0.4-0.7,0.8c0,0.5,2.8,2.4,4.8,2.4c2.4,0,14.8-10.3,14.8-16.8
			c0-3.4-2.8-8.8-8.8-8.8c-19.4,0-53.9,26.7-53.9,48.3c0,8.4,9.3,15.3,17.8,15.4c10.7,0,23.4-8.6,30.5-14.9c0,0.2,0,0.4,0,0.6
			c0,3.9,5.4,5.9,7.4,5.9c1.3,0,5.8-0.8,12.7-11.2c0,0,0.3,0,0.8,0.1h0c1.4,0.2,2.9,0.1,4.3-0.1c-1.3,2.2-2,4.8-2.1,7.3
			c0,4,3.4,6,6.7,6c4.9,0,12.1-5.6,16-8.9c-0.2,1-0.4,1.9-0.4,2.9c0,4,3.4,6,6.7,6c5.1,0,12.8-6.1,16.5-9.3c-0.5,1-0.9,2.1-1,3.3
			c0,2.7,3.2,4.6,4.5,4.6c3.5,0,8.9-4,12.4-6.9c-1.3,1.9-2.2,3.4-2.2,3.9c0,1.8,1.9,4.1,2.8,4.1s1.7-4.3,6.9-9
			c4.6-4.2,10.4-7.1,11.1-7.1c0.1,0,0.2,0.1,0.2,0.2c0,0.6-3.5,5.3-3.5,9c0,2.7,3,5.6,5.3,5.6c3,0,8.6-4.6,11.7-7.5
			c0.1,4.2,2.8,6.8,7.1,6.8c5.8,0,13.2-7.4,14.6-8.8c-0.4,1.9-0.6,3.8-0.6,5.7c-0.2,2.6,1.7,4.9,4.4,5.1c0.1,0,0.2,0,0.3,0
			c3.2,0,9.5-6.3,12.8-9.3c-0.2,1.1-0.3,2.2-0.3,3.3c-0.2,2.7,1.9,5.1,4.6,5.3c0.1,0,0.1,0,0.2,0c3.3,0,9.7-5.1,13.2-8.2
			c0.1,4.3,2.8,6.9,7.1,6.9c2.6,0,5.6-1.5,8.1-3.3c1.3,3.1,4.3,5.2,7.7,5.3c4,0,8.3-3.4,8.3-7.1c0-0.4-0.1-0.8-0.2-1.3
			c0.9,0.4,1.8,0.9,2.6,1.4c0.5-0.1,0.9-0.4,1-0.9C300.5,79.4,299.4,78.5,296.7,78.1z M278.9,66.4c0.3,0,0.4,0.3,0.4,0.6
			c0,1.5-3.5,5.3-7,7.8C274.9,69,277.6,66.4,278.9,66.4z M273.1,45.4c0.4,0,0.7,0.3,0.8,0.7c0,4.8-12.1,19-18.6,25.5
			C258,63.3,268.8,45.4,273.1,45.4z M255.1,47.5c0.4,0,0.7,0.3,0.8,0.7c0,4.8-11,16.9-17.5,23.4C241.1,63.4,250.8,47.5,255.1,47.5
			L255.1,47.5z M222.6,66.4c0.3,0,0.4,0.3,0.4,0.6c0,1.5-3.5,5.3-7,7.8C218.6,68.9,221.4,66.4,222.6,66.4z M99.1,84.3
			c-1.3-0.1-2.5-1.6-2.8-3.5C96,79,96.8,72.5,100,69l0,0c0.8,1.2,3.3,3.6,10.4,4.9C108.4,79.6,103,84.6,99.1,84.3z M111.1,72.4
			c-2.3-0.8-4.5-1.9-6.5-3.3c-0.7-0.5-1.2-1.3-1.5-2.1c-0.2-1.5,0.8-3.4,3.5-3.4c2.9,0,4.1,1.6,4.5,4.3
			C111.4,69.4,111.4,70.9,111.1,72.4z M287,83c-2.7,0-4.3-0.8-4.3-1.4c0-0.3,0.1-0.4,0.7-0.7c2.7-1.1,5.5-1.9,8.3-2.3
			C291.1,81.1,289.8,83,287,83z M291.9,77.9c-2.3,0.3-4.6,0.7-6.9,1.3c1.7-1.5,2.7-2.6,2.8-2.7l0,0c0,0,1.6-1.6,3.7-3.9
			c0.4,1.4,0.6,2.9,0.5,4.4C292,77.3,291.9,77.6,291.9,77.9L291.9,77.9z"/>
		<path id="Tracé_297_1_" class="st11" d="M187.4,37.8c0.4-0.1,0.3-0.5,0.4-1c-0.9,0.2-1.3,0.6-2.2,0.6l1-2.4
			c-1.7,1.1-3.3,0.6-5.2,0.1l0-0.5c-4.2,0-7.7,3.3-9.5,6.2c-0.5,2.8,0.1,6.7-3.1,8.2c0.5,1.9,2.5-0.6,2.1,1.5s1.8,4.8,2.5,7.2
			c3.5-0.7,4.2,1.2,6.7,2.5c1.3,0.2,3-1.7,3.9,0.6l-0.1-2.1c2-0.5,2.6,1.8,4,2.5l0.2-3c2.5,0.8,4.8-2.2,6.5-2.7
			c-0.5-3.5,4.3-3,6.6-2.9c-0.6-2-5.8-1.3-5.6-5c0.6,0,1.3,0.5,1.7-0.2c0.1-3.2-4.8-0.6-3.8-3.8l6.2-0.5
			C194.4,41.9,189.9,43,187.4,37.8z"/>
	</g>
	<g id="Groupe_330" transform="translate(-938.27 -167.058)">
		<g id="Groupe_327">
			<g id="Groupe_326">
				<path id="Tracé_422" class="st13" d="M949.6,264.9c-0.4-0.2-0.4-0.5,0-0.7c2.9-2.5,5.6-7,7.4-8.8c1-1.2,2.7-1.6,4.1-0.8
					c0.4,0.2,0.5,0.5,0.1,0.8c-2.4,2.3-4.1,5.1-5.8,7.4c0.6,3.3,1.8,7.7,3,12.2c0.6-0.9,1.3-1.7,2.1-2.5c1.6-1.7,2.8-1.8,4.1-1.1
					c0.4,0.2,0.6,0.4,0.2,0.8c-2,2.1-3.7,4.4-5.2,6.8c0.8,2.8,1.7,5.5,2.5,7.7c1.2-2.1,2.5-4.1,4.1-6c1.6-1.6,2.9-1.9,4.2-1.3
					c0.4,0.2,0.5,0.4,0.1,0.8c-1.9,1.8-4.7,6.1-6,8.4c-0.5,0.8-0.8,1.1-1.7,1c-0.6-0.1-1.3-0.3-1.9-0.6c-0.8-0.3-1.3-0.7-1.8-1.9
					c-2.8-7.1-5-14.4-6.5-21.9C951.6,265.7,950.5,265.5,949.6,264.9z"/>
				<path id="Tracé_423" class="st13" d="M967.7,263.1c-0.9-1-1.3-2.4-1.2-3.7c0.1-1.4,0.8-2.2,1.4-2.2c0.6,0,0.8,0.6,1.1,1.7
					c0.1,0.3,0.1,0.6,0.2,1c2.6,3.3,5.7,5.4,7.7,7.8c1.1,1.4,2.2,3,1.7,5c1.5-2.9,1.1-6.3,0.2-8.9c-0.2-0.5,0.3-0.7,0.6-0.6
					c0.8,0.7,1.4,1.6,1.6,2.7c0.8,3.3-0.2,6.8-2.6,9.2c-1.9,1.9-4.3,3.1-7.4,2c-2.2-0.8-4.2-3.1-3.9-5.1c0.1-0.7,0.5-0.8,1-0.3
					c0.3,0.2,0.5,0.5,0.8,0.8C968.8,269.3,968.3,266.2,967.7,263.1z M971.1,274c2.3,1.5,4.6,2,5.4,0.6c1.1-1.9-4.2-6.8-6.9-9.4
					C970.3,268.2,970.8,271.1,971.1,274L971.1,274z"/>
				<path id="Tracé_424" class="st13" d="M992.7,253c-0.2-0.7,0.3-0.9,0.7-0.6c0.8,0.7,1.3,1.7,1.5,2.7c0.6,3.4-0.6,6.8-3.2,9
					c-2.2,2-3.9,2.9-6.1,2.8c-1.2-0.1-2.3-0.5-3.2-1.4c0.8,4.4,2,9.5,3.6,14.9c0.1,0.4-0.1,0.7-0.5,0.6c-1.1-0.3-2.1-1.2-3.2-3.9
					c-1.8-4.3-5.1-20.5-5.3-25.3c0-0.8,0.4-0.9,0.9-0.7c0.6,0.4,1.1,0.8,1.5,1.4c0.5-2.6,1.7-5.4,4.6-5c3.2,0.4,5,4.2,6.1,8.2
					c0.9,3.2,1,6,0.3,7.9C993.6,260.7,993.6,256.3,992.7,253z M985.7,265.6c1.9,0,2.1-4.5,0.9-9.3c-1-4-3-7.3-4.2-6.9
					c-1.2,0.3-1.9,3.9-1.4,8c0.1,1,0.3,1.9,0.5,3C982.4,263.4,984,265.6,985.7,265.6z"/>
				<path id="Tracé_425" class="st13" d="M999.4,235.1c0-0.7,0.2-1,0.7-0.9c1,0.3,2.5,1.7,2.9,4.2c0.4,2.3,0.4,6.4,0.9,9.1
					c0.5,2.8,1.6,4.4,2.9,3.4c1.5-1.2,1.8-5.2,1.3-8.7c0-0.5,0.2-0.7,0.6-0.5c0.7,0.7,1.2,1.6,1.3,2.6c0.5,2.8-0.5,6.5-2.6,7.8
					c-2.1,1.3-4,0.8-5.3-0.9c-0.1,2.4-0.8,5-2.7,6.2c-3.5,2.5-7.6-1.8-7.6-8.6c-0.1-6.6,1.7-10.4,3.6-11.7c1.6-1.1,3.2-0.4,4.2,1.1
					C999.5,237.1,999.4,236,999.4,235.1z M997.5,238.7c-1.3,0.7-2.3,5.1-2.1,9.9c0.3,4.6,2.1,8.3,3.6,7.3c1.6-1,1.8-4.8,1.5-9.5
					C1000,240.7,998.7,238.1,997.5,238.7L997.5,238.7z"/>
				<path id="Tracé_426" class="st13" d="M1015.3,228.7c1.8,1.2,1.4,4.2,1.9,6.8c0.1,0.6,0,0.8-0.7,0.8c-1.2,0.1-2.5-0.8-3-2.9
					c-0.4-1.7-0.2-4.1-1-4.2c-1-0.2-2.5,4.1-2.2,8.8c0.4,5.8,3.2,8.6,5.5,7.3c3.4-1.9,4.4-6.7,4.6-10.2c0-0.4,0.4-0.7,0.7-0.4
					c0.5,0.8,0.8,1.8,0.7,2.8c-0.3,3.6-2.2,6.8-5.2,8.8c-5,3-9.6-0.9-10-7.6c-0.3-6.5,2.4-11,5.1-10.9
					C1013,227.7,1014.2,228,1015.3,228.7z"/>
				<path id="Tracé_427" class="st13" d="M1028.2,238.7c3.5-1.5,5-6.2,5.4-9.8c0-0.4,0.4-0.6,0.7-0.3c0.6,0.9,0.8,1.9,0.5,2.9
					c-0.6,3.6-2.8,6.7-6,8.4c-5.2,2.6-9.5-1.7-9.4-8.4c0.1-6.6,3.3-10.8,6-10.6c1.2,0.1,2.4,0.4,3.5,1c1.2,0.6,2.1,3.3,1.4,6.3
					c-0.8,3.5-3.1,5.9-7.1,4.9C1023.7,237.5,1025.9,239.6,1028.2,238.7z M1027,227.5c0.5-2.4,0.4-5-0.4-5.2
					c-1.2-0.3-3.5,3.8-3.5,8.7c0,0.3,0,0.6,0,0.9C1025.7,232.2,1026.6,229.6,1027,227.5L1027,227.5z"/>
				<path id="Tracé_428" class="st13" d="M1056.7,227.7c1.8-0.7,3.2-4.4,3.7-7.9c0.1-0.5,0.4-0.6,0.7-0.3c0.5,0.8,0.7,1.9,0.5,2.8
					c-0.4,2.8-2.4,6-4.8,6.6c-2.4,0.6-4-0.3-4.7-2.3c-0.8,2.2-2.3,4.5-4.3,5.1c-4.1,1.3-6.7-4-4.8-10.4c1.8-6.2,4.7-9.3,6.9-10
					c1.8-0.6,3.1,0.5,3.6,2.1c0.9-5.3,2.3-12.3,3.1-15c0.2-0.8,0.6-0.8,1-0.3c1.1,1.2,1.6,3.2,0.8,7c-0.9,4.4-2.7,13-3.4,18.4
					C1054.7,226.4,1055.2,228.2,1056.7,227.7z M1046.5,222.2c-1.1,4.5-0.4,8.5,1.3,8c1.8-0.5,3.3-3.9,4-8.5c1-5.7,0.7-8.6-0.6-8.3
					C1049.9,213.7,1047.6,217.5,1046.5,222.2z"/>
				<path id="Tracé_429" class="st13" d="M1067,224.7c3.7-0.8,6.1-5.2,7.2-8.6c0.1-0.4,0.5-0.5,0.8-0.1c0.4,1,0.4,2-0.1,3
					c-1.3,3.4-4,6-7.5,7c-5.6,1.5-9-3.5-7.6-10c1.4-6.5,5.4-10,7.9-9.2c1.2,0.3,2.3,0.9,3.2,1.6c1.1,0.9,1.4,3.7,0.1,6.4
					c-1.5,3.2-4.2,5.2-8,3.4C1062.9,222.6,1064.6,225.1,1067,224.7z M1068.1,213.5c0.9-2.2,1.3-4.8,0.6-5.1
					c-1.1-0.5-4.1,3.1-5.2,7.9c-0.1,0.3-0.1,0.6-0.2,0.8C1065.9,217.9,1067.3,215.5,1068.1,213.5L1068.1,213.5z"/>
				<path id="Tracé_430" class="st13" d="M1108.5,217.9c-3.5,0.4-5.4-2.4-4.9-6.3c0.5-3.2,2.7-7.1,4.3-9.5
					c-1.5,1.3-3.3,2.2-5.2,2.6c-2.1,8-6.2,15.1-11.9,16c-5.8,0.9-8.6-4.4-6.5-10.6c2-6.1,6.2-9.4,8.7-8.4c1.2,0.4,2.2,1.2,2.9,2.1
					c1.3,1.7-0.2,4.5-0.7,7c-0.1,0.7-0.2,0.8-0.9,0.6c-1.2-0.4-2-1.7-1.7-3.8c0.3-1.7,1.4-4,0.6-4.3c-0.9-0.5-3.8,2.8-5.2,7.4
					c-1.7,5.5-0.1,9,2.6,8.7c5-0.6,9-8.5,10.5-14.7c-3.8-0.8-0.3-7.6,1.6-8c1.4-0.3,1.4,2.6,0.7,5.7c1.7-0.6,3.3-1.6,4.6-3
					c0.4-0.4,0.9-0.7,1.3-0.3c1,0.8,2.4,2.8,1.3,4.5c-1.7,2.7-3.5,6.2-3.9,8.7c-0.4,2.6,0.4,4.3,1.8,4.2c1.8-0.2,3.7-3.5,4.6-7.1
					c0.1-0.4,0.4-0.5,0.7-0.2c0.5,0.9,0.5,2,0.2,3C1113.4,215.2,1111,217.7,1108.5,217.9z"/>
				<path id="Tracé_431" class="st13" d="M1119.5,215.4c3.8-0.2,6.8-4.2,8.5-7.4c0.2-0.4,0.6-0.4,0.8,0c0.2,1,0.1,2.1-0.5,2.9
					c-1.8,3.2-4.9,5.3-8.5,5.8c-5.8,0.7-8.4-4.9-6-11.1c2.4-6.2,6.8-9,9.3-7.9c1.1,0.5,2.1,1.2,2.9,2.1c0.9,1,0.8,3.8-0.9,6.4
					c-2,3-4.9,4.5-8.4,2.2C1115.6,212.7,1117,215.5,1119.5,215.4z M1122.2,204.5c1.3-2.1,2.1-4.5,1.4-5c-1-0.7-4.6,2.4-6.3,7
					c-0.1,0.3-0.2,0.6-0.3,0.8C1119.4,208.5,1121.1,206.4,1122.2,204.5L1122.2,204.5z M1126.8,192.7c-1.6,0.9-3.9,2.5-5,3
					c-0.7,0.4-1.6,0.5-2.4,0.3c-0.4-0.1-0.5-0.4,0-0.7c1.3-1.1,2.6-2.2,4.1-3.1c1-0.6,2.2-0.6,3.3-0.2
					C1127.1,192.2,1127.2,192.4,1126.8,192.7z"/>
				<path id="Tracé_432" class="st13" d="M1143.2,196.7c0.4-0.6,0.8-0.7,1.1-0.3c0.7,0.8,1.2,2.8,0.2,5.1c-0.9,2.1-3.1,5.7-4.1,8.1
					c-1,2.6-1,4.6,0.6,4.4c1.9-0.2,4.3-3.4,5.7-6.6c0.2-0.4,0.5-0.5,0.7-0.1c0.2,1,0.1,2-0.3,2.9c-1.1,2.6-3.9,5.2-6.4,5.2
					c-2.5,0-3.8-1.4-3.9-3.6c-1.4,1.9-3.4,3.7-5.6,3.8c-4.3,0.2-5.4-5.6-1.8-11.3c3.5-5.6,7-7.8,9.3-7.9c2-0.1,3,1.4,2.9,3.2
					C1142.2,198.6,1142.7,197.6,1143.2,196.7z M1139.6,198.7c-1.5-0.1-4.7,3.1-7.1,7.3c-2.3,4.1-2.7,8.1-0.9,8.1
					c1.9,0,4.1-3.1,6.3-7.2C1140.7,201.7,1141,198.8,1139.6,198.7z"/>
				<path id="Tracé_433" class="st13" d="M1148.4,197.4c-0.4-0.6-0.2-0.9,0.5-0.8c1.1,0,2.3,0,3.4-0.1c0.9-1.7,2-3.4,3.1-5.1
					c0.4-0.5,0.8-0.5,1,0c0.4,1.1,0.4,2.5-0.6,4.6c1-0.1,2,0.4,2.5,1.2c0.3,0.5,0.1,0.8-0.5,0.8c-1.1-0.1-2.1,0-3.2,0.1
					c-1.6,2.7-4,6.7-5.5,10.1c-1.4,3-0.9,5.5,0.8,5.6c1.8,0.1,4.2-2.8,5.7-5.9c0.2-0.5,0.7-0.6,0.9,0c0.1,0.8,0,1.6-0.4,2.3
					c-0.5,1.2-3.3,4.8-6.5,4.6c-2.7-0.1-4.9-3.1-2.9-7.8c0.9-2,2.6-5.5,4.4-8.7C1150,198.6,1149,198.2,1148.4,197.4z"/>
				<path id="Tracé_434" class="st13" d="M1154.6,209.1c1.5-3.5,3.4-6.7,5.6-9.8c0.4-0.5,0.7-0.6,1-0.2c0.6,0.7,0.9,2.5-0.2,4.5
					c-0.9,1.8-2.7,4.5-3.7,6.5c-1.1,2.3-1,3.9,0.3,3.9c1.8,0,4.2-2.6,5.5-5.4c0.2-0.4,0.5-0.3,0.7,0c0.3,0.9,0.1,1.8-0.4,2.5
					c-1.2,2.4-3.6,3.9-6.3,4C1154,215.1,1153.3,212.4,1154.6,209.1z M1164.1,198.7c-0.6,0.6-1.7,0.4-2.3-0.7c-0.6-1-0.4-2.2,0.3-3
					c0.7-0.7,1.9-0.1,2.3,1C1165,196.9,1164.8,198,1164.1,198.7z"/>
				<path id="Tracé_435" class="st13" d="M1184.9,217.4c-3.1-0.3-3.6-2.7-2.2-5.7c1.6-3.5,5.2-7,4.6-7.3c-0.4-0.2-2.6,0.5-5.2,2.9
					c-2.4,2.1-4.5,5.4-6.3,8.7c-0.1,0.2-0.4,0.4-0.7,0c-0.6-0.8-0.7-2,0.1-3.8c0.8-1.7,1.8-3.3,2.8-4.8c-1.1,0.6-2.3,0.8-3.5,0.6
					c-1.1,3.1-3.8,6.6-6.6,7.2c-1.8,0.4-3.6-0.4-4.5-2c-1.4-2.3-0.5-5.5,1.5-8.2c1.7-2.4,4.1-4.2,6.4-4.2c1,0,1.9,0.5,2.3,1.5
					c0.8,1.3,1.8,1.6,1.3,4.2c0,0.2-0.1,0.4-0.1,0.7c2.3,0.2,5-2.2,7.3-5c0.3-0.4,0.6-0.3,0.8,0c0.4,1.1,0.3,2.4-0.2,3.5
					c1.8-1.6,4.5-3.3,5.7-3c1.2,0.3,2.1,2.3,1,4.1c-1,1.6-3,4-4.1,5.9c-1.2,2-1.2,3.7,0.2,3.8c1.5,0.1,3.5-2.1,5.2-4.6
					c0.1-0.2,0.3-0.2,0.4-0.2c0.1,0,0.2,0.1,0.2,0.2c0.1,0.8-0.1,1.6-0.6,2.3C1189.5,216,1187.1,217.6,1184.9,217.4z M1170.1,203.4
					c-1.2,0.9-2.3,2-3.2,3.2c-1.9,2.6-2.8,6-1.9,6.9c0.9,0.9,3.3-0.1,5.4-3.3c0.7-0.9,1.2-1.9,1.7-3
					C1170.9,206.4,1170.1,205,1170.1,203.4L1170.1,203.4z M1173,203.7c-0.1-1.2-0.9-1.1-1.1,0c-0.2,0.9,0,1.9,0.6,2.6
					C1172.8,205.5,1173,204.6,1173,203.7L1173,203.7z"/>
			</g>
		</g>
		<g id="Groupe_329">
			<g id="Groupe_328">
				<path id="Tracé_436" class="st13" d="M981.1,304.4c-0.2-0.7,0.3-0.8,0.7-0.5c0.8,0.7,1.3,1.7,1.4,2.8c0.5,3.4-0.8,6.7-3.5,8.9
					c-2.2,1.9-4,2.8-6.2,2.6c-1.2-0.1-2.3-0.6-3.1-1.5c0.7,4.5,1.7,9.6,3.1,15c0.1,0.4-0.1,0.7-0.6,0.6c-1.1-0.3-2.1-1.2-3.1-4
					c-1.6-4.4-4.4-20.6-4.5-25.5c0-0.8,0.4-0.9,0.9-0.6c0.6,0.4,1.1,0.9,1.5,1.5c0.5-2.6,1.9-5.3,4.7-4.9c3.2,0.5,4.9,4.4,5.8,8.4
					c0.8,3.2,0.8,6,0,7.9C981.7,312.1,981.8,307.8,981.1,304.4z M973.7,316.9c1.9,0,2.2-4.4,1.2-9.3c-0.8-4-2.8-7.3-4-7.1
					c-1.2,0.2-2.1,3.8-1.6,7.9c0.1,1,0.2,1.9,0.4,3C970.5,314.5,972,316.8,973.7,316.9z"/>
				<path id="Tracé_437" class="st13" d="M987.6,308.7c-3.5,2.4-7.5-1.9-7.5-8.6c0.1-6.4,1.9-10.2,3.8-11.6c1.3-0.8,3-0.5,3.8,0.7
					c0.1,0.1,0.1,0.2,0.1,0.2c-0.1-1.3-0.1-2.4-0.1-3c0-0.7,0.2-1,0.8-0.8c1.1,0.3,2.4,1.7,2.9,4.2c0.4,2.2,0.4,6.6,0.9,9.1
					c0.6,2.8,1.7,4.1,2.8,3.2c2.3-1.9,2.5-8.9,0.5-15.7c-3.8,1-3.7-6.6-2.3-7.8c1.1-0.9,2.3,1.6,3.3,4.8c1.4-1.3,2.4-2.9,3-4.7
					c0.3-0.7,0.5-1,1.1-0.9c1.3,0.3,3.4,1.4,3.2,3.5c-0.4,3.3-0.5,7.3,0.2,9.6c0.8,2.5,2.2,3.7,3.4,3c1.7-1,1.9-4.8,1.1-8.5
					c-0.1-0.4,0.2-0.7,0.6-0.4c0.8,0.6,1.4,1.6,1.5,2.6c0.6,3-0.5,6.2-2.7,7.5c-3,1.9-5.9,0-7.1-3.7c-1-3-0.6-7.4-0.2-10.4
					c-0.8,1.8-2,3.3-3.5,4.5c1.8,6.6,2.3,14.7-1.6,17.8c-2,1.6-4,1-5.3-0.9C990.2,304.7,989.5,307.4,987.6,308.7z M983.7,299.8
					c0.2,4.7,2,8.3,3.5,7.3c1.5-1,1.9-4.7,1.5-9.4c-0.5-5.7-1.8-8.4-2.9-7.7C984.6,290.7,983.5,295.1,983.7,299.8L983.7,299.8z"/>
				<path id="Tracé_438" class="st13" d="M1004.3,274.3c-0.7-0.3-0.6-0.7,0-1c1.1-0.6,2.2-1.3,3.2-2.1c-0.1-2.2-0.1-4.5,0.1-6.7
					c0.1-0.7,0.5-0.9,0.9-0.6c1.1,0.9,1.9,2.2,2.1,4.8c0.9-0.7,2.1-0.8,3.2-0.3c0.6,0.3,0.6,0.7,0,1c-1.1,0.5-2.1,1.2-3,2
					c0,3.6,0,8.7,0.5,13c0.4,3.7,2.3,5.9,4,5c1.8-1,2.4-5.1,2.1-9c0-0.6,0.3-1,0.8-0.5c0.6,0.7,0.9,1.6,0.9,2.5
					c0.2,1.5-0.4,6.5-3.6,8.2c-2.7,1.5-6.5-0.2-7.3-5.9c-0.3-2.5-0.6-6.8-0.8-10.9C1006.5,274.4,1005.4,274.6,1004.3,274.3z"/>
				<path id="Tracé_439" class="st13" d="M1026.1,263.7c0.1-0.7,0.4-1,0.8-0.8c1,0.4,2.2,2,2.3,4.5c0.1,2.3-0.3,6.4-0.2,9.1
					c0.2,2.8,1.1,4.6,2.4,3.8c1.6-1,2.4-4.9,2.3-8.5c0-0.5,0.3-0.7,0.6-0.4c0.6,0.8,1,1.7,1,2.7c0.1,2.8-1.3,6.4-3.6,7.5
					c-2.3,1-4.1,0.3-5.1-1.6c-0.4,2.4-1.5,4.8-3.4,5.9c-3.8,2-7.3-2.8-6.5-9.5c0.8-6.5,3-10.1,5-11.1c1.7-0.9,3.3,0,4,1.6
					C1025.9,265.9,1026,264.8,1026.1,263.7z M1023.7,267.1c-1.4,0.6-2.9,4.8-3.3,9.6c-0.3,4.6,1.1,8.5,2.7,7.7
					c1.7-0.8,2.4-4.6,2.6-9.2C1025.9,269.3,1024.9,266.6,1023.7,267.1L1023.7,267.1z"/>
				<path id="Tracé_440" class="st13" d="M1045.9,276.2c0.2,6.7,0.3,14.7-2.5,17.5c-0.7,0.8-2,0.9-2.8,0.2
					c-1.8-0.9-3.1-2.8-3.2-4.8c-0.5-4.3,2-8.5,5.4-12c0-1.1-0.1-2.3-0.1-3.4c-0.5,1.7-1.7,3.2-3.3,4c-3.9,1.7-7-3.2-5.8-9.7
					c1.1-6.3,3.6-9.8,5.8-10.7c1.3-0.6,2.9-0.1,3.6,1.3c0.1,0.1,0.1,0.2,0.1,0.4c0.1-1.1,0.2-2,0.3-2.9c0.1-0.7,0.5-1,0.9-0.7
					c1,0.5,2.1,2.1,2,4.7c-0.1,3.1-0.5,9.3-0.4,14.2c2.3-2.8,3.9-6.1,4.7-9.7c0.1-0.4,0.5-0.6,0.8-0.2c0.4,0.9,0.5,1.9,0.3,2.8
					C1051.1,270.3,1048.8,273.4,1045.9,276.2z M1040.9,259.1c-1.3,0.5-3.2,4.6-3.9,9.3c-0.6,4.6,0.6,8.5,2.3,7.8
					c1.7-0.7,2.6-4.3,3.1-9C1042.9,261.4,1042.1,258.7,1040.9,259.1L1040.9,259.1z M1040.7,292.1c0.9,0.6,2.3-5.3,2.1-12.9
					C1038.8,284.8,1039.5,291.4,1040.7,292.1L1040.7,292.1z"/>
				<path id="Tracé_441" class="st13" d="M1058,268.4c3.6-1.2,5.4-5.9,6.2-9.4c0.1-0.4,0.4-0.6,0.7-0.2c0.5,0.9,0.6,2,0.3,2.9
					c-0.9,3.5-3.3,6.4-6.6,7.9c-5.4,2.2-9.4-2.4-8.7-9c0.6-6.6,4.2-10.5,6.8-10.1c1.2,0.2,2.4,0.6,3.4,1.3c1.2,0.7,1.8,3.5,0.9,6.4
					c-1.1,3.4-3.5,5.6-7.5,4.3C1053.6,266.9,1055.6,269.2,1058,268.4z M1057.7,257.2c0.7-2.3,0.8-4.9,0-5.2
					c-1.2-0.4-3.7,3.6-4.2,8.4c0,0.3-0.1,0.6-0.1,0.9C1056,261.8,1057.1,259.3,1057.7,257.2L1057.7,257.2z"/>
				<path id="Tracé_442" class="st13" d="M1087.3,258.6c1.8-0.6,3.3-4.3,3.9-7.8c0.1-0.5,0.4-0.6,0.7-0.3c0.5,0.9,0.7,1.9,0.5,2.8
					c-0.5,2.8-2.5,5.9-4.9,6.5c-2.4,0.6-4-0.4-4.6-2.5c-0.9,2.2-2.4,4.4-4.4,5c-4.1,1.2-6.6-4.1-4.6-10.5c1.9-6.2,4.9-9.2,7.1-9.9
					c1.8-0.5,3.1,0.6,3.5,2.2c1-5.3,2.6-12.3,3.5-15c0.3-0.7,0.7-0.8,1.1-0.3c1.1,1.3,1.5,3.2,0.6,7.1c-1,4.4-3,13-3.8,18.3
					C1085.4,257.3,1085.9,259.1,1087.3,258.6z M1077.3,252.9c-1.2,4.5-0.6,8.5,1.2,8c1.8-0.5,3.4-3.8,4.2-8.4
					c1.1-5.7,0.9-8.6-0.4-8.3C1080.9,244.5,1078.5,248.3,1077.3,252.9z"/>
				<path id="Tracé_443" class="st13" d="M1097.9,255.6c3.7-0.8,6.1-5.2,7.2-8.6c0.1-0.4,0.5-0.5,0.8-0.2c0.4,0.9,0.4,2,0,3
					c-1.3,3.4-4,6-7.5,7.1c-5.6,1.5-9-3.5-7.6-10c1.4-6.5,5.4-10,7.9-9.3c1.2,0.3,2.3,0.9,3.2,1.6c1.1,0.9,1.4,3.7,0.1,6.4
					c-1.5,3.2-4.2,5.2-8,3.4C1093.7,253.5,1095.5,256.1,1097.9,255.6z M1099,244.4c0.9-2.2,1.3-4.8,0.6-5.1
					c-1.1-0.5-4.1,3.1-5.1,7.9c-0.1,0.3-0.1,0.6-0.2,0.8C1096.8,248.8,1098.1,246.4,1099,244.4L1099,244.4z"/>
				<path id="Tracé_444" class="st13" d="M1119.4,236.4c-0.2-1.3,0.1-2.5,0.9-3.5c0.8-1,1.7-1.4,2.2-1.1c0.5,0.3,0.4,0.8,0,1.9
					c-0.1,0.3-0.2,0.6-0.3,0.9c0.4,3.9,1.9,7.1,2.3,10c0.2,1.7,0.3,3.5-1.1,4.8c2.6-1.6,3.9-4.5,4.5-7c0.1-0.5,0.6-0.5,0.8-0.2
					c0.4,0.9,0.3,2-0.1,2.9c-1,3-3.5,5.4-6.6,6.1c-2.4,0.6-4.9,0.4-6.9-2c-1.4-1.7-1.8-4.5-0.6-6c0.4-0.5,0.8-0.4,1,0.3
					c0.1,0.3,0.2,0.7,0.3,1C1117.2,242,1118.4,239.2,1119.4,236.4z M1116.8,246.8c1.1,2.3,2.7,3.8,4,3.1c1.8-1-0.1-7.5-0.9-10.8
					C1119,241.8,1117.9,244.3,1116.8,246.8L1116.8,246.8z"/>
				<path id="Tracé_445" class="st13" d="M1140.9,230.7c0.3-0.6,0.6-0.7,1-0.4c0.8,0.7,1.4,2.4,0.7,4.7c-0.7,2.1-2.3,5.6-3,8
					c-0.7,2.5-0.5,4.4,1,4.1c1.7-0.3,3.6-3.6,4.7-6.7c0.2-0.4,0.4-0.5,0.7-0.1c0.3,0.9,0.3,1.8,0,2.7c-0.8,2.5-3.1,5.2-5.5,5.5
					c-2.3,0.2-3.7-1-4-3c-1.1,1.9-2.8,3.8-4.8,4.1c-4,0.6-5.6-4.7-2.8-10.4c2.7-5.5,5.8-7.9,7.9-8.3c1.8-0.3,2.9,1,3,2.7
					C1140.1,232.5,1140.4,231.6,1140.9,230.7z M1137.7,232.9c-1.4,0.1-4.1,3.3-5.9,7.4c-1.7,4-1.7,7.8,0,7.6
					c1.8-0.2,3.6-3.3,5.2-7.3C1139,235.5,1139,232.8,1137.7,232.9L1137.7,232.9z"/>
				<path id="Tracé_446" class="st13" d="M1157.9,228.8c0.4-0.5,0.7-0.4,0.8,0.1c0.2,0.9-0.2,2-1.4,3.9c-3.3,4.5-6.3,9.3-9,14.2
					c-0.2,0.4-0.4,0.7-0.8,0.5c-1.7-0.7-2.4-1.5-2.5-3.8c0-4.7,0.6-9.3,1.6-13.8c0.1-0.5,0.5-0.7,0.8-0.4c1.5,1.1,1.9,2.6,1.5,5.3
					c-0.7,3.5-1.1,7-1.3,10.6C1150.6,239.6,1154,234.1,1157.9,228.8z"/>
				<path id="Tracé_447" class="st13" d="M1181.8,241.7c-1.3,2.6-4,4.5-6.4,4.5c-3.3,0-4.1-2.8-2.9-6.3c0.4-1.2,1.1-2.8,1.8-4.3
					c-1.2,0.8-2.6,1.2-4,1.1c-0.8,3.7-3.5,8.1-6.7,9.2c-2,0.7-4.2,0-5.4-1.8c-1.9-2.5-1.3-6.3,0.6-9.7c1.7-2.9,4.2-5.4,6.8-5.6
					c1.2-0.2,2.4,0.3,3,1.4c1,1.4,2.2,1.6,2.1,4.7c0,0.2,0,0.5-0.1,0.7c2.7,0,5.2-2.8,7.4-6.2c0.4-0.6,0.7-0.6,1.1-0.3
					c0.7,0.7,1,2.5,0,4.7c-0.8,1.9-2.7,4.9-3.6,7c-1.1,2.5-1,4.2,0.5,4.1c1.9-0.1,4.3-3,5.6-6c0.2-0.4,0.5-0.4,0.7,0
					C1182.4,239.9,1182.3,240.9,1181.8,241.7z M1164.7,231.9c-1.3,1.2-2.5,2.6-3.3,4.1c-1.8,3.2-2.4,7.2-1.3,8.2
					c1.2,1,3.8-0.6,5.9-4.5c0.6-1.2,1.2-2.4,1.6-3.7C1165.9,235.3,1164.9,233.7,1164.7,231.9z M1168,231.9c-0.1-1.4-1.1-1.1-1.3,0.1
					c-0.1,1.1,0.2,2.1,1,2.9C1168.1,233.9,1168.2,232.9,1168,231.9z M1179.8,224.8c0.7-0.7,2-0.2,2.5,1c0.4,0.9,0.3,2-0.3,2.8
					c-0.5,0.6-1.7,0.5-2.4-0.6C1179,227,1179,225.7,1179.8,224.8z"/>
				<path id="Tracé_448" class="st13" d="M1192.9,231.1c0.5-0.3,0.9-0.4,1.2,0c0.7,1,1.6,2.9,0.2,4.2c-2.1,2-4.4,4.5-5.3,6.7
					c-0.9,2.2-0.5,3.9,0.7,4c1.7,0.2,3.9-2.3,5.6-5.2c0.2-0.3,0.5-0.3,0.6,0c0.2,0.9,0,1.8-0.4,2.6c-1.2,2.4-3.8,4-6.1,3.7
					c-3.1-0.4-4.1-3.3-2.7-6.4c1.2-2.7,3.9-5.6,5.8-7.4c-1.6,0.9-3.4,1.3-5.2,1.2c-1.9,2.9-6.5,8.6-7.7,12.4
					c-0.1,0.4-0.4,0.6-0.7,0.2c-1.1-1.4-1-3.4,0.4-5.4c1.1-1.8,4.4-5.6,6.1-7.7c-2.3-1.8,1.9-6.5,3.4-6.4c1.3,0.1,0.8,2.5-0.5,5.1
					C1190,232.5,1191.5,232,1192.9,231.1z"/>
				<path id="Tracé_449" class="st13" d="M1196.7,238.1c0-0.3,0-0.5,0.4-0.4c1.9,0.4,4.6,0.4,6.2,0.6c1.8,0.3,2.3,1.2,2.4,2.3
					c0,0.3-0.1,0.5-0.5,0.4c-2.6-0.6-4.7-0.3-6.3-0.6C1197.4,240,1196.8,239.2,1196.7,238.1z"/>
				<path id="Tracé_450" class="st13" d="M1211,247.2c-0.1,0.4-0.2,0.8-0.3,1.2c1.8-0.9,3.4-2.1,4.6-3.7c0.3-0.4,0.7-0.3,0.7,0.2
					c0,0.7-0.3,1.5-0.8,2c-1.3,1.5-3,2.5-5,2.8c-1.2,3.3-3.2,6.4-5.8,8.8c-1.5,1.2-2.4,1.2-3.3,0.1c-0.7-0.9-1.5-2.5-0.5-5.4
					c2.6-7.7,13.4-19.5,18.5-24.6c0.4-0.4,0.8-0.2,0.9,0.2c0.2,1.3-0.2,2.8-2.3,5c-1.9,2.1-5.2,5.6-7.8,8.9
					C1211.2,243.5,1211.5,244.9,1211,247.2z M1201.8,257.3c0.6,1.2,4.2-3.2,6.3-7.8c-0.9-0.2-1.6-0.9-1.9-1.8
					C1203.4,252,1201.2,256.1,1201.8,257.3L1201.8,257.3z M1209.4,246.1c0.3-1.3,0.2-2.5-0.1-2.4c-0.4,0.1-1.1,1.9-1.3,2.7
					c-0.3,1.1-0.1,1.9,0.5,2.2C1208.9,247.8,1209.2,247,1209.4,246.1L1209.4,246.1z"/>
				<path id="Tracé_451" class="st13" d="M1229.2,239.9c0.4-0.4,0.7-0.4,0.9,0c0.4,0.8,0.2,2.3-1,3.9c-1.2,1.4-3.6,3.5-4.9,5.1
					c-1.4,1.7-1.8,3.2-0.6,3.5c1.4,0.3,4-1.6,5.8-3.6c0.3-0.3,0.5-0.2,0.6,0.1c0,0.8-0.3,1.5-0.9,2.1c-1.4,1.7-4.1,3-6,2.4
					c-1.5-0.3-2.5-1.8-2.2-3.3c0-0.1,0-0.2,0.1-0.3c-1.5,1.1-3.4,2-5.1,1.6c-3.2-0.9-2.7-5.4,1.3-8.9c3.9-3.4,7.1-4.2,8.8-3.8
					c1.2,0.3,1.9,1.5,1.6,2.7c0,0.1-0.1,0.3-0.1,0.4C1228,241.1,1228.6,240.5,1229.2,239.9z M1226.1,240.6c-1.1-0.4-4.2,1.2-7,3.8
					c-2.6,2.5-3.9,5.5-2.5,5.8c1.4,0.4,3.8-1.3,6.4-3.9C1226.2,243.1,1227.1,241,1226.1,240.6z"/>
				<path id="Tracé_452" class="st13" d="M1247.3,246.1c0.5-0.2,0.9-0.2,1.1,0.2c0.4,0.9,0.6,2.8-0.7,3.6c-2.2,1.2-4.2,2.8-5.9,4.6
					c-1.2,1.6-1.4,3.2-0.3,3.6c1.4,0.5,3.8-1.1,5.8-3.3c0.2-0.3,0.5-0.2,0.5,0.2c0,0.8-0.4,1.6-0.9,2.2c-1.5,1.7-3.8,2.4-5.9,1.8
					c-2.6-1-2.8-3.6-1-6.1c1.5-2.1,4.5-3.9,6.6-5.1c-1.5,0.4-3.1,0.4-4.7-0.1c-3.8,4.1-8.9,8-12.7,7.1c-2.7-0.6-2.6-3.3-0.7-5.8
					c2.1-2.5,4.5-4.8,7.2-6.8c0.4-0.3,0.7-0.3,0.9,0.1c0.3,0.7,0,2.3-1.3,3.7c-1.2,1.3-3.2,2.7-4.8,4.6c-1.5,1.7-1.8,3-0.7,3.2
					c2.3,0.5,7.2-2.2,10.9-6.8c-2.3-1.9,2.6-5.4,4.1-4.9c1.1,0.3-0.1,2.3-1.6,4.2C1244.5,246.6,1245.9,246.5,1247.3,246.1z
					 M1239,242.8c-0.6,0.4-1.5-0.1-1.7-1.2c-0.2-0.9,0.2-1.9,1-2.4c0.7-0.4,1.6,0.4,1.7,1.4C1240.1,241.5,1239.8,242.3,1239,242.8
					L1239,242.8z"/>
				<path id="Tracé_453" class="st13" d="M1249.5,261.2c2.7,1.2,6.2-0.5,8.6-2.1c0.3-0.2,0.5-0.1,0.6,0.3c-0.2,0.8-0.7,1.4-1.4,1.8
					c-2.4,1.6-5.3,1.9-8,1c-4.3-1.6-4.1-6.4-0.2-9.8s8-3.8,9.3-2.2c0.6,0.7,1,1.6,1.3,2.5c0.3,1-0.8,3-2.9,4.1
					c-2.4,1.3-5,1.3-6.6-1.5C1247.8,258,1247.8,260.4,1249.5,261.2z M1255.4,254.6c1.6-1,3.1-2.4,2.7-3c-0.5-0.8-4.1,0-6.9,2.6
					c-0.2,0.2-0.4,0.3-0.5,0.5C1252,256.4,1253.9,255.5,1255.4,254.6L1255.4,254.6z"/>
			</g>
		</g>
	</g>
</g>
<g id="Calque_2">
</g>
</svg>
